<?xml version="1.0" encoding="UTF-8" standalone="no"?>
<svg
   width="134.84186mm"
   height="82.804207mm"
   viewBox="0 0 3185.2477 1956.0049"
   version="1.2"
   id="svg12318"
   sodipodi:docname="kbdkid3_Board_Drills.svg"
   xmlns:inkscape="http://www.inkscape.org/namespaces/inkscape"
   xmlns:sodipodi="http://sodipodi.sourceforge.net/DTD/sodipodi-0.dtd"
   xmlns="http://www.w3.org/2000/svg"
   xmlns:svg="http://www.w3.org/2000/svg">
  <sodipodi:namedview
     id="namedview12320"
     pagecolor="#ffffff"
     bordercolor="#000000"
     borderopacity="0.25"
     inkscape:showpageshadow="2"
     inkscape:pageopacity="0.0"
     inkscape:pagecheckerboard="0"
     inkscape:deskcolor="#d1d1d1"
     inkscape:document-units="mm"
     showgrid="false" />
  <title
     id="title11570">kbdkid3</title>
  <desc
     id="desc11572">Generated with Qt</desc>
  <defs
     id="defs11574" />
  <g
     fill="none"
     stroke="#7f7f7f"
     stroke-opacity="0.890196"
     stroke-width="0.283465"
     stroke-linecap="square"
     stroke-linejoin="bevel"
     transform="matrix(8.34089,0,0,8.34089,1.1822006,1954.8244)"
     font-family="'Sans Serif'"
     font-size="75px"
     font-weight="400"
     font-style="normal"
     id="g12308"
     style="fill-rule:evenodd">
    <circle
       cx="173.47701"
       cy="-143.72"
       r="4.2519698"
       id="circle11576" />
    <circle
       cx="187.64999"
       cy="-137.48399"
       r="4.2519698"
       id="circle11578" />
    <circle
       cx="203.241"
       cy="-154.35001"
       r="2.69291"
       id="circle11580" />
    <circle
       cx="172.05901"
       cy="-154.35001"
       r="2.69291"
       id="circle11582" />
    <circle
       cx="187.64999"
       cy="-154.35001"
       r="4.8189001"
       id="circle11584" />
    <circle
       cx="202.44701"
       cy="-166.256"
       r="1.70079"
       id="circle11586" />
    <circle
       cx="93.823196"
       cy="-15.4701"
       r="4.2519698"
       id="circle11588" />
    <circle
       cx="79.650002"
       cy="-9.23386"
       r="4.2519698"
       id="circle11590" />
    <circle
       cx="64.059402"
       cy="-26.1"
       r="2.69291"
       id="circle11592" />
    <circle
       cx="95.240601"
       cy="-26.1"
       r="2.69291"
       id="circle11594" />
    <circle
       cx="79.650002"
       cy="-26.1"
       r="4.8189001"
       id="circle11596" />
    <circle
       cx="64.853104"
       cy="-38.005501"
       r="1.70079"
       id="circle11598" />
    <circle
       cx="227.47701"
       cy="-82.9701"
       r="4.2519698"
       id="circle11600" />
    <circle
       cx="241.64999"
       cy="-76.733902"
       r="4.2519698"
       id="circle11602" />
    <circle
       cx="257.241"
       cy="-93.599998"
       r="2.69291"
       id="circle11604" />
    <circle
       cx="226.05901"
       cy="-93.599998"
       r="2.69291"
       id="circle11606" />
    <circle
       cx="241.64999"
       cy="-93.599998"
       r="4.8189001"
       id="circle11608" />
    <circle
       cx="256.44699"
       cy="-105.506"
       r="1.70079"
       id="circle11610" />
    <circle
       cx="173.47701"
       cy="-89.7201"
       r="4.2519698"
       id="circle11612" />
    <circle
       cx="187.64999"
       cy="-83.483902"
       r="4.2519698"
       id="circle11614" />
    <circle
       cx="203.241"
       cy="-100.35"
       r="2.69291"
       id="circle11616" />
    <circle
       cx="172.05901"
       cy="-100.35"
       r="2.69291"
       id="circle11618" />
    <circle
       cx="187.64999"
       cy="-100.35"
       r="4.8189001"
       id="circle11620" />
    <circle
       cx="202.44701"
       cy="-112.256"
       r="1.70079"
       id="circle11622" />
    <circle
       cx="147.823"
       cy="-190.97"
       r="4.2519698"
       id="circle11624" />
    <circle
       cx="133.64999"
       cy="-184.73399"
       r="4.2519698"
       id="circle11626" />
    <circle
       cx="118.059"
       cy="-201.60001"
       r="2.69291"
       id="circle11628" />
    <circle
       cx="149.241"
       cy="-201.60001"
       r="2.69291"
       id="circle11630" />
    <circle
       cx="133.64999"
       cy="-201.60001"
       r="4.8189001"
       id="circle11632" />
    <circle
       cx="118.853"
       cy="-213.506"
       r="1.70079"
       id="circle11634" />
    <circle
       cx="335.47699"
       cy="-15.4701"
       r="4.2519698"
       id="circle11636" />
    <circle
       cx="349.64999"
       cy="-9.23386"
       r="4.2519698"
       id="circle11638" />
    <circle
       cx="365.241"
       cy="-26.1"
       r="2.69291"
       id="circle11640" />
    <circle
       cx="334.05899"
       cy="-26.1"
       r="2.69291"
       id="circle11642" />
    <circle
       cx="349.64999"
       cy="-26.1"
       r="4.8189001"
       id="circle11644" />
    <circle
       cx="364.44699"
       cy="-38.005501"
       r="1.70079"
       id="circle11646" />
    <circle
       cx="363.823"
       cy="-15.4701"
       r="4.2519698"
       id="circle11648" />
    <circle
       cx="349.64999"
       cy="-9.23386"
       r="4.2519698"
       id="circle11650" />
    <circle
       cx="334.05899"
       cy="-26.1"
       r="2.69291"
       id="circle11652" />
    <circle
       cx="365.241"
       cy="-26.1"
       r="2.69291"
       id="circle11654" />
    <circle
       cx="349.64999"
       cy="-26.1"
       r="4.8189001"
       id="circle11656" />
    <circle
       cx="334.853"
       cy="-38.005501"
       r="1.70079"
       id="circle11658" />
    <circle
       cx="65.476799"
       cy="-177.47"
       r="4.2519698"
       id="circle11660" />
    <circle
       cx="79.650002"
       cy="-171.23399"
       r="4.2519698"
       id="circle11662" />
    <circle
       cx="95.240601"
       cy="-188.10001"
       r="2.69291"
       id="circle11664" />
    <circle
       cx="64.059402"
       cy="-188.10001"
       r="2.69291"
       id="circle11666" />
    <circle
       cx="79.650002"
       cy="-188.10001"
       r="4.8189001"
       id="circle11668" />
    <circle
       cx="94.446899"
       cy="-200.006"
       r="1.70079"
       id="circle11670" />
    <circle
       cx="65.476799"
       cy="-69.4701"
       r="4.2519698"
       id="circle11672" />
    <circle
       cx="79.650002"
       cy="-63.233898"
       r="4.2519698"
       id="circle11674" />
    <circle
       cx="95.240601"
       cy="-80.099998"
       r="2.69291"
       id="circle11676" />
    <circle
       cx="64.059402"
       cy="-80.099998"
       r="2.69291"
       id="circle11678" />
    <circle
       cx="79.650002"
       cy="-80.099998"
       r="4.8189001"
       id="circle11680" />
    <circle
       cx="94.446899"
       cy="-92.005501"
       r="1.70079"
       id="circle11682" />
    <circle
       cx="65.476799"
       cy="-123.47"
       r="4.2519698"
       id="circle11684" />
    <circle
       cx="79.650002"
       cy="-117.234"
       r="4.2519698"
       id="circle11686" />
    <circle
       cx="95.240601"
       cy="-134.10001"
       r="2.69291"
       id="circle11688" />
    <circle
       cx="64.059402"
       cy="-134.10001"
       r="2.69291"
       id="circle11690" />
    <circle
       cx="79.650002"
       cy="-134.10001"
       r="4.8189001"
       id="circle11692" />
    <circle
       cx="94.446899"
       cy="-146.006"
       r="1.70079"
       id="circle11694" />
    <circle
       cx="119.477"
       cy="-82.9701"
       r="4.2519698"
       id="circle11696" />
    <circle
       cx="133.64999"
       cy="-76.733902"
       r="4.2519698"
       id="circle11698" />
    <circle
       cx="149.241"
       cy="-93.599998"
       r="2.69291"
       id="circle11700" />
    <circle
       cx="118.059"
       cy="-93.599998"
       r="2.69291"
       id="circle11702" />
    <circle
       cx="133.64999"
       cy="-93.599998"
       r="4.8189001"
       id="circle11704" />
    <circle
       cx="148.44701"
       cy="-105.506"
       r="1.70079"
       id="circle11706" />
    <circle
       cx="11.4768"
       cy="-15.4701"
       r="4.2519698"
       id="circle11708" />
    <circle
       cx="25.65"
       cy="-9.23386"
       r="4.2519698"
       id="circle11710" />
    <circle
       cx="41.240601"
       cy="-26.1"
       r="2.69291"
       id="circle11712" />
    <circle
       cx="10.0594"
       cy="-26.1"
       r="2.69291"
       id="circle11714" />
    <circle
       cx="25.65"
       cy="-26.1"
       r="4.8189001"
       id="circle11716" />
    <circle
       cx="40.446899"
       cy="-38.005501"
       r="1.70079"
       id="circle11718" />
    <circle
       cx="309.823"
       cy="-130.22"
       r="4.2519698"
       id="circle11720" />
    <circle
       cx="295.64999"
       cy="-123.984"
       r="4.2519698"
       id="circle11722" />
    <circle
       cx="280.05899"
       cy="-140.85001"
       r="2.69291"
       id="circle11724" />
    <circle
       cx="311.241"
       cy="-140.85001"
       r="2.69291"
       id="circle11726" />
    <circle
       cx="295.64999"
       cy="-140.85001"
       r="4.8189001"
       id="circle11728" />
    <circle
       cx="280.853"
       cy="-152.756"
       r="1.70079"
       id="circle11730" />
    <circle
       cx="227.47701"
       cy="-190.97"
       r="4.2519698"
       id="circle11732" />
    <circle
       cx="241.64999"
       cy="-184.73399"
       r="4.2519698"
       id="circle11734" />
    <circle
       cx="257.241"
       cy="-201.60001"
       r="2.69291"
       id="circle11736" />
    <circle
       cx="226.05901"
       cy="-201.60001"
       r="2.69291"
       id="circle11738" />
    <circle
       cx="241.64999"
       cy="-201.60001"
       r="4.8189001"
       id="circle11740" />
    <circle
       cx="256.44699"
       cy="-213.506"
       r="1.70079"
       id="circle11742" />
    <circle
       cx="39.8232"
       cy="-15.4701"
       r="4.2519698"
       id="circle11744" />
    <circle
       cx="25.65"
       cy="-9.23386"
       r="4.2519698"
       id="circle11746" />
    <circle
       cx="10.0594"
       cy="-26.1"
       r="2.69291"
       id="circle11748" />
    <circle
       cx="41.240601"
       cy="-26.1"
       r="2.69291"
       id="circle11750" />
    <circle
       cx="25.65"
       cy="-26.1"
       r="4.8189001"
       id="circle11752" />
    <circle
       cx="10.8531"
       cy="-38.005501"
       r="1.70079"
       id="circle11754" />
    <circle
       cx="147.823"
       cy="-136.97"
       r="4.2519698"
       id="circle11756" />
    <circle
       cx="133.64999"
       cy="-130.73399"
       r="4.2519698"
       id="circle11758" />
    <circle
       cx="118.059"
       cy="-147.60001"
       r="2.69291"
       id="circle11760" />
    <circle
       cx="149.241"
       cy="-147.60001"
       r="2.69291"
       id="circle11762" />
    <circle
       cx="133.64999"
       cy="-147.60001"
       r="4.8189001"
       id="circle11764" />
    <circle
       cx="118.853"
       cy="-159.506"
       r="1.70079"
       id="circle11766" />
    <circle
       cx="39.8232"
       cy="-69.4701"
       r="4.2519698"
       id="circle11768" />
    <circle
       cx="25.65"
       cy="-63.233898"
       r="4.2519698"
       id="circle11770" />
    <circle
       cx="10.0594"
       cy="-80.099998"
       r="2.69291"
       id="circle11772" />
    <circle
       cx="41.240601"
       cy="-80.099998"
       r="2.69291"
       id="circle11774" />
    <circle
       cx="25.65"
       cy="-80.099998"
       r="4.8189001"
       id="circle11776" />
    <circle
       cx="10.8531"
       cy="-92.005501"
       r="1.70079"
       id="circle11778" />
    <circle
       cx="39.8232"
       cy="-123.47"
       r="4.2519698"
       id="circle11780" />
    <circle
       cx="25.65"
       cy="-117.234"
       r="4.2519698"
       id="circle11782" />
    <circle
       cx="10.0594"
       cy="-134.10001"
       r="2.69291"
       id="circle11784" />
    <circle
       cx="41.240601"
       cy="-134.10001"
       r="2.69291"
       id="circle11786" />
    <circle
       cx="25.65"
       cy="-134.10001"
       r="4.8189001"
       id="circle11788" />
    <circle
       cx="10.8531"
       cy="-146.006"
       r="1.70079"
       id="circle11790" />
    <circle
       cx="309.823"
       cy="-22.2201"
       r="4.2519698"
       id="circle11792" />
    <circle
       cx="295.64999"
       cy="-15.9839"
       r="4.2519698"
       id="circle11794" />
    <circle
       cx="280.05899"
       cy="-32.849998"
       r="2.69291"
       id="circle11796" />
    <circle
       cx="311.241"
       cy="-32.849998"
       r="2.69291"
       id="circle11798" />
    <circle
       cx="295.64999"
       cy="-32.849998"
       r="4.8189001"
       id="circle11800" />
    <circle
       cx="280.853"
       cy="-44.755501"
       r="1.70079"
       id="circle11802" />
    <circle
       cx="255.823"
       cy="-190.97"
       r="4.2519698"
       id="circle11804" />
    <circle
       cx="241.64999"
       cy="-184.73399"
       r="4.2519698"
       id="circle11806" />
    <circle
       cx="226.05901"
       cy="-201.60001"
       r="2.69291"
       id="circle11808" />
    <circle
       cx="257.241"
       cy="-201.60001"
       r="2.69291"
       id="circle11810" />
    <circle
       cx="241.64999"
       cy="-201.60001"
       r="4.8189001"
       id="circle11812" />
    <circle
       cx="226.853"
       cy="-213.506"
       r="1.70079"
       id="circle11814" />
    <circle
       cx="255.823"
       cy="-136.97"
       r="4.2519698"
       id="circle11816" />
    <circle
       cx="241.64999"
       cy="-130.73399"
       r="4.2519698"
       id="circle11818" />
    <circle
       cx="226.05901"
       cy="-147.60001"
       r="2.69291"
       id="circle11820" />
    <circle
       cx="257.241"
       cy="-147.60001"
       r="2.69291"
       id="circle11822" />
    <circle
       cx="241.64999"
       cy="-147.60001"
       r="4.8189001"
       id="circle11824" />
    <circle
       cx="226.853"
       cy="-159.506"
       r="1.70079"
       id="circle11826" />
    <circle
       cx="281.47699"
       cy="-76.2201"
       r="4.2519698"
       id="circle11828" />
    <circle
       cx="295.64999"
       cy="-69.983902"
       r="4.2519698"
       id="circle11830" />
    <circle
       cx="311.241"
       cy="-86.849998"
       r="2.69291"
       id="circle11832" />
    <circle
       cx="280.05899"
       cy="-86.849998"
       r="2.69291"
       id="circle11834" />
    <circle
       cx="295.64999"
       cy="-86.849998"
       r="4.8189001"
       id="circle11836" />
    <circle
       cx="310.44699"
       cy="-98.755501"
       r="1.70079"
       id="circle11838" />
    <circle
       cx="201.823"
       cy="-143.72"
       r="4.2519698"
       id="circle11840" />
    <circle
       cx="187.64999"
       cy="-137.48399"
       r="4.2519698"
       id="circle11842" />
    <circle
       cx="172.05901"
       cy="-154.35001"
       r="2.69291"
       id="circle11844" />
    <circle
       cx="203.241"
       cy="-154.35001"
       r="2.69291"
       id="circle11846" />
    <circle
       cx="187.64999"
       cy="-154.35001"
       r="4.8189001"
       id="circle11848" />
    <circle
       cx="172.853"
       cy="-166.256"
       r="1.70079"
       id="circle11850" />
    <circle
       cx="119.477"
       cy="-136.97"
       r="4.2519698"
       id="circle11852" />
    <circle
       cx="133.64999"
       cy="-130.73399"
       r="4.2519698"
       id="circle11854" />
    <circle
       cx="149.241"
       cy="-147.60001"
       r="2.69291"
       id="circle11856" />
    <circle
       cx="118.059"
       cy="-147.60001"
       r="2.69291"
       id="circle11858" />
    <circle
       cx="133.64999"
       cy="-147.60001"
       r="4.8189001"
       id="circle11860" />
    <circle
       cx="148.44701"
       cy="-159.506"
       r="1.70079"
       id="circle11862" />
    <circle
       cx="363.79099"
       cy="-194.37"
       r="1.2755899"
       id="circle11864" />
    <circle
       cx="366.55899"
       cy="-186.33"
       r="1.2755899"
       id="circle11866" />
    <circle
       cx="65.476799"
       cy="-15.4701"
       r="4.2519698"
       id="circle11868" />
    <circle
       cx="79.650002"
       cy="-9.23386"
       r="4.2519698"
       id="circle11870" />
    <circle
       cx="95.240601"
       cy="-26.1"
       r="2.69291"
       id="circle11872" />
    <circle
       cx="64.059402"
       cy="-26.1"
       r="2.69291"
       id="circle11874" />
    <circle
       cx="79.650002"
       cy="-26.1"
       r="4.8189001"
       id="circle11876" />
    <circle
       cx="94.446899"
       cy="-38.005501"
       r="1.70079"
       id="circle11878" />
    <circle
       cx="366.55899"
       cy="-186.33"
       r="1.2755899"
       id="circle11880" />
    <circle
       cx="363.79099"
       cy="-194.37"
       r="1.2755899"
       id="circle11882" />
    <circle
       cx="147.823"
       cy="-82.9701"
       r="4.2519698"
       id="circle11884" />
    <circle
       cx="133.64999"
       cy="-76.733902"
       r="4.2519698"
       id="circle11886" />
    <circle
       cx="118.059"
       cy="-93.599998"
       r="2.69291"
       id="circle11888" />
    <circle
       cx="149.241"
       cy="-93.599998"
       r="2.69291"
       id="circle11890" />
    <circle
       cx="133.64999"
       cy="-93.599998"
       r="4.8189001"
       id="circle11892" />
    <circle
       cx="118.853"
       cy="-105.506"
       r="1.70079"
       id="circle11894" />
    <circle
       cx="173.47701"
       cy="-197.72"
       r="4.2519698"
       id="circle11896" />
    <circle
       cx="187.64999"
       cy="-191.48399"
       r="4.2519698"
       id="circle11898" />
    <circle
       cx="203.241"
       cy="-208.35001"
       r="2.69291"
       id="circle11900" />
    <circle
       cx="172.05901"
       cy="-208.35001"
       r="2.69291"
       id="circle11902" />
    <circle
       cx="187.64999"
       cy="-208.35001"
       r="4.8189001"
       id="circle11904" />
    <circle
       cx="202.44701"
       cy="-220.256"
       r="1.70079"
       id="circle11906" />
    <circle
       cx="281.47699"
       cy="-184.22"
       r="4.2519698"
       id="circle11908" />
    <circle
       cx="295.64999"
       cy="-177.98399"
       r="4.2519698"
       id="circle11910" />
    <circle
       cx="311.241"
       cy="-194.85001"
       r="2.69291"
       id="circle11912" />
    <circle
       cx="280.05899"
       cy="-194.85001"
       r="2.69291"
       id="circle11914" />
    <circle
       cx="295.64999"
       cy="-194.85001"
       r="4.8189001"
       id="circle11916" />
    <circle
       cx="310.44699"
       cy="-206.756"
       r="1.70079"
       id="circle11918" />
    <circle
       cx="11.4768"
       cy="-69.4701"
       r="4.2519698"
       id="circle11920" />
    <circle
       cx="25.65"
       cy="-63.233898"
       r="4.2519698"
       id="circle11922" />
    <circle
       cx="41.240601"
       cy="-80.099998"
       r="2.69291"
       id="circle11924" />
    <circle
       cx="10.0594"
       cy="-80.099998"
       r="2.69291"
       id="circle11926" />
    <circle
       cx="25.65"
       cy="-80.099998"
       r="4.8189001"
       id="circle11928" />
    <circle
       cx="40.446899"
       cy="-92.005501"
       r="1.70079"
       id="circle11930" />
    <circle
       cx="201.823"
       cy="-35.7201"
       r="4.2519698"
       id="circle11932" />
    <circle
       cx="187.64999"
       cy="-29.4839"
       r="4.2519698"
       id="circle11934" />
    <circle
       cx="172.05901"
       cy="-46.349998"
       r="2.69291"
       id="circle11936" />
    <circle
       cx="203.241"
       cy="-46.349998"
       r="2.69291"
       id="circle11938" />
    <circle
       cx="187.64999"
       cy="-46.349998"
       r="4.8189001"
       id="circle11940" />
    <circle
       cx="172.853"
       cy="-58.255501"
       r="1.70079"
       id="circle11942" />
    <circle
       cx="11.4768"
       cy="-123.47"
       r="4.2519698"
       id="circle11944" />
    <circle
       cx="25.65"
       cy="-117.234"
       r="4.2519698"
       id="circle11946" />
    <circle
       cx="41.240601"
       cy="-134.10001"
       r="2.69291"
       id="circle11948" />
    <circle
       cx="10.0594"
       cy="-134.10001"
       r="2.69291"
       id="circle11950" />
    <circle
       cx="25.65"
       cy="-134.10001"
       r="4.8189001"
       id="circle11952" />
    <circle
       cx="40.446899"
       cy="-146.006"
       r="1.70079"
       id="circle11954" />
    <circle
       cx="173.47701"
       cy="-35.7201"
       r="4.2519698"
       id="circle11956" />
    <circle
       cx="187.64999"
       cy="-29.4839"
       r="4.2519698"
       id="circle11958" />
    <circle
       cx="203.241"
       cy="-46.349998"
       r="2.69291"
       id="circle11960" />
    <circle
       cx="172.05901"
       cy="-46.349998"
       r="2.69291"
       id="circle11962" />
    <circle
       cx="187.64999"
       cy="-46.349998"
       r="4.8189001"
       id="circle11964" />
    <circle
       cx="202.44701"
       cy="-58.255501"
       r="1.70079"
       id="circle11966" />
    <circle
       cx="93.823196"
       cy="-123.47"
       r="4.2519698"
       id="circle11968" />
    <circle
       cx="79.650002"
       cy="-117.234"
       r="4.2519698"
       id="circle11970" />
    <circle
       cx="64.059402"
       cy="-134.10001"
       r="2.69291"
       id="circle11972" />
    <circle
       cx="95.240601"
       cy="-134.10001"
       r="2.69291"
       id="circle11974" />
    <circle
       cx="79.650002"
       cy="-134.10001"
       r="4.8189001"
       id="circle11976" />
    <circle
       cx="64.853104"
       cy="-146.006"
       r="1.70079"
       id="circle11978" />
    <circle
       cx="281.47699"
       cy="-130.22"
       r="4.2519698"
       id="circle11980" />
    <circle
       cx="295.64999"
       cy="-123.984"
       r="4.2519698"
       id="circle11982" />
    <circle
       cx="311.241"
       cy="-140.85001"
       r="2.69291"
       id="circle11984" />
    <circle
       cx="280.05899"
       cy="-140.85001"
       r="2.69291"
       id="circle11986" />
    <circle
       cx="295.64999"
       cy="-140.85001"
       r="4.8189001"
       id="circle11988" />
    <circle
       cx="310.44699"
       cy="-152.756"
       r="1.70079"
       id="circle11990" />
    <circle
       cx="227.47701"
       cy="-136.97"
       r="4.2519698"
       id="circle11992" />
    <circle
       cx="241.64999"
       cy="-130.73399"
       r="4.2519698"
       id="circle11994" />
    <circle
       cx="257.241"
       cy="-147.60001"
       r="2.69291"
       id="circle11996" />
    <circle
       cx="226.05901"
       cy="-147.60001"
       r="2.69291"
       id="circle11998" />
    <circle
       cx="241.64999"
       cy="-147.60001"
       r="4.8189001"
       id="circle12000" />
    <circle
       cx="256.44699"
       cy="-159.506"
       r="1.70079"
       id="circle12002" />
    <circle
       cx="201.823"
       cy="-197.72"
       r="4.2519698"
       id="circle12004" />
    <circle
       cx="187.64999"
       cy="-191.48399"
       r="4.2519698"
       id="circle12006" />
    <circle
       cx="172.05901"
       cy="-208.35001"
       r="2.69291"
       id="circle12008" />
    <circle
       cx="203.241"
       cy="-208.35001"
       r="2.69291"
       id="circle12010" />
    <circle
       cx="187.64999"
       cy="-208.35001"
       r="4.8189001"
       id="circle12012" />
    <circle
       cx="172.853"
       cy="-220.256"
       r="1.70079"
       id="circle12014" />
    <circle
       cx="93.823196"
       cy="-177.47"
       r="4.2519698"
       id="circle12016" />
    <circle
       cx="79.650002"
       cy="-171.23399"
       r="4.2519698"
       id="circle12018" />
    <circle
       cx="64.059402"
       cy="-188.10001"
       r="2.69291"
       id="circle12020" />
    <circle
       cx="95.240601"
       cy="-188.10001"
       r="2.69291"
       id="circle12022" />
    <circle
       cx="79.650002"
       cy="-188.10001"
       r="4.8189001"
       id="circle12024" />
    <circle
       cx="64.853104"
       cy="-200.006"
       r="1.70079"
       id="circle12026" />
    <circle
       cx="255.823"
       cy="-82.9701"
       r="4.2519698"
       id="circle12028" />
    <circle
       cx="241.64999"
       cy="-76.733902"
       r="4.2519698"
       id="circle12030" />
    <circle
       cx="226.05901"
       cy="-93.599998"
       r="2.69291"
       id="circle12032" />
    <circle
       cx="257.241"
       cy="-93.599998"
       r="2.69291"
       id="circle12034" />
    <circle
       cx="241.64999"
       cy="-93.599998"
       r="4.8189001"
       id="circle12036" />
    <circle
       cx="226.853"
       cy="-105.506"
       r="1.70079"
       id="circle12038" />
    <circle
       cx="309.823"
       cy="-76.2201"
       r="4.2519698"
       id="circle12040" />
    <circle
       cx="295.64999"
       cy="-69.983902"
       r="4.2519698"
       id="circle12042" />
    <circle
       cx="280.05899"
       cy="-86.849998"
       r="2.69291"
       id="circle12044" />
    <circle
       cx="311.241"
       cy="-86.849998"
       r="2.69291"
       id="circle12046" />
    <circle
       cx="295.64999"
       cy="-86.849998"
       r="4.8189001"
       id="circle12048" />
    <circle
       cx="280.853"
       cy="-98.755501"
       r="1.70079"
       id="circle12050" />
    <circle
       cx="93.823196"
       cy="-69.4701"
       r="4.2519698"
       id="circle12052" />
    <circle
       cx="79.650002"
       cy="-63.233898"
       r="4.2519698"
       id="circle12054" />
    <circle
       cx="64.059402"
       cy="-80.099998"
       r="2.69291"
       id="circle12056" />
    <circle
       cx="95.240601"
       cy="-80.099998"
       r="2.69291"
       id="circle12058" />
    <circle
       cx="79.650002"
       cy="-80.099998"
       r="4.8189001"
       id="circle12060" />
    <circle
       cx="64.853104"
       cy="-92.005501"
       r="1.70079"
       id="circle12062" />
    <circle
       cx="119.477"
       cy="-28.9701"
       r="4.2519698"
       id="circle12064" />
    <circle
       cx="133.64999"
       cy="-22.7339"
       r="4.2519698"
       id="circle12066" />
    <circle
       cx="149.241"
       cy="-39.599998"
       r="2.69291"
       id="circle12068" />
    <circle
       cx="118.059"
       cy="-39.599998"
       r="2.69291"
       id="circle12070" />
    <circle
       cx="133.64999"
       cy="-39.599998"
       r="4.8189001"
       id="circle12072" />
    <circle
       cx="148.44701"
       cy="-51.505501"
       r="1.70079"
       id="circle12074" />
    <circle
       cx="227.47701"
       cy="-28.9701"
       r="4.2519698"
       id="circle12076" />
    <circle
       cx="241.64999"
       cy="-22.7339"
       r="4.2519698"
       id="circle12078" />
    <circle
       cx="257.241"
       cy="-39.599998"
       r="2.69291"
       id="circle12080" />
    <circle
       cx="226.05901"
       cy="-39.599998"
       r="2.69291"
       id="circle12082" />
    <circle
       cx="241.64999"
       cy="-39.599998"
       r="4.8189001"
       id="circle12084" />
    <circle
       cx="256.44699"
       cy="-51.505501"
       r="1.70079"
       id="circle12086" />
    <circle
       cx="281.47699"
       cy="-22.2201"
       r="4.2519698"
       id="circle12088" />
    <circle
       cx="295.64999"
       cy="-15.9839"
       r="4.2519698"
       id="circle12090" />
    <circle
       cx="311.241"
       cy="-32.849998"
       r="2.69291"
       id="circle12092" />
    <circle
       cx="280.05899"
       cy="-32.849998"
       r="2.69291"
       id="circle12094" />
    <circle
       cx="295.64999"
       cy="-32.849998"
       r="4.8189001"
       id="circle12096" />
    <circle
       cx="310.44699"
       cy="-44.755501"
       r="1.70079"
       id="circle12098" />
    <circle
       cx="201.823"
       cy="-89.7201"
       r="4.2519698"
       id="circle12100" />
    <circle
       cx="187.64999"
       cy="-83.483902"
       r="4.2519698"
       id="circle12102" />
    <circle
       cx="172.05901"
       cy="-100.35"
       r="2.69291"
       id="circle12104" />
    <circle
       cx="203.241"
       cy="-100.35"
       r="2.69291"
       id="circle12106" />
    <circle
       cx="187.64999"
       cy="-100.35"
       r="4.8189001"
       id="circle12108" />
    <circle
       cx="172.853"
       cy="-112.256"
       r="1.70079"
       id="circle12110" />
    <circle
       cx="255.823"
       cy="-28.9701"
       r="4.2519698"
       id="circle12112" />
    <circle
       cx="241.64999"
       cy="-22.7339"
       r="4.2519698"
       id="circle12114" />
    <circle
       cx="226.05901"
       cy="-39.599998"
       r="2.69291"
       id="circle12116" />
    <circle
       cx="257.241"
       cy="-39.599998"
       r="2.69291"
       id="circle12118" />
    <circle
       cx="241.64999"
       cy="-39.599998"
       r="4.8189001"
       id="circle12120" />
    <circle
       cx="226.853"
       cy="-51.505501"
       r="1.70079"
       id="circle12122" />
    <circle
       cx="11.4768"
       cy="-177.47"
       r="4.2519698"
       id="circle12124" />
    <circle
       cx="25.65"
       cy="-171.23399"
       r="4.2519698"
       id="circle12126" />
    <circle
       cx="41.240601"
       cy="-188.10001"
       r="2.69291"
       id="circle12128" />
    <circle
       cx="10.0594"
       cy="-188.10001"
       r="2.69291"
       id="circle12130" />
    <circle
       cx="25.65"
       cy="-188.10001"
       r="4.8189001"
       id="circle12132" />
    <circle
       cx="40.446899"
       cy="-200.006"
       r="1.70079"
       id="circle12134" />
    <circle
       cx="309.823"
       cy="-184.22"
       r="4.2519698"
       id="circle12136" />
    <circle
       cx="295.64999"
       cy="-177.98399"
       r="4.2519698"
       id="circle12138" />
    <circle
       cx="280.05899"
       cy="-194.85001"
       r="2.69291"
       id="circle12140" />
    <circle
       cx="311.241"
       cy="-194.85001"
       r="2.69291"
       id="circle12142" />
    <circle
       cx="295.64999"
       cy="-194.85001"
       r="4.8189001"
       id="circle12144" />
    <circle
       cx="280.853"
       cy="-206.756"
       r="1.70079"
       id="circle12146" />
    <circle
       cx="147.823"
       cy="-28.9701"
       r="4.2519698"
       id="circle12148" />
    <circle
       cx="133.64999"
       cy="-22.7339"
       r="4.2519698"
       id="circle12150" />
    <circle
       cx="118.059"
       cy="-39.599998"
       r="2.69291"
       id="circle12152" />
    <circle
       cx="149.241"
       cy="-39.599998"
       r="2.69291"
       id="circle12154" />
    <circle
       cx="133.64999"
       cy="-39.599998"
       r="4.8189001"
       id="circle12156" />
    <circle
       cx="118.853"
       cy="-51.505501"
       r="1.70079"
       id="circle12158" />
    <circle
       cx="39.8232"
       cy="-177.47"
       r="4.2519698"
       id="circle12160" />
    <circle
       cx="25.65"
       cy="-171.23399"
       r="4.2519698"
       id="circle12162" />
    <circle
       cx="10.0594"
       cy="-188.10001"
       r="2.69291"
       id="circle12164" />
    <circle
       cx="41.240601"
       cy="-188.10001"
       r="2.69291"
       id="circle12166" />
    <circle
       cx="25.65"
       cy="-188.10001"
       r="4.8189001"
       id="circle12168" />
    <circle
       cx="10.8531"
       cy="-200.006"
       r="1.70079"
       id="circle12170" />
    <circle
       cx="119.477"
       cy="-190.97"
       r="4.2519698"
       id="circle12172" />
    <circle
       cx="133.64999"
       cy="-184.73399"
       r="4.2519698"
       id="circle12174" />
    <circle
       cx="149.241"
       cy="-201.60001"
       r="2.69291"
       id="circle12176" />
    <circle
       cx="118.059"
       cy="-201.60001"
       r="2.69291"
       id="circle12178" />
    <circle
       cx="133.64999"
       cy="-201.60001"
       r="4.8189001"
       id="circle12180" />
    <circle
       cx="148.44701"
       cy="-213.506"
       r="1.70079"
       id="circle12182" />
    <circle
       cx="339.66"
       cy="-181.38"
       r="1.13386"
       id="circle12184" />
    <circle
       cx="333.98999"
       cy="-181.38"
       r="1.13386"
       id="circle12186" />
    <circle
       cx="333.98999"
       cy="-181.38"
       r="1.13386"
       id="circle12188" />
    <circle
       cx="339.66"
       cy="-181.38"
       r="1.13386"
       id="circle12190" />
    <circle
       cx="349.64999"
       cy="-63.900002"
       r="1.41732"
       id="circle12192" />
    <circle
       cx="342.45001"
       cy="-63.900002"
       r="1.41732"
       id="circle12194" />
    <circle
       cx="335.25"
       cy="-63.900002"
       r="1.41732"
       id="circle12196" />
    <circle
       cx="356.85001"
       cy="-63.900002"
       r="1.41732"
       id="circle12198" />
    <circle
       cx="364.04999"
       cy="-63.900002"
       r="1.41732"
       id="circle12200" />
    <circle
       cx="328.04999"
       cy="-128.7"
       r="1.41732"
       id="circle12202" />
    <circle
       cx="328.04999"
       cy="-107.1"
       r="1.41732"
       id="circle12204" />
    <circle
       cx="371.25"
       cy="-121.5"
       r="1.41732"
       id="circle12206" />
    <circle
       cx="371.25"
       cy="-99.900002"
       r="1.41732"
       id="circle12208" />
    <circle
       cx="371.25"
       cy="-85.5"
       r="1.41732"
       id="circle12210" />
    <circle
       cx="328.04999"
       cy="-157.5"
       r="1.41732"
       id="circle12212" />
    <circle
       cx="328.04999"
       cy="-92.699997"
       r="1.41732"
       id="circle12214" />
    <circle
       cx="371.25"
       cy="-157.5"
       r="1.41732"
       id="circle12216" />
    <circle
       cx="371.25"
       cy="-150.3"
       r="1.41732"
       id="circle12218" />
    <circle
       cx="328.04999"
       cy="-143.10001"
       r="1.41732"
       id="circle12220" />
    <circle
       cx="371.25"
       cy="-114.3"
       r="1.41732"
       id="circle12222" />
    <circle
       cx="371.25"
       cy="-92.699997"
       r="1.41732"
       id="circle12224" />
    <circle
       cx="328.04999"
       cy="-85.5"
       r="1.41732"
       id="circle12226" />
    <circle
       cx="371.25"
       cy="-143.10001"
       r="1.41732"
       id="circle12228" />
    <circle
       cx="371.25"
       cy="-107.1"
       r="1.41732"
       id="circle12230" />
    <circle
       cx="371.25"
       cy="-128.7"
       r="1.41732"
       id="circle12232" />
    <circle
       cx="328.04999"
       cy="-121.5"
       r="1.41732"
       id="circle12234" />
    <circle
       cx="328.04999"
       cy="-114.3"
       r="1.41732"
       id="circle12236" />
    <circle
       cx="371.25"
       cy="-78.300003"
       r="1.41732"
       id="circle12238" />
    <circle
       cx="328.04999"
       cy="-135.89999"
       r="1.41732"
       id="circle12240" />
    <circle
       cx="328.04999"
       cy="-150.3"
       r="1.41732"
       id="circle12242" />
    <circle
       cx="328.04999"
       cy="-78.300003"
       r="1.41732"
       id="circle12244" />
    <circle
       cx="328.04999"
       cy="-99.900002"
       r="1.41732"
       id="circle12246" />
    <circle
       cx="371.25"
       cy="-135.89999"
       r="1.41732"
       id="circle12248" />
    <circle
       cx="349.64999"
       cy="-63.900002"
       r="1.41732"
       id="circle12250" />
    <circle
       cx="356.85001"
       cy="-63.900002"
       r="1.41732"
       id="circle12252" />
    <circle
       cx="364.04999"
       cy="-63.900002"
       r="1.41732"
       id="circle12254" />
    <circle
       cx="342.45001"
       cy="-63.900002"
       r="1.41732"
       id="circle12256" />
    <circle
       cx="335.25"
       cy="-63.900002"
       r="1.41732"
       id="circle12258" />
    <circle
       cx="371.25"
       cy="-128.7"
       r="1.41732"
       id="circle12260" />
    <circle
       cx="371.25"
       cy="-107.1"
       r="1.41732"
       id="circle12262" />
    <circle
       cx="328.04999"
       cy="-121.5"
       r="1.41732"
       id="circle12264" />
    <circle
       cx="328.04999"
       cy="-99.900002"
       r="1.41732"
       id="circle12266" />
    <circle
       cx="328.04999"
       cy="-85.5"
       r="1.41732"
       id="circle12268" />
    <circle
       cx="371.25"
       cy="-157.5"
       r="1.41732"
       id="circle12270" />
    <circle
       cx="371.25"
       cy="-92.699997"
       r="1.41732"
       id="circle12272" />
    <circle
       cx="328.04999"
       cy="-157.5"
       r="1.41732"
       id="circle12274" />
    <circle
       cx="328.04999"
       cy="-150.3"
       r="1.41732"
       id="circle12276" />
    <circle
       cx="371.25"
       cy="-143.10001"
       r="1.41732"
       id="circle12278" />
    <circle
       cx="328.04999"
       cy="-114.3"
       r="1.41732"
       id="circle12280" />
    <circle
       cx="328.04999"
       cy="-92.699997"
       r="1.41732"
       id="circle12282" />
    <circle
       cx="371.25"
       cy="-85.5"
       r="1.41732"
       id="circle12284" />
    <circle
       cx="328.04999"
       cy="-143.10001"
       r="1.41732"
       id="circle12286" />
    <circle
       cx="328.04999"
       cy="-107.1"
       r="1.41732"
       id="circle12288" />
    <circle
       cx="328.04999"
       cy="-128.7"
       r="1.41732"
       id="circle12290" />
    <circle
       cx="371.25"
       cy="-121.5"
       r="1.41732"
       id="circle12292" />
    <circle
       cx="371.25"
       cy="-114.3"
       r="1.41732"
       id="circle12294" />
    <circle
       cx="328.04999"
       cy="-78.300003"
       r="1.41732"
       id="circle12296" />
    <circle
       cx="371.25"
       cy="-135.89999"
       r="1.41732"
       id="circle12298" />
    <circle
       cx="371.25"
       cy="-150.3"
       r="1.41732"
       id="circle12300" />
    <circle
       cx="371.25"
       cy="-78.300003"
       r="1.41732"
       id="circle12302" />
    <circle
       cx="371.25"
       cy="-99.900002"
       r="1.41732"
       id="circle12304" />
    <circle
       cx="328.04999"
       cy="-135.89999"
       r="1.41732"
       id="circle12306" />
  </g>
  <g
     fill="none"
     stroke="#7f7f7f"
     stroke-opacity="0.890196"
     stroke-width="0.283465"
     stroke-linecap="round"
     stroke-linejoin="round"
     transform="matrix(8.34089,0,0,8.34089,1.1822006,1954.8244)"
     font-family="'Sans Serif'"
     font-size="75px"
     font-weight="400"
     font-style="normal"
     id="g12312"
     style="fill-rule:evenodd">
    <path
       vector-effect="none"
       fill-rule="evenodd"
       d="M 1.35,0 H 105.3 c 0.746,0 1.35,-0.604416 1.35,-1.35 v -10.8 c 0,-0.7456 0.604,-1.35 1.35,-1.35 h 51.3 c 0.746,0 1.35,-0.6044 1.35,-1.35 v -4.05 c 0,-0.7456 0.604,-1.35 1.35,-1.35 h 51.3 c 0.746,0 1.35,0.6044 1.35,1.35 v 4.05 c 0,0.7456 0.604,1.35 1.35,1.35 h 51.3 c 0.746,0 1.35,0.6044 1.35,1.35 v 4.05 c 0,0.74558 0.604,1.35 1.35,1.35 h 51.3 c 0.746,0 1.35,0.60442 1.35,1.35 v 4.05 c 0,0.745584 0.604,1.35 1.35,1.35 h 56.25 c 0.746,0 1.35,-0.604416 1.35,-1.35 v -172.507 0 c 0,-0.001 0,-0.001 0,-0.001 0,-0.9 -0.511,-1.681 -1.258,-2.069 l -4.009,-2.072 v 0.001 c -0.803,-0.417 -1.429,-1.127 -1.738,-1.986 l -8.265,-22.982 v -0.002 c -0.303,-0.845 -0.964,-1.52 -1.8,-1.844 l -39.884,-15.403 0.002,-0.002 c -0.85,-0.328 -1.774,-0.508 -2.74,-0.508 0,0 0,0 0,0 h -51.84 v 0 c 0,0 0,0 0,0 -0.783,0 -1.418,-0.635 -1.418,-1.418 v -3.914 0 c 0,-0.001 0,-0.001 0,-0.001 0,-0.782 -0.634,-1.417 -1.417,-1.417 h -51.165 v 0 c 0,0 0,0 0,0 -0.783,0 -1.418,-0.634 -1.418,-1.417 v -3.915 0 c 0,0 0,0 0,-0.001 0,-0.782 -0.634,-1.417 -1.417,-1.417 h -51.165 v 0 c -0.783,0 -1.418,0.635 -1.418,1.418 0,0 0,0 0,0 v 3.915 0 c 0,0 0,0 0,0 0,0.783 -0.634,1.417 -1.417,1.417 h -51.165 v 0 c 0,0 0,0 0,0 -0.783,0 -1.418,0.635 -1.418,1.418 v 10.664 0 c 0,0 0,0 0,0 0,0.783 -0.634,1.418 -1.417,1.418 H 1.41732 v 0 c -1.7e-4,0 -3.5e-4,0 -5.3e-4,0 -0.782295,0 -1.416504805,0.634 -1.41679273657,1.416 L 0,-1.35 C 0,-0.604416 0.604416,0 1.35,0"
       id="path12310" />
  </g>
</svg>
