<?xml version="1.0" encoding="UTF-8" standalone="no"?>
<svg width="155.236mm" height="102.997mm"
 viewBox="0 0 3667 2433"
 xmlns="http://www.w3.org/2000/svg" xmlns:xlink="http://www.w3.org/1999/xlink"  version="1.2" baseProfile="tiny">
<title>kbdkid3</title>
<desc>Generated with Qt</desc>
<defs>
</defs>
<g fill="none" stroke="black" stroke-width="1" fill-rule="evenodd" stroke-linecap="square" stroke-linejoin="bevel" >

<g fill="none" stroke="#7f7f7f" stroke-opacity="0.890196" stroke-width="0.283465" stroke-linecap="square" stroke-linejoin="bevel" transform="matrix(8.34089,0,0,8.34089,244.561,2196.55)"
font-family="Sans Serif" font-size="75" font-weight="400" font-style="normal" 
>
<circle cx="173.477" cy="-143.72" r="4.25197"/>
<circle cx="187.65" cy="-137.484" r="4.25197"/>
<circle cx="203.241" cy="-154.35" r="2.69291"/>
<circle cx="172.059" cy="-154.35" r="2.69291"/>
<circle cx="187.65" cy="-154.35" r="4.8189"/>
<circle cx="202.447" cy="-166.256" r="1.70079"/>
<circle cx="93.8232" cy="-15.4701" r="4.25197"/>
<circle cx="79.65" cy="-9.23386" r="4.25197"/>
<circle cx="64.0594" cy="-26.1" r="2.69291"/>
<circle cx="95.2406" cy="-26.1" r="2.69291"/>
<circle cx="79.65" cy="-26.1" r="4.8189"/>
<circle cx="64.8531" cy="-38.0055" r="1.70079"/>
<circle cx="227.477" cy="-82.9701" r="4.25197"/>
<circle cx="241.65" cy="-76.7339" r="4.25197"/>
<circle cx="257.241" cy="-93.6" r="2.69291"/>
<circle cx="226.059" cy="-93.6" r="2.69291"/>
<circle cx="241.65" cy="-93.6" r="4.8189"/>
<circle cx="256.447" cy="-105.506" r="1.70079"/>
<circle cx="173.477" cy="-89.7201" r="4.25197"/>
<circle cx="187.65" cy="-83.4839" r="4.25197"/>
<circle cx="203.241" cy="-100.35" r="2.69291"/>
<circle cx="172.059" cy="-100.35" r="2.69291"/>
<circle cx="187.65" cy="-100.35" r="4.8189"/>
<circle cx="202.447" cy="-112.256" r="1.70079"/>
<circle cx="147.823" cy="-190.97" r="4.25197"/>
<circle cx="133.65" cy="-184.734" r="4.25197"/>
<circle cx="118.059" cy="-201.6" r="2.69291"/>
<circle cx="149.241" cy="-201.6" r="2.69291"/>
<circle cx="133.65" cy="-201.6" r="4.8189"/>
<circle cx="118.853" cy="-213.506" r="1.70079"/>
<circle cx="335.477" cy="-15.4701" r="4.25197"/>
<circle cx="349.65" cy="-9.23386" r="4.25197"/>
<circle cx="365.241" cy="-26.1" r="2.69291"/>
<circle cx="334.059" cy="-26.1" r="2.69291"/>
<circle cx="349.65" cy="-26.1" r="4.8189"/>
<circle cx="364.447" cy="-38.0055" r="1.70079"/>
<circle cx="363.823" cy="-15.4701" r="4.25197"/>
<circle cx="349.65" cy="-9.23386" r="4.25197"/>
<circle cx="334.059" cy="-26.1" r="2.69291"/>
<circle cx="365.241" cy="-26.1" r="2.69291"/>
<circle cx="349.65" cy="-26.1" r="4.8189"/>
<circle cx="334.853" cy="-38.0055" r="1.70079"/>
<circle cx="65.4768" cy="-177.47" r="4.25197"/>
<circle cx="79.65" cy="-171.234" r="4.25197"/>
<circle cx="95.2406" cy="-188.1" r="2.69291"/>
<circle cx="64.0594" cy="-188.1" r="2.69291"/>
<circle cx="79.65" cy="-188.1" r="4.8189"/>
<circle cx="94.4469" cy="-200.006" r="1.70079"/>
<circle cx="65.4768" cy="-69.4701" r="4.25197"/>
<circle cx="79.65" cy="-63.2339" r="4.25197"/>
<circle cx="95.2406" cy="-80.1" r="2.69291"/>
<circle cx="64.0594" cy="-80.1" r="2.69291"/>
<circle cx="79.65" cy="-80.1" r="4.8189"/>
<circle cx="94.4469" cy="-92.0055" r="1.70079"/>
<circle cx="65.4768" cy="-123.47" r="4.25197"/>
<circle cx="79.65" cy="-117.234" r="4.25197"/>
<circle cx="95.2406" cy="-134.1" r="2.69291"/>
<circle cx="64.0594" cy="-134.1" r="2.69291"/>
<circle cx="79.65" cy="-134.1" r="4.8189"/>
<circle cx="94.4469" cy="-146.006" r="1.70079"/>
<circle cx="119.477" cy="-82.9701" r="4.25197"/>
<circle cx="133.65" cy="-76.7339" r="4.25197"/>
<circle cx="149.241" cy="-93.6" r="2.69291"/>
<circle cx="118.059" cy="-93.6" r="2.69291"/>
<circle cx="133.65" cy="-93.6" r="4.8189"/>
<circle cx="148.447" cy="-105.506" r="1.70079"/>
<circle cx="11.4768" cy="-15.4701" r="4.25197"/>
<circle cx="25.65" cy="-9.23386" r="4.25197"/>
<circle cx="41.2406" cy="-26.1" r="2.69291"/>
<circle cx="10.0594" cy="-26.1" r="2.69291"/>
<circle cx="25.65" cy="-26.1" r="4.8189"/>
<circle cx="40.4469" cy="-38.0055" r="1.70079"/>
<circle cx="309.823" cy="-130.22" r="4.25197"/>
<circle cx="295.65" cy="-123.984" r="4.25197"/>
<circle cx="280.059" cy="-140.85" r="2.69291"/>
<circle cx="311.241" cy="-140.85" r="2.69291"/>
<circle cx="295.65" cy="-140.85" r="4.8189"/>
<circle cx="280.853" cy="-152.756" r="1.70079"/>
<circle cx="227.477" cy="-190.97" r="4.25197"/>
<circle cx="241.65" cy="-184.734" r="4.25197"/>
<circle cx="257.241" cy="-201.6" r="2.69291"/>
<circle cx="226.059" cy="-201.6" r="2.69291"/>
<circle cx="241.65" cy="-201.6" r="4.8189"/>
<circle cx="256.447" cy="-213.506" r="1.70079"/>
<circle cx="39.8232" cy="-15.4701" r="4.25197"/>
<circle cx="25.65" cy="-9.23386" r="4.25197"/>
<circle cx="10.0594" cy="-26.1" r="2.69291"/>
<circle cx="41.2406" cy="-26.1" r="2.69291"/>
<circle cx="25.65" cy="-26.1" r="4.8189"/>
<circle cx="10.8531" cy="-38.0055" r="1.70079"/>
<circle cx="147.823" cy="-136.97" r="4.25197"/>
<circle cx="133.65" cy="-130.734" r="4.25197"/>
<circle cx="118.059" cy="-147.6" r="2.69291"/>
<circle cx="149.241" cy="-147.6" r="2.69291"/>
<circle cx="133.65" cy="-147.6" r="4.8189"/>
<circle cx="118.853" cy="-159.506" r="1.70079"/>
<circle cx="39.8232" cy="-69.4701" r="4.25197"/>
<circle cx="25.65" cy="-63.2339" r="4.25197"/>
<circle cx="10.0594" cy="-80.1" r="2.69291"/>
<circle cx="41.2406" cy="-80.1" r="2.69291"/>
<circle cx="25.65" cy="-80.1" r="4.8189"/>
<circle cx="10.8531" cy="-92.0055" r="1.70079"/>
<circle cx="39.8232" cy="-123.47" r="4.25197"/>
<circle cx="25.65" cy="-117.234" r="4.25197"/>
<circle cx="10.0594" cy="-134.1" r="2.69291"/>
<circle cx="41.2406" cy="-134.1" r="2.69291"/>
<circle cx="25.65" cy="-134.1" r="4.8189"/>
<circle cx="10.8531" cy="-146.006" r="1.70079"/>
<circle cx="309.823" cy="-22.2201" r="4.25197"/>
<circle cx="295.65" cy="-15.9839" r="4.25197"/>
<circle cx="280.059" cy="-32.85" r="2.69291"/>
<circle cx="311.241" cy="-32.85" r="2.69291"/>
<circle cx="295.65" cy="-32.85" r="4.8189"/>
<circle cx="280.853" cy="-44.7555" r="1.70079"/>
<circle cx="255.823" cy="-190.97" r="4.25197"/>
<circle cx="241.65" cy="-184.734" r="4.25197"/>
<circle cx="226.059" cy="-201.6" r="2.69291"/>
<circle cx="257.241" cy="-201.6" r="2.69291"/>
<circle cx="241.65" cy="-201.6" r="4.8189"/>
<circle cx="226.853" cy="-213.506" r="1.70079"/>
<circle cx="255.823" cy="-136.97" r="4.25197"/>
<circle cx="241.65" cy="-130.734" r="4.25197"/>
<circle cx="226.059" cy="-147.6" r="2.69291"/>
<circle cx="257.241" cy="-147.6" r="2.69291"/>
<circle cx="241.65" cy="-147.6" r="4.8189"/>
<circle cx="226.853" cy="-159.506" r="1.70079"/>
<circle cx="281.477" cy="-76.2201" r="4.25197"/>
<circle cx="295.65" cy="-69.9839" r="4.25197"/>
<circle cx="311.241" cy="-86.85" r="2.69291"/>
<circle cx="280.059" cy="-86.85" r="2.69291"/>
<circle cx="295.65" cy="-86.85" r="4.8189"/>
<circle cx="310.447" cy="-98.7555" r="1.70079"/>
<circle cx="201.823" cy="-143.72" r="4.25197"/>
<circle cx="187.65" cy="-137.484" r="4.25197"/>
<circle cx="172.059" cy="-154.35" r="2.69291"/>
<circle cx="203.241" cy="-154.35" r="2.69291"/>
<circle cx="187.65" cy="-154.35" r="4.8189"/>
<circle cx="172.853" cy="-166.256" r="1.70079"/>
<circle cx="119.477" cy="-136.97" r="4.25197"/>
<circle cx="133.65" cy="-130.734" r="4.25197"/>
<circle cx="149.241" cy="-147.6" r="2.69291"/>
<circle cx="118.059" cy="-147.6" r="2.69291"/>
<circle cx="133.65" cy="-147.6" r="4.8189"/>
<circle cx="148.447" cy="-159.506" r="1.70079"/>
<circle cx="363.791" cy="-194.37" r="1.27559"/>
<circle cx="366.559" cy="-186.33" r="1.27559"/>
<circle cx="65.4768" cy="-15.4701" r="4.25197"/>
<circle cx="79.65" cy="-9.23386" r="4.25197"/>
<circle cx="95.2406" cy="-26.1" r="2.69291"/>
<circle cx="64.0594" cy="-26.1" r="2.69291"/>
<circle cx="79.65" cy="-26.1" r="4.8189"/>
<circle cx="94.4469" cy="-38.0055" r="1.70079"/>
<circle cx="366.559" cy="-186.33" r="1.27559"/>
<circle cx="363.791" cy="-194.37" r="1.27559"/>
<circle cx="147.823" cy="-82.9701" r="4.25197"/>
<circle cx="133.65" cy="-76.7339" r="4.25197"/>
<circle cx="118.059" cy="-93.6" r="2.69291"/>
<circle cx="149.241" cy="-93.6" r="2.69291"/>
<circle cx="133.65" cy="-93.6" r="4.8189"/>
<circle cx="118.853" cy="-105.506" r="1.70079"/>
<circle cx="173.477" cy="-197.72" r="4.25197"/>
<circle cx="187.65" cy="-191.484" r="4.25197"/>
<circle cx="203.241" cy="-208.35" r="2.69291"/>
<circle cx="172.059" cy="-208.35" r="2.69291"/>
<circle cx="187.65" cy="-208.35" r="4.8189"/>
<circle cx="202.447" cy="-220.256" r="1.70079"/>
<circle cx="281.477" cy="-184.22" r="4.25197"/>
<circle cx="295.65" cy="-177.984" r="4.25197"/>
<circle cx="311.241" cy="-194.85" r="2.69291"/>
<circle cx="280.059" cy="-194.85" r="2.69291"/>
<circle cx="295.65" cy="-194.85" r="4.8189"/>
<circle cx="310.447" cy="-206.756" r="1.70079"/>
<circle cx="11.4768" cy="-69.4701" r="4.25197"/>
<circle cx="25.65" cy="-63.2339" r="4.25197"/>
<circle cx="41.2406" cy="-80.1" r="2.69291"/>
<circle cx="10.0594" cy="-80.1" r="2.69291"/>
<circle cx="25.65" cy="-80.1" r="4.8189"/>
<circle cx="40.4469" cy="-92.0055" r="1.70079"/>
<circle cx="201.823" cy="-35.7201" r="4.25197"/>
<circle cx="187.65" cy="-29.4839" r="4.25197"/>
<circle cx="172.059" cy="-46.35" r="2.69291"/>
<circle cx="203.241" cy="-46.35" r="2.69291"/>
<circle cx="187.65" cy="-46.35" r="4.8189"/>
<circle cx="172.853" cy="-58.2555" r="1.70079"/>
<circle cx="11.4768" cy="-123.47" r="4.25197"/>
<circle cx="25.65" cy="-117.234" r="4.25197"/>
<circle cx="41.2406" cy="-134.1" r="2.69291"/>
<circle cx="10.0594" cy="-134.1" r="2.69291"/>
<circle cx="25.65" cy="-134.1" r="4.8189"/>
<circle cx="40.4469" cy="-146.006" r="1.70079"/>
<circle cx="173.477" cy="-35.7201" r="4.25197"/>
<circle cx="187.65" cy="-29.4839" r="4.25197"/>
<circle cx="203.241" cy="-46.35" r="2.69291"/>
<circle cx="172.059" cy="-46.35" r="2.69291"/>
<circle cx="187.65" cy="-46.35" r="4.8189"/>
<circle cx="202.447" cy="-58.2555" r="1.70079"/>
<circle cx="93.8232" cy="-123.47" r="4.25197"/>
<circle cx="79.65" cy="-117.234" r="4.25197"/>
<circle cx="64.0594" cy="-134.1" r="2.69291"/>
<circle cx="95.2406" cy="-134.1" r="2.69291"/>
<circle cx="79.65" cy="-134.1" r="4.8189"/>
<circle cx="64.8531" cy="-146.006" r="1.70079"/>
<circle cx="281.477" cy="-130.22" r="4.25197"/>
<circle cx="295.65" cy="-123.984" r="4.25197"/>
<circle cx="311.241" cy="-140.85" r="2.69291"/>
<circle cx="280.059" cy="-140.85" r="2.69291"/>
<circle cx="295.65" cy="-140.85" r="4.8189"/>
<circle cx="310.447" cy="-152.756" r="1.70079"/>
<circle cx="227.477" cy="-136.97" r="4.25197"/>
<circle cx="241.65" cy="-130.734" r="4.25197"/>
<circle cx="257.241" cy="-147.6" r="2.69291"/>
<circle cx="226.059" cy="-147.6" r="2.69291"/>
<circle cx="241.65" cy="-147.6" r="4.8189"/>
<circle cx="256.447" cy="-159.506" r="1.70079"/>
<circle cx="201.823" cy="-197.72" r="4.25197"/>
<circle cx="187.65" cy="-191.484" r="4.25197"/>
<circle cx="172.059" cy="-208.35" r="2.69291"/>
<circle cx="203.241" cy="-208.35" r="2.69291"/>
<circle cx="187.65" cy="-208.35" r="4.8189"/>
<circle cx="172.853" cy="-220.256" r="1.70079"/>
<circle cx="93.8232" cy="-177.47" r="4.25197"/>
<circle cx="79.65" cy="-171.234" r="4.25197"/>
<circle cx="64.0594" cy="-188.1" r="2.69291"/>
<circle cx="95.2406" cy="-188.1" r="2.69291"/>
<circle cx="79.65" cy="-188.1" r="4.8189"/>
<circle cx="64.8531" cy="-200.006" r="1.70079"/>
<circle cx="255.823" cy="-82.9701" r="4.25197"/>
<circle cx="241.65" cy="-76.7339" r="4.25197"/>
<circle cx="226.059" cy="-93.6" r="2.69291"/>
<circle cx="257.241" cy="-93.6" r="2.69291"/>
<circle cx="241.65" cy="-93.6" r="4.8189"/>
<circle cx="226.853" cy="-105.506" r="1.70079"/>
<circle cx="309.823" cy="-76.2201" r="4.25197"/>
<circle cx="295.65" cy="-69.9839" r="4.25197"/>
<circle cx="280.059" cy="-86.85" r="2.69291"/>
<circle cx="311.241" cy="-86.85" r="2.69291"/>
<circle cx="295.65" cy="-86.85" r="4.8189"/>
<circle cx="280.853" cy="-98.7555" r="1.70079"/>
<circle cx="93.8232" cy="-69.4701" r="4.25197"/>
<circle cx="79.65" cy="-63.2339" r="4.25197"/>
<circle cx="64.0594" cy="-80.1" r="2.69291"/>
<circle cx="95.2406" cy="-80.1" r="2.69291"/>
<circle cx="79.65" cy="-80.1" r="4.8189"/>
<circle cx="64.8531" cy="-92.0055" r="1.70079"/>
<circle cx="119.477" cy="-28.9701" r="4.25197"/>
<circle cx="133.65" cy="-22.7339" r="4.25197"/>
<circle cx="149.241" cy="-39.6" r="2.69291"/>
<circle cx="118.059" cy="-39.6" r="2.69291"/>
<circle cx="133.65" cy="-39.6" r="4.8189"/>
<circle cx="148.447" cy="-51.5055" r="1.70079"/>
<circle cx="227.477" cy="-28.9701" r="4.25197"/>
<circle cx="241.65" cy="-22.7339" r="4.25197"/>
<circle cx="257.241" cy="-39.6" r="2.69291"/>
<circle cx="226.059" cy="-39.6" r="2.69291"/>
<circle cx="241.65" cy="-39.6" r="4.8189"/>
<circle cx="256.447" cy="-51.5055" r="1.70079"/>
<circle cx="281.477" cy="-22.2201" r="4.25197"/>
<circle cx="295.65" cy="-15.9839" r="4.25197"/>
<circle cx="311.241" cy="-32.85" r="2.69291"/>
<circle cx="280.059" cy="-32.85" r="2.69291"/>
<circle cx="295.65" cy="-32.85" r="4.8189"/>
<circle cx="310.447" cy="-44.7555" r="1.70079"/>
<circle cx="201.823" cy="-89.7201" r="4.25197"/>
<circle cx="187.65" cy="-83.4839" r="4.25197"/>
<circle cx="172.059" cy="-100.35" r="2.69291"/>
<circle cx="203.241" cy="-100.35" r="2.69291"/>
<circle cx="187.65" cy="-100.35" r="4.8189"/>
<circle cx="172.853" cy="-112.256" r="1.70079"/>
<circle cx="255.823" cy="-28.9701" r="4.25197"/>
<circle cx="241.65" cy="-22.7339" r="4.25197"/>
<circle cx="226.059" cy="-39.6" r="2.69291"/>
<circle cx="257.241" cy="-39.6" r="2.69291"/>
<circle cx="241.65" cy="-39.6" r="4.8189"/>
<circle cx="226.853" cy="-51.5055" r="1.70079"/>
<circle cx="11.4768" cy="-177.47" r="4.25197"/>
<circle cx="25.65" cy="-171.234" r="4.25197"/>
<circle cx="41.2406" cy="-188.1" r="2.69291"/>
<circle cx="10.0594" cy="-188.1" r="2.69291"/>
<circle cx="25.65" cy="-188.1" r="4.8189"/>
<circle cx="40.4469" cy="-200.006" r="1.70079"/>
<circle cx="309.823" cy="-184.22" r="4.25197"/>
<circle cx="295.65" cy="-177.984" r="4.25197"/>
<circle cx="280.059" cy="-194.85" r="2.69291"/>
<circle cx="311.241" cy="-194.85" r="2.69291"/>
<circle cx="295.65" cy="-194.85" r="4.8189"/>
<circle cx="280.853" cy="-206.756" r="1.70079"/>
<circle cx="147.823" cy="-28.9701" r="4.25197"/>
<circle cx="133.65" cy="-22.7339" r="4.25197"/>
<circle cx="118.059" cy="-39.6" r="2.69291"/>
<circle cx="149.241" cy="-39.6" r="2.69291"/>
<circle cx="133.65" cy="-39.6" r="4.8189"/>
<circle cx="118.853" cy="-51.5055" r="1.70079"/>
<circle cx="39.8232" cy="-177.47" r="4.25197"/>
<circle cx="25.65" cy="-171.234" r="4.25197"/>
<circle cx="10.0594" cy="-188.1" r="2.69291"/>
<circle cx="41.2406" cy="-188.1" r="2.69291"/>
<circle cx="25.65" cy="-188.1" r="4.8189"/>
<circle cx="10.8531" cy="-200.006" r="1.70079"/>
<circle cx="119.477" cy="-190.97" r="4.25197"/>
<circle cx="133.65" cy="-184.734" r="4.25197"/>
<circle cx="149.241" cy="-201.6" r="2.69291"/>
<circle cx="118.059" cy="-201.6" r="2.69291"/>
<circle cx="133.65" cy="-201.6" r="4.8189"/>
<circle cx="148.447" cy="-213.506" r="1.70079"/>
<circle cx="339.66" cy="-181.38" r="1.13386"/>
<circle cx="333.99" cy="-181.38" r="1.13386"/>
<circle cx="333.99" cy="-181.38" r="1.13386"/>
<circle cx="339.66" cy="-181.38" r="1.13386"/>
<circle cx="349.65" cy="-63.9" r="1.41732"/>
<circle cx="342.45" cy="-63.9" r="1.41732"/>
<circle cx="335.25" cy="-63.9" r="1.41732"/>
<circle cx="356.85" cy="-63.9" r="1.41732"/>
<circle cx="364.05" cy="-63.9" r="1.41732"/>
<circle cx="328.05" cy="-128.7" r="1.41732"/>
<circle cx="328.05" cy="-107.1" r="1.41732"/>
<circle cx="371.25" cy="-121.5" r="1.41732"/>
<circle cx="371.25" cy="-99.9" r="1.41732"/>
<circle cx="371.25" cy="-85.5" r="1.41732"/>
<circle cx="328.05" cy="-157.5" r="1.41732"/>
<circle cx="328.05" cy="-92.7" r="1.41732"/>
<circle cx="371.25" cy="-157.5" r="1.41732"/>
<circle cx="371.25" cy="-150.3" r="1.41732"/>
<circle cx="328.05" cy="-143.1" r="1.41732"/>
<circle cx="371.25" cy="-114.3" r="1.41732"/>
<circle cx="371.25" cy="-92.7" r="1.41732"/>
<circle cx="328.05" cy="-85.5" r="1.41732"/>
<circle cx="371.25" cy="-143.1" r="1.41732"/>
<circle cx="371.25" cy="-107.1" r="1.41732"/>
<circle cx="371.25" cy="-128.7" r="1.41732"/>
<circle cx="328.05" cy="-121.5" r="1.41732"/>
<circle cx="328.05" cy="-114.3" r="1.41732"/>
<circle cx="371.25" cy="-78.3" r="1.41732"/>
<circle cx="328.05" cy="-135.9" r="1.41732"/>
<circle cx="328.05" cy="-150.3" r="1.41732"/>
<circle cx="328.05" cy="-78.3" r="1.41732"/>
<circle cx="328.05" cy="-99.9" r="1.41732"/>
<circle cx="371.25" cy="-135.9" r="1.41732"/>
<circle cx="349.65" cy="-63.9" r="1.41732"/>
<circle cx="356.85" cy="-63.9" r="1.41732"/>
<circle cx="364.05" cy="-63.9" r="1.41732"/>
<circle cx="342.45" cy="-63.9" r="1.41732"/>
<circle cx="335.25" cy="-63.9" r="1.41732"/>
<circle cx="371.25" cy="-128.7" r="1.41732"/>
<circle cx="371.25" cy="-107.1" r="1.41732"/>
<circle cx="328.05" cy="-121.5" r="1.41732"/>
<circle cx="328.05" cy="-99.9" r="1.41732"/>
<circle cx="328.05" cy="-85.5" r="1.41732"/>
<circle cx="371.25" cy="-157.5" r="1.41732"/>
<circle cx="371.25" cy="-92.7" r="1.41732"/>
<circle cx="328.05" cy="-157.5" r="1.41732"/>
<circle cx="328.05" cy="-150.3" r="1.41732"/>
<circle cx="371.25" cy="-143.1" r="1.41732"/>
<circle cx="328.05" cy="-114.3" r="1.41732"/>
<circle cx="328.05" cy="-92.7" r="1.41732"/>
<circle cx="371.25" cy="-85.5" r="1.41732"/>
<circle cx="328.05" cy="-143.1" r="1.41732"/>
<circle cx="328.05" cy="-107.1" r="1.41732"/>
<circle cx="328.05" cy="-128.7" r="1.41732"/>
<circle cx="371.25" cy="-121.5" r="1.41732"/>
<circle cx="371.25" cy="-114.3" r="1.41732"/>
<circle cx="328.05" cy="-78.3" r="1.41732"/>
<circle cx="371.25" cy="-135.9" r="1.41732"/>
<circle cx="371.25" cy="-150.3" r="1.41732"/>
<circle cx="371.25" cy="-78.3" r="1.41732"/>
<circle cx="371.25" cy="-99.9" r="1.41732"/>
<circle cx="328.05" cy="-135.9" r="1.41732"/>
</g>

<g fill="none" stroke="#7f7f7f" stroke-opacity="0.890196" stroke-width="0.283465" stroke-linecap="round" stroke-linejoin="round" transform="matrix(8.34089,0,0,8.34089,244.561,2196.55)"
font-family="Sans Serif" font-size="75" font-weight="400" font-style="normal" 
>
<path vector-effect="none" fill-rule="evenodd" d="M1.35,0 L105.3,0 C106.046,0 106.65,-0.604416 106.65,-1.35 L106.65,-12.15 C106.65,-12.8956 107.254,-13.5 108,-13.5 L159.3,-13.5 C160.046,-13.5 160.65,-14.1044 160.65,-14.85 L160.65,-18.9 C160.65,-19.6456 161.254,-20.25 162,-20.25 L213.3,-20.25 C214.046,-20.25 214.65,-19.6456 214.65,-18.9 L214.65,-14.85 C214.65,-14.1044 215.254,-13.5 216,-13.5 L267.3,-13.5 C268.046,-13.5 268.65,-12.8956 268.65,-12.15 L268.65,-8.1 C268.65,-7.35442 269.254,-6.75 270,-6.75 L321.3,-6.75 C322.046,-6.75 322.65,-6.14558 322.65,-5.4 L322.65,-1.35 C322.65,-0.604416 323.254,0 324,0 L380.25,0 C380.996,0 381.6,-0.604416 381.6,-1.35 L381.6,-173.857 L381.6,-173.857 C381.6,-173.858 381.6,-173.858 381.6,-173.858 C381.6,-174.758 381.089,-175.539 380.342,-175.927 L376.333,-177.999 L376.333,-177.998 C375.53,-178.415 374.904,-179.125 374.595,-179.984 L366.33,-202.966 L366.33,-202.968 C366.027,-203.813 365.366,-204.488 364.53,-204.812 L324.646,-220.215 L324.648,-220.217 C323.798,-220.545 322.874,-220.725 321.908,-220.725 C321.908,-220.725 321.908,-220.725 321.908,-220.725 L270.068,-220.725 L270.068,-220.725 C270.068,-220.725 270.068,-220.725 270.068,-220.725 C269.285,-220.725 268.65,-221.36 268.65,-222.143 L268.65,-226.057 L268.65,-226.057 C268.65,-226.058 268.65,-226.058 268.65,-226.058 C268.65,-226.84 268.016,-227.475 267.233,-227.475 L216.068,-227.475 L216.068,-227.475 C216.068,-227.475 216.068,-227.475 216.068,-227.475 C215.285,-227.475 214.65,-228.109 214.65,-228.892 L214.65,-232.807 L214.65,-232.807 C214.65,-232.807 214.65,-232.807 214.65,-232.808 C214.65,-233.59 214.016,-234.225 213.233,-234.225 L162.068,-234.225 L162.068,-234.225 C161.285,-234.225 160.65,-233.59 160.65,-232.807 C160.65,-232.807 160.65,-232.807 160.65,-232.807 L160.65,-228.892 L160.65,-228.892 C160.65,-228.892 160.65,-228.892 160.65,-228.892 C160.65,-228.109 160.016,-227.475 159.233,-227.475 L108.068,-227.475 L108.068,-227.475 C108.068,-227.475 108.068,-227.475 108.068,-227.475 C107.285,-227.475 106.65,-226.84 106.65,-226.057 L106.65,-215.393 L106.65,-215.393 C106.65,-215.393 106.65,-215.393 106.65,-215.393 C106.65,-214.61 106.016,-213.975 105.233,-213.975 L1.41732,-213.975 L1.41732,-213.975 C1.41715,-213.975 1.41697,-213.975 1.41679,-213.975 C0.634495,-213.975 0.000285195,-213.341 -2.73657e-06,-212.559 L0,-1.35 C0,-0.604416 0.604416,0 1.35,0 "/>
</g>

<g fill="none" stroke="#000000" stroke-opacity="1" stroke-width="1" stroke-linecap="square" stroke-linejoin="bevel" transform="matrix(1,0,0,1,0,0)"
font-family="Sans Serif" font-size="75" font-weight="400" font-style="normal" 
>
</g>
</g>
</svg>
