G04 --- HEADER BEGIN --- *
G04 #@! TF.GenerationSoftware,LibrePCB,LibrePCB,0.1.7*
G04 #@! TF.CreationDate,2023-07-24T22:05:17*
G04 #@! TF.ProjectId,kbdkid3,8968376b-f35a-430f-8fb1-af8ab2fa8879,v1*
G04 #@! TF.Part,Single*
G04 #@! TF.SameCoordinates*
G04 #@! TF.FileFunction,Soldermask,Bot*
G04 #@! TF.FilePolarity,Negative*
%FSLAX66Y66*%
%MOMM*%
G01*
G75*
G04 --- HEADER END --- *
G04 --- APERTURE LIST BEGIN --- *
%ADD10R,1.8X2.4*%
%ADD11R,0.6X1.45*%
%ADD12C,0.0*%
%ADD13C,0.01*%
%ADD14R,1.7X1.15*%
%ADD15O,1.4X1.5*%
%ADD16R,1.4X1.5*%
%ADD17O,1.787X2.39*%
%ADD18R,1.787X2.39*%
%ADD19R,1.45X0.6*%
%ADD20O,2.39X1.787*%
%AMROTATEDRECT21*20,1,0.9,-0.85,0.0,0.85,0.0,19.0*%
%ADD21ROTATEDRECT21*%
%AMROTATEDRECT22*20,1,1.0,-0.6,0.0,0.6,0.0,109.0*%
%ADD22ROTATEDRECT22*%
%ADD23R,1.9X1.0*%
G04 --- APERTURE LIST END --- *
G04 --- BOARD BEGIN --- *
D10*
G04 #@! TO.C,S131*
X58398750Y50751250D03*
X68998750Y48551250D03*
G04 #@! TO.C,S142*
X77448750Y29320000D03*
X88048750Y27120000D03*
D11*
G04 #@! TO.C,JP31*
X118968750Y27622500D03*
X120568750Y27622500D03*
D12*
X118668750Y26897500D02*
G02*
X118668750Y28347500I725000J725000D01*
G01*
X118768750Y28347500D01*
X118768750Y26897500D01*
X118668750Y26897500D01*
D13*
G36*
X118668750Y26897500D02*
G02*
X118668750Y28347500I725000J725000D01*
G01*
X118768750Y28347500D01*
X118768750Y26897500D01*
X118668750Y26897500D01*
G37*
D12*
X120868750Y26897500D02*
G03*
X120868750Y28347500I-725000J725000D01*
G01*
X120768750Y28347500D01*
X120768750Y26897500D01*
X120868750Y26897500D01*
D13*
G36*
X120868750Y26897500D02*
G03*
X120868750Y28347500I-725000J725000D01*
G01*
X120768750Y28347500D01*
X120768750Y26897500D01*
X120868750Y26897500D01*
G37*
D12*
X119718750Y27622500D02*
X120298750Y26897500D01*
X120298750Y26897500D01*
X120368750Y26897500D01*
X120368750Y28347500D01*
X120298750Y28347500D01*
X120298750Y28347500D01*
X119718750Y27622500D01*
D13*
G36*
X119718750Y27622500D02*
X120298750Y26897500D01*
X120298750Y26897500D01*
X120368750Y26897500D01*
X120368750Y28347500D01*
X120298750Y28347500D01*
X120298750Y28347500D01*
X119718750Y27622500D01*
G37*
D12*
X119168750Y26897500D02*
X119898750Y26897500D01*
X119318750Y27622500D01*
X119898750Y28347500D01*
X119168750Y28347500D01*
X119168750Y26897500D01*
D13*
G36*
X119168750Y26897500D02*
X119898750Y26897500D01*
X119318750Y27622500D01*
X119898750Y28347500D01*
X119168750Y28347500D01*
X119168750Y26897500D01*
G37*
D10*
G04 #@! TO.C,S132*
X58398750Y31701250D03*
X68998750Y29501250D03*
G04 #@! TO.C,S163*
X115548750Y5507500D03*
X126148750Y3307500D03*
D14*
G04 #@! TO.C,D240*
X49023750Y76200000D03*
X45273750Y76200000D03*
D15*
G04 #@! TO.C,J2*
X119824375Y63986875D03*
D16*
X117824375Y63986875D03*
D10*
G04 #@! TO.C,S110*
X20298750Y62657500D03*
X30898750Y60457500D03*
G04 #@! TO.C,S112*
X20298750Y24557500D03*
X30898750Y22357500D03*
D15*
G04 #@! TO.C,J1*
X117824375Y63986875D03*
D16*
X119824375Y63986875D03*
D10*
G04 #@! TO.C,S111*
X20298750Y43607500D03*
X30898750Y41407500D03*
G04 #@! TO.C,S122*
X39348750Y29320000D03*
X49948750Y27120000D03*
D11*
G04 #@! TO.C,JP32*
X130728750Y37782500D03*
X129128750Y37782500D03*
D12*
X131028750Y38507500D02*
G02*
X131028750Y37057500I-725000J-725000D01*
G01*
X130928750Y37057500D01*
X130928750Y38507500D01*
X131028750Y38507500D01*
D13*
G36*
X131028750Y38507500D02*
G02*
X131028750Y37057500I-725000J-725000D01*
G01*
X130928750Y37057500D01*
X130928750Y38507500D01*
X131028750Y38507500D01*
G37*
D12*
X128828750Y38507500D02*
G03*
X128828750Y37057500I725000J-725000D01*
G01*
X128928750Y37057500D01*
X128928750Y38507500D01*
X128828750Y38507500D01*
D13*
G36*
X128828750Y38507500D02*
G03*
X128828750Y37057500I725000J-725000D01*
G01*
X128928750Y37057500D01*
X128928750Y38507500D01*
X128828750Y38507500D01*
G37*
D12*
X129978750Y37782500D02*
X129398750Y38507500D01*
X129398750Y38507500D01*
X129328750Y38507500D01*
X129328750Y37057500D01*
X129398750Y37057500D01*
X129398750Y37057500D01*
X129978750Y37782500D01*
D13*
G36*
X129978750Y37782500D02*
X129398750Y38507500D01*
X129398750Y38507500D01*
X129328750Y38507500D01*
X129328750Y37057500D01*
X129398750Y37057500D01*
X129398750Y37057500D01*
X129978750Y37782500D01*
G37*
D12*
X130528750Y38507500D02*
X129798750Y38507500D01*
X130378750Y37782500D01*
X129798750Y37057500D01*
X130528750Y37057500D01*
X130528750Y38507500D01*
D13*
G36*
X130528750Y38507500D02*
X129798750Y38507500D01*
X130378750Y37782500D01*
X129798750Y37057500D01*
X130528750Y37057500D01*
X130528750Y38507500D01*
G37*
D11*
G04 #@! TO.C,JP24*
X130728750Y32702500D03*
X129128750Y32702500D03*
D12*
X131028750Y33427500D02*
G02*
X131028750Y31977500I-725000J-725000D01*
G01*
X130928750Y31977500D01*
X130928750Y33427500D01*
X131028750Y33427500D01*
D13*
G36*
X131028750Y33427500D02*
G02*
X131028750Y31977500I-725000J-725000D01*
G01*
X130928750Y31977500D01*
X130928750Y33427500D01*
X131028750Y33427500D01*
G37*
D12*
X128828750Y33427500D02*
G03*
X128828750Y31977500I725000J-725000D01*
G01*
X128928750Y31977500D01*
X128928750Y33427500D01*
X128828750Y33427500D01*
D13*
G36*
X128828750Y33427500D02*
G03*
X128828750Y31977500I725000J-725000D01*
G01*
X128928750Y31977500D01*
X128928750Y33427500D01*
X128828750Y33427500D01*
G37*
D12*
X129978750Y32702500D02*
X129398750Y33427500D01*
X129398750Y33427500D01*
X129328750Y33427500D01*
X129328750Y31977500D01*
X129398750Y31977500D01*
X129398750Y31977500D01*
X129978750Y32702500D01*
D13*
G36*
X129978750Y32702500D02*
X129398750Y33427500D01*
X129398750Y33427500D01*
X129328750Y33427500D01*
X129328750Y31977500D01*
X129398750Y31977500D01*
X129398750Y31977500D01*
X129978750Y32702500D01*
G37*
D12*
X130528750Y33427500D02*
X129798750Y33427500D01*
X130378750Y32702500D01*
X129798750Y31977500D01*
X130528750Y31977500D01*
X130528750Y33427500D01*
D13*
G36*
X130528750Y33427500D02*
X129798750Y33427500D01*
X130378750Y32702500D01*
X129798750Y31977500D01*
X130528750Y31977500D01*
X130528750Y33427500D01*
G37*
D10*
G04 #@! TO.C,S103*
X1248750Y5507500D03*
X11848750Y3307500D03*
D14*
G04 #@! TO.C,D260*
X10923750Y71437500D03*
X7173750Y71437500D03*
D17*
G04 #@! TO.C,DS2*
X124848750Y22542500D03*
X122308750Y22542500D03*
X119768750Y22542500D03*
X127388750Y22542500D03*
D18*
X129928750Y22542500D03*
D14*
G04 #@! TO.C,D251*
X29973750Y52387500D03*
X26223750Y52387500D03*
D11*
G04 #@! TO.C,JP53*
X130728750Y53022500D03*
X129128750Y53022500D03*
D12*
X131028750Y53747500D02*
G02*
X131028750Y52297500I-725000J-725000D01*
G01*
X130928750Y52297500D01*
X130928750Y53747500D01*
X131028750Y53747500D01*
D13*
G36*
X131028750Y53747500D02*
G02*
X131028750Y52297500I-725000J-725000D01*
G01*
X130928750Y52297500D01*
X130928750Y53747500D01*
X131028750Y53747500D01*
G37*
D12*
X128828750Y53747500D02*
G03*
X128828750Y52297500I725000J-725000D01*
G01*
X128928750Y52297500D01*
X128928750Y53747500D01*
X128828750Y53747500D01*
D13*
G36*
X128828750Y53747500D02*
G03*
X128828750Y52297500I725000J-725000D01*
G01*
X128928750Y52297500D01*
X128928750Y53747500D01*
X128828750Y53747500D01*
G37*
D12*
X129978750Y53022500D02*
X129398750Y53747500D01*
X129398750Y53747500D01*
X129328750Y53747500D01*
X129328750Y52297500D01*
X129398750Y52297500D01*
X129398750Y52297500D01*
X129978750Y53022500D01*
D13*
G36*
X129978750Y53022500D02*
X129398750Y53747500D01*
X129398750Y53747500D01*
X129328750Y53747500D01*
X129328750Y52297500D01*
X129398750Y52297500D01*
X129398750Y52297500D01*
X129978750Y53022500D01*
G37*
D12*
X130528750Y53747500D02*
X129798750Y53747500D01*
X130378750Y53022500D01*
X129798750Y52297500D01*
X130528750Y52297500D01*
X130528750Y53747500D01*
D13*
G36*
X130528750Y53747500D02*
X129798750Y53747500D01*
X130378750Y53022500D01*
X129798750Y52297500D01*
X130528750Y52297500D01*
X130528750Y53747500D01*
G37*
D10*
G04 #@! TO.C,S140*
X77448750Y67420000D03*
X88048750Y65220000D03*
D11*
G04 #@! TO.C,JP33*
X130728750Y30162500D03*
X129128750Y30162500D03*
D12*
X131028750Y30887500D02*
G02*
X131028750Y29437500I-725000J-725000D01*
G01*
X130928750Y29437500D01*
X130928750Y30887500D01*
X131028750Y30887500D01*
D13*
G36*
X131028750Y30887500D02*
G02*
X131028750Y29437500I-725000J-725000D01*
G01*
X130928750Y29437500D01*
X130928750Y30887500D01*
X131028750Y30887500D01*
G37*
D12*
X128828750Y30887500D02*
G03*
X128828750Y29437500I725000J-725000D01*
G01*
X128928750Y29437500D01*
X128928750Y30887500D01*
X128828750Y30887500D01*
D13*
G36*
X128828750Y30887500D02*
G03*
X128828750Y29437500I725000J-725000D01*
G01*
X128928750Y29437500D01*
X128928750Y30887500D01*
X128828750Y30887500D01*
G37*
D12*
X129978750Y30162500D02*
X129398750Y30887500D01*
X129398750Y30887500D01*
X129328750Y30887500D01*
X129328750Y29437500D01*
X129398750Y29437500D01*
X129398750Y29437500D01*
X129978750Y30162500D01*
D13*
G36*
X129978750Y30162500D02*
X129398750Y30887500D01*
X129398750Y30887500D01*
X129328750Y30887500D01*
X129328750Y29437500D01*
X129398750Y29437500D01*
X129398750Y29437500D01*
X129978750Y30162500D01*
G37*
D12*
X130528750Y30887500D02*
X129798750Y30887500D01*
X130378750Y30162500D01*
X129798750Y29437500D01*
X130528750Y29437500D01*
X130528750Y30887500D01*
D13*
G36*
X130528750Y30887500D02*
X129798750Y30887500D01*
X130378750Y30162500D01*
X129798750Y29437500D01*
X130528750Y29437500D01*
X130528750Y30887500D01*
G37*
D19*
G04 #@! TO.C,JP27*
X129928750Y24282500D03*
X129928750Y25882500D03*
D12*
X130653750Y23982500D02*
G02*
X129203750Y23982500I-725000J725000D01*
G01*
X129203750Y24082500D01*
X130653750Y24082500D01*
X130653750Y23982500D01*
D13*
G36*
X130653750Y23982500D02*
G02*
X129203750Y23982500I-725000J725000D01*
G01*
X129203750Y24082500D01*
X130653750Y24082500D01*
X130653750Y23982500D01*
G37*
D12*
X130653750Y26182500D02*
G03*
X129203750Y26182500I-725000J-725000D01*
G01*
X129203750Y26082500D01*
X130653750Y26082500D01*
X130653750Y26182500D01*
D13*
G36*
X130653750Y26182500D02*
G03*
X129203750Y26182500I-725000J-725000D01*
G01*
X129203750Y26082500D01*
X130653750Y26082500D01*
X130653750Y26182500D01*
G37*
D12*
X129928750Y25032500D02*
X130653750Y25612500D01*
X130653750Y25612500D01*
X130653750Y25682500D01*
X129203750Y25682500D01*
X129203750Y25612500D01*
X129203750Y25612500D01*
X129928750Y25032500D01*
D13*
G36*
X129928750Y25032500D02*
X130653750Y25612500D01*
X130653750Y25612500D01*
X130653750Y25682500D01*
X129203750Y25682500D01*
X129203750Y25612500D01*
X129203750Y25612500D01*
X129928750Y25032500D01*
G37*
D12*
X130653750Y24482500D02*
X130653750Y25212500D01*
X129928750Y24632500D01*
X129203750Y25212500D01*
X129203750Y24482500D01*
X130653750Y24482500D01*
D13*
G36*
X130653750Y24482500D02*
X130653750Y25212500D01*
X129928750Y24632500D01*
X129203750Y25212500D01*
X129203750Y24482500D01*
X130653750Y24482500D01*
G37*
D14*
G04 #@! TO.C,D211*
X106173750Y54768750D03*
X102423750Y54768750D03*
D20*
G04 #@! TO.C,U1*
X117228750Y45402500D03*
X117228750Y37782500D03*
X132468750Y42862500D03*
X132468750Y35242500D03*
X132468750Y30162500D03*
X117228750Y55562500D03*
X117228750Y32702500D03*
X132468750Y55562500D03*
X132468750Y53022500D03*
X117228750Y50482500D03*
X132468750Y40322500D03*
X132468750Y32702500D03*
X117228750Y30162500D03*
X132468750Y50482500D03*
X132468750Y37782500D03*
X132468750Y45402500D03*
X117228750Y42862500D03*
X117228750Y40322500D03*
X132468750Y27622500D03*
X117228750Y47942500D03*
X117228750Y53022500D03*
X117228750Y27622500D03*
X117228750Y35242500D03*
X132468750Y47942500D03*
D14*
G04 #@! TO.C,D261*
X10923750Y52387500D03*
X7173750Y52387500D03*
G04 #@! TO.C,D213*
X106173750Y16668750D03*
X102423750Y16668750D03*
D10*
G04 #@! TO.C,S152*
X96498750Y26938750D03*
X107098750Y24738750D03*
D11*
G04 #@! TO.C,JP37*
X130728750Y27622500D03*
X129128750Y27622500D03*
D12*
X131028750Y28347500D02*
G02*
X131028750Y26897500I-725000J-725000D01*
G01*
X130928750Y26897500D01*
X130928750Y28347500D01*
X131028750Y28347500D01*
D13*
G36*
X131028750Y28347500D02*
G02*
X131028750Y26897500I-725000J-725000D01*
G01*
X130928750Y26897500D01*
X130928750Y28347500D01*
X131028750Y28347500D01*
G37*
D12*
X128828750Y28347500D02*
G03*
X128828750Y26897500I725000J-725000D01*
G01*
X128928750Y26897500D01*
X128928750Y28347500D01*
X128828750Y28347500D01*
D13*
G36*
X128828750Y28347500D02*
G03*
X128828750Y26897500I725000J-725000D01*
G01*
X128928750Y26897500D01*
X128928750Y28347500D01*
X128828750Y28347500D01*
G37*
D12*
X129978750Y27622500D02*
X129398750Y28347500D01*
X129398750Y28347500D01*
X129328750Y28347500D01*
X129328750Y26897500D01*
X129398750Y26897500D01*
X129398750Y26897500D01*
X129978750Y27622500D01*
D13*
G36*
X129978750Y27622500D02*
X129398750Y28347500D01*
X129398750Y28347500D01*
X129328750Y28347500D01*
X129328750Y26897500D01*
X129398750Y26897500D01*
X129398750Y26897500D01*
X129978750Y27622500D01*
G37*
D12*
X130528750Y28347500D02*
X129798750Y28347500D01*
X130378750Y27622500D01*
X129798750Y26897500D01*
X130528750Y26897500D01*
X130528750Y28347500D01*
D13*
G36*
X130528750Y28347500D02*
X129798750Y28347500D01*
X130378750Y27622500D01*
X129798750Y26897500D01*
X130528750Y26897500D01*
X130528750Y28347500D01*
G37*
D11*
G04 #@! TO.C,JP44*
X130728750Y55562500D03*
X129128750Y55562500D03*
D12*
X131028750Y56287500D02*
G02*
X131028750Y54837500I-725000J-725000D01*
G01*
X130928750Y54837500D01*
X130928750Y56287500D01*
X131028750Y56287500D01*
D13*
G36*
X131028750Y56287500D02*
G02*
X131028750Y54837500I-725000J-725000D01*
G01*
X130928750Y54837500D01*
X130928750Y56287500D01*
X131028750Y56287500D01*
G37*
D12*
X128828750Y56287500D02*
G03*
X128828750Y54837500I725000J-725000D01*
G01*
X128928750Y54837500D01*
X128928750Y56287500D01*
X128828750Y56287500D01*
D13*
G36*
X128828750Y56287500D02*
G03*
X128828750Y54837500I725000J-725000D01*
G01*
X128928750Y54837500D01*
X128928750Y56287500D01*
X128828750Y56287500D01*
G37*
D12*
X129978750Y55562500D02*
X129398750Y56287500D01*
X129398750Y56287500D01*
X129328750Y56287500D01*
X129328750Y54837500D01*
X129398750Y54837500D01*
X129398750Y54837500D01*
X129978750Y55562500D01*
D13*
G36*
X129978750Y55562500D02*
X129398750Y56287500D01*
X129398750Y56287500D01*
X129328750Y56287500D01*
X129328750Y54837500D01*
X129398750Y54837500D01*
X129398750Y54837500D01*
X129978750Y55562500D01*
G37*
D12*
X130528750Y56287500D02*
X129798750Y56287500D01*
X130378750Y55562500D01*
X129798750Y54837500D01*
X130528750Y54837500D01*
X130528750Y56287500D01*
D13*
G36*
X130528750Y56287500D02*
X129798750Y56287500D01*
X130378750Y55562500D01*
X129798750Y54837500D01*
X130528750Y54837500D01*
X130528750Y56287500D01*
G37*
D14*
G04 #@! TO.C,D241*
X49023750Y57150000D03*
X45273750Y57150000D03*
D11*
G04 #@! TO.C,JP40*
X130728750Y50482500D03*
X129128750Y50482500D03*
D12*
X131028750Y51207500D02*
G02*
X131028750Y49757500I-725000J-725000D01*
G01*
X130928750Y49757500D01*
X130928750Y51207500D01*
X131028750Y51207500D01*
D13*
G36*
X131028750Y51207500D02*
G02*
X131028750Y49757500I-725000J-725000D01*
G01*
X130928750Y49757500D01*
X130928750Y51207500D01*
X131028750Y51207500D01*
G37*
D12*
X128828750Y51207500D02*
G03*
X128828750Y49757500I725000J-725000D01*
G01*
X128928750Y49757500D01*
X128928750Y51207500D01*
X128828750Y51207500D01*
D13*
G36*
X128828750Y51207500D02*
G03*
X128828750Y49757500I725000J-725000D01*
G01*
X128928750Y49757500D01*
X128928750Y51207500D01*
X128828750Y51207500D01*
G37*
D12*
X129978750Y50482500D02*
X129398750Y51207500D01*
X129398750Y51207500D01*
X129328750Y51207500D01*
X129328750Y49757500D01*
X129398750Y49757500D01*
X129398750Y49757500D01*
X129978750Y50482500D01*
D13*
G36*
X129978750Y50482500D02*
X129398750Y51207500D01*
X129398750Y51207500D01*
X129328750Y51207500D01*
X129328750Y49757500D01*
X129398750Y49757500D01*
X129398750Y49757500D01*
X129978750Y50482500D01*
G37*
D12*
X130528750Y51207500D02*
X129798750Y51207500D01*
X130378750Y50482500D01*
X129798750Y49757500D01*
X130528750Y49757500D01*
X130528750Y51207500D01*
D13*
G36*
X130528750Y51207500D02*
X129798750Y51207500D01*
X130378750Y50482500D01*
X129798750Y49757500D01*
X130528750Y49757500D01*
X130528750Y51207500D01*
G37*
D10*
G04 #@! TO.C,S121*
X39348750Y48370000D03*
X49948750Y46170000D03*
D11*
G04 #@! TO.C,JP46*
X118968750Y45402500D03*
X120568750Y45402500D03*
D12*
X118668750Y44677500D02*
G02*
X118668750Y46127500I725000J725000D01*
G01*
X118768750Y46127500D01*
X118768750Y44677500D01*
X118668750Y44677500D01*
D13*
G36*
X118668750Y44677500D02*
G02*
X118668750Y46127500I725000J725000D01*
G01*
X118768750Y46127500D01*
X118768750Y44677500D01*
X118668750Y44677500D01*
G37*
D12*
X120868750Y44677500D02*
G03*
X120868750Y46127500I-725000J725000D01*
G01*
X120768750Y46127500D01*
X120768750Y44677500D01*
X120868750Y44677500D01*
D13*
G36*
X120868750Y44677500D02*
G03*
X120868750Y46127500I-725000J725000D01*
G01*
X120768750Y46127500D01*
X120768750Y44677500D01*
X120868750Y44677500D01*
G37*
D12*
X119718750Y45402500D02*
X120298750Y44677500D01*
X120298750Y44677500D01*
X120368750Y44677500D01*
X120368750Y46127500D01*
X120298750Y46127500D01*
X120298750Y46127500D01*
X119718750Y45402500D01*
D13*
G36*
X119718750Y45402500D02*
X120298750Y44677500D01*
X120298750Y44677500D01*
X120368750Y44677500D01*
X120368750Y46127500D01*
X120298750Y46127500D01*
X120298750Y46127500D01*
X119718750Y45402500D01*
G37*
D12*
X119168750Y44677500D02*
X119898750Y44677500D01*
X119318750Y45402500D01*
X119898750Y46127500D01*
X119168750Y46127500D01*
X119168750Y44677500D01*
D13*
G36*
X119168750Y44677500D02*
X119898750Y44677500D01*
X119318750Y45402500D01*
X119898750Y46127500D01*
X119168750Y46127500D01*
X119168750Y44677500D01*
G37*
D21*
G04 #@! TO.C,S2*
X126438439Y68708923D03*
X127415144Y65872367D03*
D22*
X131054019Y64058232D03*
X128677372Y70960518D03*
X126597231Y70244268D03*
D21*
X127903496Y64454089D03*
D22*
X128973878Y63341982D03*
D10*
G04 #@! TO.C,S113*
X20298750Y5507500D03*
X30898750Y3307500D03*
D19*
G04 #@! TO.C,JP50*
X120094375Y62156875D03*
X120094375Y60556875D03*
D12*
X119369375Y62456875D02*
G02*
X120819375Y62456875I725000J-725000D01*
G01*
X120819375Y62356875D01*
X119369375Y62356875D01*
X119369375Y62456875D01*
D13*
G36*
X119369375Y62456875D02*
G02*
X120819375Y62456875I725000J-725000D01*
G01*
X120819375Y62356875D01*
X119369375Y62356875D01*
X119369375Y62456875D01*
G37*
D12*
X119369375Y60256875D02*
G03*
X120819375Y60256875I725000J725000D01*
G01*
X120819375Y60356875D01*
X119369375Y60356875D01*
X119369375Y60256875D01*
D13*
G36*
X119369375Y60256875D02*
G03*
X120819375Y60256875I725000J725000D01*
G01*
X120819375Y60356875D01*
X119369375Y60356875D01*
X119369375Y60256875D01*
G37*
D12*
X120094375Y61406875D02*
X119369375Y60826875D01*
X119369375Y60826875D01*
X119369375Y60756875D01*
X120819375Y60756875D01*
X120819375Y60826875D01*
X120819375Y60826875D01*
X120094375Y61406875D01*
D13*
G36*
X120094375Y61406875D02*
X119369375Y60826875D01*
X119369375Y60826875D01*
X119369375Y60756875D01*
X120819375Y60756875D01*
X120819375Y60826875D01*
X120819375Y60826875D01*
X120094375Y61406875D01*
G37*
D12*
X119369375Y61956875D02*
X119369375Y61226875D01*
X120094375Y61806875D01*
X120819375Y61226875D01*
X120819375Y61956875D01*
X119369375Y61956875D01*
D13*
G36*
X119369375Y61956875D02*
X119369375Y61226875D01*
X120094375Y61806875D01*
X120819375Y61226875D01*
X120819375Y61956875D01*
X119369375Y61956875D01*
G37*
D14*
G04 #@! TO.C,D250*
X29973750Y71437500D03*
X26223750Y71437500D03*
D11*
G04 #@! TO.C,JP54*
X118968750Y50482500D03*
X120568750Y50482500D03*
D12*
X118668750Y49757500D02*
G02*
X118668750Y51207500I725000J725000D01*
G01*
X118768750Y51207500D01*
X118768750Y49757500D01*
X118668750Y49757500D01*
D13*
G36*
X118668750Y49757500D02*
G02*
X118668750Y51207500I725000J725000D01*
G01*
X118768750Y51207500D01*
X118768750Y49757500D01*
X118668750Y49757500D01*
G37*
D12*
X120868750Y49757500D02*
G03*
X120868750Y51207500I-725000J725000D01*
G01*
X120768750Y51207500D01*
X120768750Y49757500D01*
X120868750Y49757500D01*
D13*
G36*
X120868750Y49757500D02*
G03*
X120868750Y51207500I-725000J725000D01*
G01*
X120768750Y51207500D01*
X120768750Y49757500D01*
X120868750Y49757500D01*
G37*
D12*
X119718750Y50482500D02*
X120298750Y49757500D01*
X120298750Y49757500D01*
X120368750Y49757500D01*
X120368750Y51207500D01*
X120298750Y51207500D01*
X120298750Y51207500D01*
X119718750Y50482500D01*
D13*
G36*
X119718750Y50482500D02*
X120298750Y49757500D01*
X120298750Y49757500D01*
X120368750Y49757500D01*
X120368750Y51207500D01*
X120298750Y51207500D01*
X120298750Y51207500D01*
X119718750Y50482500D01*
G37*
D12*
X119168750Y49757500D02*
X119898750Y49757500D01*
X119318750Y50482500D01*
X119898750Y51207500D01*
X119168750Y51207500D01*
X119168750Y49757500D01*
D13*
G36*
X119168750Y49757500D02*
X119898750Y49757500D01*
X119318750Y50482500D01*
X119898750Y51207500D01*
X119168750Y51207500D01*
X119168750Y49757500D01*
G37*
D19*
G04 #@! TO.C,JP45*
X122308750Y24282500D03*
X122308750Y25882500D03*
D12*
X123033750Y23982500D02*
G02*
X121583750Y23982500I-725000J725000D01*
G01*
X121583750Y24082500D01*
X123033750Y24082500D01*
X123033750Y23982500D01*
D13*
G36*
X123033750Y23982500D02*
G02*
X121583750Y23982500I-725000J725000D01*
G01*
X121583750Y24082500D01*
X123033750Y24082500D01*
X123033750Y23982500D01*
G37*
D12*
X123033750Y26182500D02*
G03*
X121583750Y26182500I-725000J-725000D01*
G01*
X121583750Y26082500D01*
X123033750Y26082500D01*
X123033750Y26182500D01*
D13*
G36*
X123033750Y26182500D02*
G03*
X121583750Y26182500I-725000J-725000D01*
G01*
X121583750Y26082500D01*
X123033750Y26082500D01*
X123033750Y26182500D01*
G37*
D12*
X122308750Y25032500D02*
X123033750Y25612500D01*
X123033750Y25612500D01*
X123033750Y25682500D01*
X121583750Y25682500D01*
X121583750Y25612500D01*
X121583750Y25612500D01*
X122308750Y25032500D01*
D13*
G36*
X122308750Y25032500D02*
X123033750Y25612500D01*
X123033750Y25612500D01*
X123033750Y25682500D01*
X121583750Y25682500D01*
X121583750Y25612500D01*
X121583750Y25612500D01*
X122308750Y25032500D01*
G37*
D12*
X123033750Y24482500D02*
X123033750Y25212500D01*
X122308750Y24632500D01*
X121583750Y25212500D01*
X121583750Y24482500D01*
X123033750Y24482500D01*
D13*
G36*
X123033750Y24482500D02*
X123033750Y25212500D01*
X122308750Y24632500D01*
X121583750Y25212500D01*
X121583750Y24482500D01*
X123033750Y24482500D01*
G37*
D10*
G04 #@! TO.C,S130*
X58398750Y69801250D03*
X68998750Y67601250D03*
G04 #@! TO.C,S150*
X96498750Y65038750D03*
X107098750Y62838750D03*
D11*
G04 #@! TO.C,JP39*
X118968750Y32702500D03*
X120568750Y32702500D03*
D12*
X118668750Y31977500D02*
G02*
X118668750Y33427500I725000J725000D01*
G01*
X118768750Y33427500D01*
X118768750Y31977500D01*
X118668750Y31977500D01*
D13*
G36*
X118668750Y31977500D02*
G02*
X118668750Y33427500I725000J725000D01*
G01*
X118768750Y33427500D01*
X118768750Y31977500D01*
X118668750Y31977500D01*
G37*
D12*
X120868750Y31977500D02*
G03*
X120868750Y33427500I-725000J725000D01*
G01*
X120768750Y33427500D01*
X120768750Y31977500D01*
X120868750Y31977500D01*
D13*
G36*
X120868750Y31977500D02*
G03*
X120868750Y33427500I-725000J725000D01*
G01*
X120768750Y33427500D01*
X120768750Y31977500D01*
X120868750Y31977500D01*
G37*
D12*
X119718750Y32702500D02*
X120298750Y31977500D01*
X120298750Y31977500D01*
X120368750Y31977500D01*
X120368750Y33427500D01*
X120298750Y33427500D01*
X120298750Y33427500D01*
X119718750Y32702500D01*
D13*
G36*
X119718750Y32702500D02*
X120298750Y31977500D01*
X120298750Y31977500D01*
X120368750Y31977500D01*
X120368750Y33427500D01*
X120298750Y33427500D01*
X120298750Y33427500D01*
X119718750Y32702500D01*
G37*
D12*
X119168750Y31977500D02*
X119898750Y31977500D01*
X119318750Y32702500D01*
X119898750Y33427500D01*
X119168750Y33427500D01*
X119168750Y31977500D01*
D13*
G36*
X119168750Y31977500D02*
X119898750Y31977500D01*
X119318750Y32702500D01*
X119898750Y33427500D01*
X119168750Y33427500D01*
X119168750Y31977500D01*
G37*
D10*
G04 #@! TO.C,S102*
X1248750Y24557500D03*
X11848750Y22357500D03*
D14*
G04 #@! TO.C,D262*
X10923750Y33337500D03*
X7173750Y33337500D03*
D19*
G04 #@! TO.C,JP49*
X117554375Y62156875D03*
X117554375Y60556875D03*
D12*
X116829375Y62456875D02*
G02*
X118279375Y62456875I725000J-725000D01*
G01*
X118279375Y62356875D01*
X116829375Y62356875D01*
X116829375Y62456875D01*
D13*
G36*
X116829375Y62456875D02*
G02*
X118279375Y62456875I725000J-725000D01*
G01*
X118279375Y62356875D01*
X116829375Y62356875D01*
X116829375Y62456875D01*
G37*
D12*
X116829375Y60256875D02*
G03*
X118279375Y60256875I725000J725000D01*
G01*
X118279375Y60356875D01*
X116829375Y60356875D01*
X116829375Y60256875D01*
D13*
G36*
X116829375Y60256875D02*
G03*
X118279375Y60256875I725000J725000D01*
G01*
X118279375Y60356875D01*
X116829375Y60356875D01*
X116829375Y60256875D01*
G37*
D12*
X117554375Y61406875D02*
X116829375Y60826875D01*
X116829375Y60826875D01*
X116829375Y60756875D01*
X118279375Y60756875D01*
X118279375Y60826875D01*
X118279375Y60826875D01*
X117554375Y61406875D01*
D13*
G36*
X117554375Y61406875D02*
X116829375Y60826875D01*
X116829375Y60826875D01*
X116829375Y60756875D01*
X118279375Y60756875D01*
X118279375Y60826875D01*
X118279375Y60826875D01*
X117554375Y61406875D01*
G37*
D12*
X116829375Y61956875D02*
X116829375Y61226875D01*
X117554375Y61806875D01*
X118279375Y61226875D01*
X118279375Y61956875D01*
X116829375Y61956875D01*
D13*
G36*
X116829375Y61956875D02*
X116829375Y61226875D01*
X117554375Y61806875D01*
X118279375Y61226875D01*
X118279375Y61956875D01*
X116829375Y61956875D01*
G37*
D11*
G04 #@! TO.C,JP38*
X118968750Y47942500D03*
X120568750Y47942500D03*
D12*
X118668750Y47217500D02*
G02*
X118668750Y48667500I725000J725000D01*
G01*
X118768750Y48667500D01*
X118768750Y47217500D01*
X118668750Y47217500D01*
D13*
G36*
X118668750Y47217500D02*
G02*
X118668750Y48667500I725000J725000D01*
G01*
X118768750Y48667500D01*
X118768750Y47217500D01*
X118668750Y47217500D01*
G37*
D12*
X120868750Y47217500D02*
G03*
X120868750Y48667500I-725000J725000D01*
G01*
X120768750Y48667500D01*
X120768750Y47217500D01*
X120868750Y47217500D01*
D13*
G36*
X120868750Y47217500D02*
G03*
X120868750Y48667500I-725000J725000D01*
G01*
X120768750Y48667500D01*
X120768750Y47217500D01*
X120868750Y47217500D01*
G37*
D12*
X119718750Y47942500D02*
X120298750Y47217500D01*
X120298750Y47217500D01*
X120368750Y47217500D01*
X120368750Y48667500D01*
X120298750Y48667500D01*
X120298750Y48667500D01*
X119718750Y47942500D01*
D13*
G36*
X119718750Y47942500D02*
X120298750Y47217500D01*
X120298750Y47217500D01*
X120368750Y47217500D01*
X120368750Y48667500D01*
X120298750Y48667500D01*
X120298750Y48667500D01*
X119718750Y47942500D01*
G37*
D12*
X119168750Y47217500D02*
X119898750Y47217500D01*
X119318750Y47942500D01*
X119898750Y48667500D01*
X119168750Y48667500D01*
X119168750Y47217500D01*
D13*
G36*
X119168750Y47217500D02*
X119898750Y47217500D01*
X119318750Y47942500D01*
X119898750Y48667500D01*
X119168750Y48667500D01*
X119168750Y47217500D01*
G37*
D14*
G04 #@! TO.C,D203*
X125223750Y14287500D03*
X121473750Y14287500D03*
G04 #@! TO.C,D231*
X68073750Y59531250D03*
X64323750Y59531250D03*
G04 #@! TO.C,D252*
X29973750Y33337500D03*
X26223750Y33337500D03*
D10*
G04 #@! TO.C,S101*
X1248750Y43607500D03*
X11848750Y41407500D03*
D11*
G04 #@! TO.C,JP30*
X118968750Y55562500D03*
X120568750Y55562500D03*
D12*
X118668750Y54837500D02*
G02*
X118668750Y56287500I725000J725000D01*
G01*
X118768750Y56287500D01*
X118768750Y54837500D01*
X118668750Y54837500D01*
D13*
G36*
X118668750Y54837500D02*
G02*
X118668750Y56287500I725000J725000D01*
G01*
X118768750Y56287500D01*
X118768750Y54837500D01*
X118668750Y54837500D01*
G37*
D12*
X120868750Y54837500D02*
G03*
X120868750Y56287500I-725000J725000D01*
G01*
X120768750Y56287500D01*
X120768750Y54837500D01*
X120868750Y54837500D01*
D13*
G36*
X120868750Y54837500D02*
G03*
X120868750Y56287500I-725000J725000D01*
G01*
X120768750Y56287500D01*
X120768750Y54837500D01*
X120868750Y54837500D01*
G37*
D12*
X119718750Y55562500D02*
X120298750Y54837500D01*
X120298750Y54837500D01*
X120368750Y54837500D01*
X120368750Y56287500D01*
X120298750Y56287500D01*
X120298750Y56287500D01*
X119718750Y55562500D01*
D13*
G36*
X119718750Y55562500D02*
X120298750Y54837500D01*
X120298750Y54837500D01*
X120368750Y54837500D01*
X120368750Y56287500D01*
X120298750Y56287500D01*
X120298750Y56287500D01*
X119718750Y55562500D01*
G37*
D12*
X119168750Y54837500D02*
X119898750Y54837500D01*
X119318750Y55562500D01*
X119898750Y56287500D01*
X119168750Y56287500D01*
X119168750Y54837500D01*
D13*
G36*
X119168750Y54837500D02*
X119898750Y54837500D01*
X119318750Y55562500D01*
X119898750Y56287500D01*
X119168750Y56287500D01*
X119168750Y54837500D01*
G37*
D14*
G04 #@! TO.C,D242*
X49023750Y38100000D03*
X45273750Y38100000D03*
D23*
G04 #@! TO.C,S4*
X124221875Y64009375D03*
X124221875Y60609375D03*
D10*
G04 #@! TO.C,S133*
X58398750Y12651250D03*
X68998750Y10451250D03*
D14*
G04 #@! TO.C,D233*
X68073750Y21431250D03*
X64323750Y21431250D03*
G04 #@! TO.C,D263*
X10923750Y14287500D03*
X7173750Y14287500D03*
D11*
G04 #@! TO.C,JP29*
X130728750Y40322500D03*
X129128750Y40322500D03*
D12*
X131028750Y41047500D02*
G02*
X131028750Y39597500I-725000J-725000D01*
G01*
X130928750Y39597500D01*
X130928750Y41047500D01*
X131028750Y41047500D01*
D13*
G36*
X131028750Y41047500D02*
G02*
X131028750Y39597500I-725000J-725000D01*
G01*
X130928750Y39597500D01*
X130928750Y41047500D01*
X131028750Y41047500D01*
G37*
D12*
X128828750Y41047500D02*
G03*
X128828750Y39597500I725000J-725000D01*
G01*
X128928750Y39597500D01*
X128928750Y41047500D01*
X128828750Y41047500D01*
D13*
G36*
X128828750Y41047500D02*
G03*
X128828750Y39597500I725000J-725000D01*
G01*
X128928750Y39597500D01*
X128928750Y41047500D01*
X128828750Y41047500D01*
G37*
D12*
X129978750Y40322500D02*
X129398750Y41047500D01*
X129398750Y41047500D01*
X129328750Y41047500D01*
X129328750Y39597500D01*
X129398750Y39597500D01*
X129398750Y39597500D01*
X129978750Y40322500D01*
D13*
G36*
X129978750Y40322500D02*
X129398750Y41047500D01*
X129398750Y41047500D01*
X129328750Y41047500D01*
X129328750Y39597500D01*
X129398750Y39597500D01*
X129398750Y39597500D01*
X129978750Y40322500D01*
G37*
D12*
X130528750Y41047500D02*
X129798750Y41047500D01*
X130378750Y40322500D01*
X129798750Y39597500D01*
X130528750Y39597500D01*
X130528750Y41047500D01*
D13*
G36*
X130528750Y41047500D02*
X129798750Y41047500D01*
X130378750Y40322500D01*
X129798750Y39597500D01*
X130528750Y39597500D01*
X130528750Y41047500D01*
G37*
D14*
G04 #@! TO.C,D210*
X106173750Y73818750D03*
X102423750Y73818750D03*
G04 #@! TO.C,D221*
X87123750Y57150000D03*
X83373750Y57150000D03*
D10*
G04 #@! TO.C,S151*
X96498750Y45988750D03*
X107098750Y43788750D03*
G04 #@! TO.C,S141*
X77448750Y48370000D03*
X88048750Y46170000D03*
D14*
G04 #@! TO.C,D230*
X68073750Y78581250D03*
X64323750Y78581250D03*
D11*
G04 #@! TO.C,JP25*
X118968750Y30162500D03*
X120568750Y30162500D03*
D12*
X118668750Y29437500D02*
G02*
X118668750Y30887500I725000J725000D01*
G01*
X118768750Y30887500D01*
X118768750Y29437500D01*
X118668750Y29437500D01*
D13*
G36*
X118668750Y29437500D02*
G02*
X118668750Y30887500I725000J725000D01*
G01*
X118768750Y30887500D01*
X118768750Y29437500D01*
X118668750Y29437500D01*
G37*
D12*
X120868750Y29437500D02*
G03*
X120868750Y30887500I-725000J725000D01*
G01*
X120768750Y30887500D01*
X120768750Y29437500D01*
X120868750Y29437500D01*
D13*
G36*
X120868750Y29437500D02*
G03*
X120868750Y30887500I-725000J725000D01*
G01*
X120768750Y30887500D01*
X120768750Y29437500D01*
X120868750Y29437500D01*
G37*
D12*
X119718750Y30162500D02*
X120298750Y29437500D01*
X120298750Y29437500D01*
X120368750Y29437500D01*
X120368750Y30887500D01*
X120298750Y30887500D01*
X120298750Y30887500D01*
X119718750Y30162500D01*
D13*
G36*
X119718750Y30162500D02*
X120298750Y29437500D01*
X120298750Y29437500D01*
X120368750Y29437500D01*
X120368750Y30887500D01*
X120298750Y30887500D01*
X120298750Y30887500D01*
X119718750Y30162500D01*
G37*
D12*
X119168750Y29437500D02*
X119898750Y29437500D01*
X119318750Y30162500D01*
X119898750Y30887500D01*
X119168750Y30887500D01*
X119168750Y29437500D01*
D13*
G36*
X119168750Y29437500D02*
X119898750Y29437500D01*
X119318750Y30162500D01*
X119898750Y30887500D01*
X119168750Y30887500D01*
X119168750Y29437500D01*
G37*
D10*
G04 #@! TO.C,S123*
X39348750Y10270000D03*
X49948750Y8070000D03*
D17*
G04 #@! TO.C,DS1*
X124848750Y22542500D03*
X127388750Y22542500D03*
X129928750Y22542500D03*
X122308750Y22542500D03*
D18*
X119768750Y22542500D03*
D14*
G04 #@! TO.C,D212*
X106173750Y35718750D03*
X102423750Y35718750D03*
D10*
G04 #@! TO.C,S143*
X77448750Y10270000D03*
X88048750Y8070000D03*
G04 #@! TO.C,S153*
X96498750Y7888750D03*
X107098750Y5688750D03*
D14*
G04 #@! TO.C,D223*
X87123750Y19050000D03*
X83373750Y19050000D03*
D19*
G04 #@! TO.C,JP35*
X124848750Y24282500D03*
X124848750Y25882500D03*
D12*
X125573750Y23982500D02*
G02*
X124123750Y23982500I-725000J725000D01*
G01*
X124123750Y24082500D01*
X125573750Y24082500D01*
X125573750Y23982500D01*
D13*
G36*
X125573750Y23982500D02*
G02*
X124123750Y23982500I-725000J725000D01*
G01*
X124123750Y24082500D01*
X125573750Y24082500D01*
X125573750Y23982500D01*
G37*
D12*
X125573750Y26182500D02*
G03*
X124123750Y26182500I-725000J-725000D01*
G01*
X124123750Y26082500D01*
X125573750Y26082500D01*
X125573750Y26182500D01*
D13*
G36*
X125573750Y26182500D02*
G03*
X124123750Y26182500I-725000J-725000D01*
G01*
X124123750Y26082500D01*
X125573750Y26082500D01*
X125573750Y26182500D01*
G37*
D12*
X124848750Y25032500D02*
X125573750Y25612500D01*
X125573750Y25612500D01*
X125573750Y25682500D01*
X124123750Y25682500D01*
X124123750Y25612500D01*
X124123750Y25612500D01*
X124848750Y25032500D01*
D13*
G36*
X124848750Y25032500D02*
X125573750Y25612500D01*
X125573750Y25612500D01*
X125573750Y25682500D01*
X124123750Y25682500D01*
X124123750Y25612500D01*
X124123750Y25612500D01*
X124848750Y25032500D01*
G37*
D12*
X125573750Y24482500D02*
X125573750Y25212500D01*
X124848750Y24632500D01*
X124123750Y25212500D01*
X124123750Y24482500D01*
X125573750Y24482500D01*
D13*
G36*
X125573750Y24482500D02*
X125573750Y25212500D01*
X124848750Y24632500D01*
X124123750Y25212500D01*
X124123750Y24482500D01*
X125573750Y24482500D01*
G37*
D14*
G04 #@! TO.C,D232*
X68073750Y40481250D03*
X64323750Y40481250D03*
D20*
G04 #@! TO.C,U2*
X132468750Y45402500D03*
X132468750Y37782500D03*
X117228750Y42862500D03*
X117228750Y35242500D03*
X117228750Y30162500D03*
X132468750Y55562500D03*
X132468750Y32702500D03*
X117228750Y55562500D03*
X117228750Y53022500D03*
X132468750Y50482500D03*
X117228750Y40322500D03*
X117228750Y32702500D03*
X132468750Y30162500D03*
X117228750Y50482500D03*
X117228750Y37782500D03*
X117228750Y45402500D03*
X132468750Y42862500D03*
X132468750Y40322500D03*
X117228750Y27622500D03*
X132468750Y47942500D03*
X132468750Y53022500D03*
X132468750Y27622500D03*
X132468750Y35242500D03*
X117228750Y47942500D03*
D10*
G04 #@! TO.C,S100*
X1248750Y62657500D03*
X11848750Y60457500D03*
D14*
G04 #@! TO.C,D243*
X49023750Y19050000D03*
X45273750Y19050000D03*
D19*
G04 #@! TO.C,JP41*
X119768750Y24282500D03*
X119768750Y25882500D03*
D12*
X120493750Y23982500D02*
G02*
X119043750Y23982500I-725000J725000D01*
G01*
X119043750Y24082500D01*
X120493750Y24082500D01*
X120493750Y23982500D01*
D13*
G36*
X120493750Y23982500D02*
G02*
X119043750Y23982500I-725000J725000D01*
G01*
X119043750Y24082500D01*
X120493750Y24082500D01*
X120493750Y23982500D01*
G37*
D12*
X120493750Y26182500D02*
G03*
X119043750Y26182500I-725000J-725000D01*
G01*
X119043750Y26082500D01*
X120493750Y26082500D01*
X120493750Y26182500D01*
D13*
G36*
X120493750Y26182500D02*
G03*
X119043750Y26182500I-725000J-725000D01*
G01*
X119043750Y26082500D01*
X120493750Y26082500D01*
X120493750Y26182500D01*
G37*
D12*
X119768750Y25032500D02*
X120493750Y25612500D01*
X120493750Y25612500D01*
X120493750Y25682500D01*
X119043750Y25682500D01*
X119043750Y25612500D01*
X119043750Y25612500D01*
X119768750Y25032500D01*
D13*
G36*
X119768750Y25032500D02*
X120493750Y25612500D01*
X120493750Y25612500D01*
X120493750Y25682500D01*
X119043750Y25682500D01*
X119043750Y25612500D01*
X119043750Y25612500D01*
X119768750Y25032500D01*
G37*
D12*
X120493750Y24482500D02*
X120493750Y25212500D01*
X119768750Y24632500D01*
X119043750Y25212500D01*
X119043750Y24482500D01*
X120493750Y24482500D01*
D13*
G36*
X120493750Y24482500D02*
X120493750Y25212500D01*
X119768750Y24632500D01*
X119043750Y25212500D01*
X119043750Y24482500D01*
X120493750Y24482500D01*
G37*
D11*
G04 #@! TO.C,JP36*
X118968750Y42862500D03*
X120568750Y42862500D03*
D12*
X118668750Y42137500D02*
G02*
X118668750Y43587500I725000J725000D01*
G01*
X118768750Y43587500D01*
X118768750Y42137500D01*
X118668750Y42137500D01*
D13*
G36*
X118668750Y42137500D02*
G02*
X118668750Y43587500I725000J725000D01*
G01*
X118768750Y43587500D01*
X118768750Y42137500D01*
X118668750Y42137500D01*
G37*
D12*
X120868750Y42137500D02*
G03*
X120868750Y43587500I-725000J725000D01*
G01*
X120768750Y43587500D01*
X120768750Y42137500D01*
X120868750Y42137500D01*
D13*
G36*
X120868750Y42137500D02*
G03*
X120868750Y43587500I-725000J725000D01*
G01*
X120768750Y43587500D01*
X120768750Y42137500D01*
X120868750Y42137500D01*
G37*
D12*
X119718750Y42862500D02*
X120298750Y42137500D01*
X120298750Y42137500D01*
X120368750Y42137500D01*
X120368750Y43587500D01*
X120298750Y43587500D01*
X120298750Y43587500D01*
X119718750Y42862500D01*
D13*
G36*
X119718750Y42862500D02*
X120298750Y42137500D01*
X120298750Y42137500D01*
X120368750Y42137500D01*
X120368750Y43587500D01*
X120298750Y43587500D01*
X120298750Y43587500D01*
X119718750Y42862500D01*
G37*
D12*
X119168750Y42137500D02*
X119898750Y42137500D01*
X119318750Y42862500D01*
X119898750Y43587500D01*
X119168750Y43587500D01*
X119168750Y42137500D01*
D13*
G36*
X119168750Y42137500D02*
X119898750Y42137500D01*
X119318750Y42862500D01*
X119898750Y43587500D01*
X119168750Y43587500D01*
X119168750Y42137500D01*
G37*
D19*
G04 #@! TO.C,JP28*
X127388750Y24282500D03*
X127388750Y25882500D03*
D12*
X128113750Y23982500D02*
G02*
X126663750Y23982500I-725000J725000D01*
G01*
X126663750Y24082500D01*
X128113750Y24082500D01*
X128113750Y23982500D01*
D13*
G36*
X128113750Y23982500D02*
G02*
X126663750Y23982500I-725000J725000D01*
G01*
X126663750Y24082500D01*
X128113750Y24082500D01*
X128113750Y23982500D01*
G37*
D12*
X128113750Y26182500D02*
G03*
X126663750Y26182500I-725000J-725000D01*
G01*
X126663750Y26082500D01*
X128113750Y26082500D01*
X128113750Y26182500D01*
D13*
G36*
X128113750Y26182500D02*
G03*
X126663750Y26182500I-725000J-725000D01*
G01*
X126663750Y26082500D01*
X128113750Y26082500D01*
X128113750Y26182500D01*
G37*
D12*
X127388750Y25032500D02*
X128113750Y25612500D01*
X128113750Y25612500D01*
X128113750Y25682500D01*
X126663750Y25682500D01*
X126663750Y25612500D01*
X126663750Y25612500D01*
X127388750Y25032500D01*
D13*
G36*
X127388750Y25032500D02*
X128113750Y25612500D01*
X128113750Y25612500D01*
X128113750Y25682500D01*
X126663750Y25682500D01*
X126663750Y25612500D01*
X126663750Y25612500D01*
X127388750Y25032500D01*
G37*
D12*
X128113750Y24482500D02*
X128113750Y25212500D01*
X127388750Y24632500D01*
X126663750Y25212500D01*
X126663750Y24482500D01*
X128113750Y24482500D01*
D13*
G36*
X128113750Y24482500D02*
X128113750Y25212500D01*
X127388750Y24632500D01*
X126663750Y25212500D01*
X126663750Y24482500D01*
X128113750Y24482500D01*
G37*
D11*
G04 #@! TO.C,JP43*
X130728750Y35242500D03*
X129128750Y35242500D03*
D12*
X131028750Y35967500D02*
G02*
X131028750Y34517500I-725000J-725000D01*
G01*
X130928750Y34517500D01*
X130928750Y35967500D01*
X131028750Y35967500D01*
D13*
G36*
X131028750Y35967500D02*
G02*
X131028750Y34517500I-725000J-725000D01*
G01*
X130928750Y34517500D01*
X130928750Y35967500D01*
X131028750Y35967500D01*
G37*
D12*
X128828750Y35967500D02*
G03*
X128828750Y34517500I725000J-725000D01*
G01*
X128928750Y34517500D01*
X128928750Y35967500D01*
X128828750Y35967500D01*
D13*
G36*
X128828750Y35967500D02*
G03*
X128828750Y34517500I725000J-725000D01*
G01*
X128928750Y34517500D01*
X128928750Y35967500D01*
X128828750Y35967500D01*
G37*
D12*
X129978750Y35242500D02*
X129398750Y35967500D01*
X129398750Y35967500D01*
X129328750Y35967500D01*
X129328750Y34517500D01*
X129398750Y34517500D01*
X129398750Y34517500D01*
X129978750Y35242500D01*
D13*
G36*
X129978750Y35242500D02*
X129398750Y35967500D01*
X129398750Y35967500D01*
X129328750Y35967500D01*
X129328750Y34517500D01*
X129398750Y34517500D01*
X129398750Y34517500D01*
X129978750Y35242500D01*
G37*
D12*
X130528750Y35967500D02*
X129798750Y35967500D01*
X130378750Y35242500D01*
X129798750Y34517500D01*
X130528750Y34517500D01*
X130528750Y35967500D01*
D13*
G36*
X130528750Y35967500D02*
X129798750Y35967500D01*
X130378750Y35242500D01*
X129798750Y34517500D01*
X130528750Y34517500D01*
X130528750Y35967500D01*
G37*
D14*
G04 #@! TO.C,D222*
X87123750Y38100000D03*
X83373750Y38100000D03*
D11*
G04 #@! TO.C,JP26*
X130728750Y45402500D03*
X129128750Y45402500D03*
D12*
X131028750Y46127500D02*
G02*
X131028750Y44677500I-725000J-725000D01*
G01*
X130928750Y44677500D01*
X130928750Y46127500D01*
X131028750Y46127500D01*
D13*
G36*
X131028750Y46127500D02*
G02*
X131028750Y44677500I-725000J-725000D01*
G01*
X130928750Y44677500D01*
X130928750Y46127500D01*
X131028750Y46127500D01*
G37*
D12*
X128828750Y46127500D02*
G03*
X128828750Y44677500I725000J-725000D01*
G01*
X128928750Y44677500D01*
X128928750Y46127500D01*
X128828750Y46127500D01*
D13*
G36*
X128828750Y46127500D02*
G03*
X128828750Y44677500I725000J-725000D01*
G01*
X128928750Y44677500D01*
X128928750Y46127500D01*
X128828750Y46127500D01*
G37*
D12*
X129978750Y45402500D02*
X129398750Y46127500D01*
X129398750Y46127500D01*
X129328750Y46127500D01*
X129328750Y44677500D01*
X129398750Y44677500D01*
X129398750Y44677500D01*
X129978750Y45402500D01*
D13*
G36*
X129978750Y45402500D02*
X129398750Y46127500D01*
X129398750Y46127500D01*
X129328750Y46127500D01*
X129328750Y44677500D01*
X129398750Y44677500D01*
X129398750Y44677500D01*
X129978750Y45402500D01*
G37*
D12*
X130528750Y46127500D02*
X129798750Y46127500D01*
X130378750Y45402500D01*
X129798750Y44677500D01*
X130528750Y44677500D01*
X130528750Y46127500D01*
D13*
G36*
X130528750Y46127500D02*
X129798750Y46127500D01*
X130378750Y45402500D01*
X129798750Y44677500D01*
X130528750Y44677500D01*
X130528750Y46127500D01*
G37*
D11*
G04 #@! TO.C,JP34*
X130728750Y42862500D03*
X129128750Y42862500D03*
D12*
X131028750Y43587500D02*
G02*
X131028750Y42137500I-725000J-725000D01*
G01*
X130928750Y42137500D01*
X130928750Y43587500D01*
X131028750Y43587500D01*
D13*
G36*
X131028750Y43587500D02*
G02*
X131028750Y42137500I-725000J-725000D01*
G01*
X130928750Y42137500D01*
X130928750Y43587500D01*
X131028750Y43587500D01*
G37*
D12*
X128828750Y43587500D02*
G03*
X128828750Y42137500I725000J-725000D01*
G01*
X128928750Y42137500D01*
X128928750Y43587500D01*
X128828750Y43587500D01*
D13*
G36*
X128828750Y43587500D02*
G03*
X128828750Y42137500I725000J-725000D01*
G01*
X128928750Y42137500D01*
X128928750Y43587500D01*
X128828750Y43587500D01*
G37*
D12*
X129978750Y42862500D02*
X129398750Y43587500D01*
X129398750Y43587500D01*
X129328750Y43587500D01*
X129328750Y42137500D01*
X129398750Y42137500D01*
X129398750Y42137500D01*
X129978750Y42862500D01*
D13*
G36*
X129978750Y42862500D02*
X129398750Y43587500D01*
X129398750Y43587500D01*
X129328750Y43587500D01*
X129328750Y42137500D01*
X129398750Y42137500D01*
X129398750Y42137500D01*
X129978750Y42862500D01*
G37*
D12*
X130528750Y43587500D02*
X129798750Y43587500D01*
X130378750Y42862500D01*
X129798750Y42137500D01*
X130528750Y42137500D01*
X130528750Y43587500D01*
D13*
G36*
X130528750Y43587500D02*
X129798750Y43587500D01*
X130378750Y42862500D01*
X129798750Y42137500D01*
X130528750Y42137500D01*
X130528750Y43587500D01*
G37*
D11*
G04 #@! TO.C,JP42*
X130728750Y47942500D03*
X129128750Y47942500D03*
D12*
X131028750Y48667500D02*
G02*
X131028750Y47217500I-725000J-725000D01*
G01*
X130928750Y47217500D01*
X130928750Y48667500D01*
X131028750Y48667500D01*
D13*
G36*
X131028750Y48667500D02*
G02*
X131028750Y47217500I-725000J-725000D01*
G01*
X130928750Y47217500D01*
X130928750Y48667500D01*
X131028750Y48667500D01*
G37*
D12*
X128828750Y48667500D02*
G03*
X128828750Y47217500I725000J-725000D01*
G01*
X128928750Y47217500D01*
X128928750Y48667500D01*
X128828750Y48667500D01*
D13*
G36*
X128828750Y48667500D02*
G03*
X128828750Y47217500I725000J-725000D01*
G01*
X128928750Y47217500D01*
X128928750Y48667500D01*
X128828750Y48667500D01*
G37*
D12*
X129978750Y47942500D02*
X129398750Y48667500D01*
X129398750Y48667500D01*
X129328750Y48667500D01*
X129328750Y47217500D01*
X129398750Y47217500D01*
X129398750Y47217500D01*
X129978750Y47942500D01*
D13*
G36*
X129978750Y47942500D02*
X129398750Y48667500D01*
X129398750Y48667500D01*
X129328750Y48667500D01*
X129328750Y47217500D01*
X129398750Y47217500D01*
X129398750Y47217500D01*
X129978750Y47942500D01*
G37*
D12*
X130528750Y48667500D02*
X129798750Y48667500D01*
X130378750Y47942500D01*
X129798750Y47217500D01*
X130528750Y47217500D01*
X130528750Y48667500D01*
D13*
G36*
X130528750Y48667500D02*
X129798750Y48667500D01*
X130378750Y47942500D01*
X129798750Y47217500D01*
X130528750Y47217500D01*
X130528750Y48667500D01*
G37*
D14*
G04 #@! TO.C,D253*
X29973750Y14287500D03*
X26223750Y14287500D03*
G04 #@! TO.C,D220*
X87123750Y76200000D03*
X83373750Y76200000D03*
D10*
G04 #@! TO.C,S120*
X39348750Y67420000D03*
X49948750Y65220000D03*
G04 --- BOARD END --- *
G04 #@! TF.MD5,bebac33d2b709f67d12cb99533df33b8*
M02*
