M48
; #@! TF.GenerationSoftware,LibrePCB,LibrePCB,0.1.7
; #@! TF.CreationDate,2023-07-24T22:05:17
; #@! TF.ProjectId,kbdkid3,8968376b-f35a-430f-8fb1-af8ab2fa8879,v1
; #@! TF.Part,Single
; #@! TF.SameCoordinates
; #@! TF.FileFunction,Plated,1,4,PTH
FMAT,2
METRIC,TZ
; #@! TA.AperFunction,ViaDrill
T1C0.3
; #@! TA.AperFunction,ComponentDrill
T2C0.8
; #@! TA.AperFunction,ComponentDrill
T3C1.0
%
G90
G05
M71
T1
X66.19875Y46.19625
X66.19875Y27.14625
X66.19875Y8.09625
X124.84875Y35.2425
X66.19875Y65.24625
X79.21625Y54.213125
X33.9725Y68.58
X127.5475Y47.9425
X79.295625Y35.004375
X104.29875Y60.48375
X104.29875Y22.38375
X104.29875Y3.33375
X104.29875Y41.43375
X124.84875Y42.8625
X52.86375Y54.2925
X22.145625Y49.37125
X50.244375Y20.0025
X69.37375Y22.70125
X12.22375Y15.24
X114.6175Y24.92375
X107.553125Y17.700625
X88.503125Y20.240625
X123.428125Y15.71625
X31.353125Y15.39875
X125.0075Y27.701875
X41.195625Y35.163125
X40.16375Y72.54875
X79.53375Y73.580625
X60.48375Y18.335625
X3.095625Y49.450625
X88.42375Y77.390625
X11.985625Y72.54875
X69.294375Y79.771875
X31.194375Y72.469375
X125.563125Y33.49625
X104.4575Y75.168125
X50.4825Y77.708125
X41.513125Y16.113125
X127.70625Y53.0225
X14.76375Y30.32125
X52.784375Y16.113125
X90.884375Y73.580625
X118.745Y59.769375
X98.58375Y51.91125
X79.375Y15.875
X71.91375Y56.594375
X124.928125Y40.3225
X85.24875Y62.865
X85.4075Y43.815
X85.24875Y5.715
X85.24875Y24.765
X60.404375Y37.385625
X117.475Y11.191875
X22.304375Y11.350625
X22.225Y68.73875
X60.48375Y75.8825
X33.734375Y11.350625
X22.38375Y30.400625
X124.769375Y48.974375
X124.055Y26.749375
X125.6425Y30.876875
X69.37375Y60.721875
X12.065Y53.34
X88.265Y58.340625
X104.93375Y56.1975
X50.244375Y58.1025
X31.353125Y53.419375
X123.34875Y0.9525
X127.0Y10.795
X124.84875Y45.4025
X72.310625Y75.644375
X124.84875Y32.7025
X47.14875Y43.815
X47.14875Y62.865
X47.14875Y24.765
X47.14875Y5.715
X110.01375Y71.12
X98.504375Y32.54375
X121.99125Y42.465625
X125.96Y19.764375
X121.594375Y26.82875
X125.325Y43.65625
X53.18125Y73.3425
X33.734375Y30.32125
X98.504375Y13.573125
X90.805Y54.2925
X71.91375Y18.335625
X3.33375Y11.350625
X3.413125Y30.32125
X109.934375Y51.7525
X14.9225Y68.818125
X41.11625Y54.2925
X12.144375Y34.369375
X116.990625Y26.114375
X31.194375Y34.44875
X69.37375Y41.513125
X125.563125Y28.41625
X88.503125Y39.21125
X50.32375Y38.973125
X105.0925Y37.703125
X98.345625Y70.881875
X124.84875Y37.7825
X28.09875Y20.0025
X28.09875Y0.9525
X28.09875Y58.1025
X28.09875Y39.0525
X60.16625Y56.594375
X14.843125Y11.27125
X124.221875Y62.38875
X122.864375Y26.908125
X122.15Y53.0225
X132.389375Y25.479375
X127.38875Y46.19625
X125.086875Y19.05
X2.8575Y68.58
X110.093125Y32.54375
X122.15Y50.4825
X129.143125Y11.191875
X128.103125Y26.908125
X122.15Y47.9425
X124.84875Y30.1625
X9.04875Y0.9525
X9.04875Y58.1025
X9.04875Y20.0025
X9.04875Y39.0525
X127.5475Y50.4825
X71.755Y37.62375
X33.655Y49.53
X90.884375Y35.163125
X123.7375Y57.070625
X122.793125Y59.928125
X52.943125Y34.925
X125.48375Y50.085625
X122.705625Y20.558125
X124.928125Y55.5625
X110.01375Y13.6525
X14.843125Y49.450625
X91.043125Y15.954375
T2
X119.824375Y63.986875
X117.824375Y63.986875
X117.824375Y63.986875
X119.824375Y63.986875
T3
X117.22875Y47.9425
X132.46875Y35.2425
X132.46875Y27.6225
X132.46875Y53.0225
X132.46875Y47.9425
X117.22875Y27.6225
X132.46875Y40.3225
X132.46875Y42.8625
X117.22875Y45.4025
X117.22875Y37.7825
X117.22875Y50.4825
X132.46875Y30.1625
X117.22875Y32.7025
X117.22875Y40.3225
X132.46875Y50.4825
X117.22875Y53.0225
X117.22875Y55.5625
X132.46875Y32.7025
X132.46875Y55.5625
X117.22875Y30.1625
X117.22875Y35.2425
X117.22875Y42.8625
X132.46875Y37.7825
X132.46875Y45.4025
X119.76875Y22.5425
X122.30875Y22.5425
X129.92875Y22.5425
X127.38875Y22.5425
X124.84875Y22.5425
X132.46875Y47.9425
X117.22875Y35.2425
X117.22875Y27.6225
X117.22875Y53.0225
X117.22875Y47.9425
X132.46875Y27.6225
X117.22875Y40.3225
X117.22875Y42.8625
X132.46875Y45.4025
X132.46875Y37.7825
X132.46875Y50.4825
X117.22875Y30.1625
X132.46875Y32.7025
X132.46875Y40.3225
X117.22875Y50.4825
X132.46875Y53.0225
X132.46875Y55.5625
X117.22875Y32.7025
X117.22875Y55.5625
X132.46875Y30.1625
X132.46875Y35.2425
X132.46875Y42.8625
X117.22875Y37.7825
X117.22875Y45.4025
X129.92875Y22.5425
X127.38875Y22.5425
X119.76875Y22.5425
X122.30875Y22.5425
X124.84875Y22.5425
T0
M30
