M48
; #@! TF.GenerationSoftware,LibrePCB,LibrePCB,0.1.7
; #@! TF.CreationDate,2023-07-24T22:05:17
; #@! TF.ProjectId,kbdkid3,8968376b-f35a-430f-8fb1-af8ab2fa8879,v1
; #@! TF.Part,Single
; #@! TF.SameCoordinates
; #@! TF.FileFunction,NonPlated,1,4,NPTH
FMAT,2
METRIC,TZ
; #@! TA.AperFunction,MechanicalDrill
T1C0.9
; #@! TA.AperFunction,MechanicalDrill
T2C1.2
; #@! TA.AperFunction,MechanicalDrill
T3C1.9
; #@! TA.AperFunction,MechanicalDrill
T4C3.0
; #@! TA.AperFunction,MechanicalDrill
T5C3.4
%
G90
G05
M71
T1
X128.337273Y68.569528
X129.313977Y65.732972
X129.313977Y65.732972
X128.337273Y68.569528
T2
X52.36875Y75.32
X3.82875Y70.5575
X41.92875Y18.17
X99.07875Y72.93875
X14.26875Y70.5575
X80.02875Y18.17
X60.97875Y39.60125
X109.51875Y15.78875
X90.46875Y18.17
X52.36875Y18.17
X22.87875Y32.4575
X99.07875Y34.83875
X80.02875Y37.22
X22.87875Y70.5575
X60.97875Y77.70125
X90.46875Y56.27
X109.51875Y53.88875
X22.87875Y51.5075
X71.41875Y20.55125
X14.26875Y51.5075
X60.97875Y20.55125
X14.26875Y32.4575
X109.51875Y72.93875
X71.41875Y77.70125
X41.92875Y37.22
X33.31875Y13.4075
X52.36875Y56.27
X60.97875Y58.65125
X109.51875Y34.83875
X80.02875Y56.27
X80.02875Y75.32
X99.07875Y15.78875
X3.82875Y51.5075
X3.82875Y32.4575
X41.92875Y56.27
X3.82875Y13.4075
X90.46875Y75.32
X99.07875Y53.88875
X14.26875Y13.4075
X52.36875Y37.22
X33.31875Y51.5075
X33.31875Y32.4575
X33.31875Y70.5575
X118.12875Y13.4075
X128.56875Y13.4075
X41.92875Y75.32
X71.41875Y39.60125
X90.46875Y37.22
X22.87875Y13.4075
X71.41875Y58.65125
T3
X41.64875Y71.12
X52.64875Y71.12
X14.54875Y66.3575
X3.54875Y66.3575
X52.64875Y13.97
X41.64875Y13.97
X109.79875Y68.73875
X98.79875Y68.73875
X3.54875Y66.3575
X14.54875Y66.3575
X90.74875Y13.97
X79.74875Y13.97
X71.69875Y35.40125
X60.69875Y35.40125
X98.79875Y11.58875
X109.79875Y11.58875
X79.74875Y13.97
X90.74875Y13.97
X41.64875Y13.97
X52.64875Y13.97
X33.59875Y28.2575
X22.59875Y28.2575
X109.79875Y30.63875
X98.79875Y30.63875
X90.74875Y33.02
X79.74875Y33.02
X33.59875Y66.3575
X22.59875Y66.3575
X71.69875Y73.50125
X60.69875Y73.50125
X79.74875Y52.07
X90.74875Y52.07
X98.79875Y49.68875
X109.79875Y49.68875
X33.59875Y47.3075
X22.59875Y47.3075
X60.69875Y16.35125
X71.69875Y16.35125
X3.54875Y47.3075
X14.54875Y47.3075
X71.69875Y16.35125
X60.69875Y16.35125
X3.54875Y28.2575
X14.54875Y28.2575
X98.79875Y68.73875
X109.79875Y68.73875
X60.69875Y73.50125
X71.69875Y73.50125
X52.64875Y33.02
X41.64875Y33.02
X22.59875Y9.2075
X33.59875Y9.2075
X41.64875Y52.07
X52.64875Y52.07
X71.69875Y54.45125
X60.69875Y54.45125
X98.79875Y30.63875
X109.79875Y30.63875
X90.74875Y52.07
X79.74875Y52.07
X90.74875Y71.12
X79.74875Y71.12
X109.79875Y11.58875
X98.79875Y11.58875
X14.54875Y47.3075
X3.54875Y47.3075
X14.54875Y28.2575
X3.54875Y28.2575
X52.64875Y52.07
X41.64875Y52.07
X14.54875Y9.2075
X3.54875Y9.2075
X79.74875Y71.12
X90.74875Y71.12
X109.79875Y49.68875
X98.79875Y49.68875
X3.54875Y9.2075
X14.54875Y9.2075
X41.64875Y33.02
X52.64875Y33.02
X22.59875Y47.3075
X33.59875Y47.3075
X22.59875Y28.2575
X33.59875Y28.2575
X22.59875Y66.3575
X33.59875Y66.3575
X128.84875Y9.2075
X117.84875Y9.2075
X117.84875Y9.2075
X128.84875Y9.2075
X52.64875Y71.12
X41.64875Y71.12
X60.69875Y35.40125
X71.69875Y35.40125
X79.74875Y33.02
X90.74875Y33.02
X33.59875Y9.2075
X22.59875Y9.2075
X60.69875Y54.45125
X71.69875Y54.45125
T4
X47.14875Y65.17
X42.14875Y67.37
X9.04875Y60.4075
X14.04875Y62.6075
X47.14875Y8.02
X52.14875Y10.22
X104.29875Y62.78875
X109.29875Y64.98875
X9.04875Y60.4075
X4.04875Y62.6075
X85.24875Y8.02
X90.24875Y10.22
X66.19875Y29.45125
X71.19875Y31.65125
X104.29875Y5.63875
X99.29875Y7.83875
X85.24875Y8.02
X80.24875Y10.22
X47.14875Y8.02
X42.14875Y10.22
X28.09875Y22.3075
X33.09875Y24.5075
X104.29875Y24.68875
X109.29875Y26.88875
X85.24875Y27.07
X90.24875Y29.27
X28.09875Y60.4075
X33.09875Y62.6075
X66.19875Y67.55125
X71.19875Y69.75125
X85.24875Y46.12
X80.24875Y48.32
X104.29875Y43.73875
X99.29875Y45.93875
X28.09875Y41.3575
X33.09875Y43.5575
X66.19875Y10.40125
X61.19875Y12.60125
X9.04875Y41.3575
X4.04875Y43.5575
X66.19875Y10.40125
X71.19875Y12.60125
X9.04875Y22.3075
X4.04875Y24.5075
X104.29875Y62.78875
X99.29875Y64.98875
X66.19875Y67.55125
X61.19875Y69.75125
X47.14875Y27.07
X52.14875Y29.27
X28.09875Y3.2575
X23.09875Y5.4575
X47.14875Y46.12
X42.14875Y48.32
X66.19875Y48.50125
X71.19875Y50.70125
X104.29875Y24.68875
X99.29875Y26.88875
X85.24875Y46.12
X90.24875Y48.32
X85.24875Y65.17
X90.24875Y67.37
X104.29875Y5.63875
X109.29875Y7.83875
X9.04875Y41.3575
X14.04875Y43.5575
X9.04875Y22.3075
X14.04875Y24.5075
X47.14875Y46.12
X52.14875Y48.32
X9.04875Y3.2575
X14.04875Y5.4575
X85.24875Y65.17
X80.24875Y67.37
X104.29875Y43.73875
X109.29875Y45.93875
X9.04875Y3.2575
X4.04875Y5.4575
X47.14875Y27.07
X42.14875Y29.27
X28.09875Y41.3575
X23.09875Y43.5575
X28.09875Y22.3075
X23.09875Y24.5075
X28.09875Y60.4075
X23.09875Y62.6075
X123.34875Y3.2575
X128.34875Y5.4575
X123.34875Y3.2575
X118.34875Y5.4575
X47.14875Y65.17
X52.14875Y67.37
X66.19875Y29.45125
X61.19875Y31.65125
X85.24875Y27.07
X80.24875Y29.27
X28.09875Y3.2575
X33.09875Y5.4575
X66.19875Y48.50125
X61.19875Y50.70125
T5
X47.14875Y71.12
X9.04875Y66.3575
X47.14875Y13.97
X104.29875Y68.73875
X9.04875Y66.3575
X85.24875Y13.97
X66.19875Y35.40125
X104.29875Y11.58875
X85.24875Y13.97
X47.14875Y13.97
X28.09875Y28.2575
X104.29875Y30.63875
X85.24875Y33.02
X28.09875Y66.3575
X66.19875Y73.50125
X85.24875Y52.07
X104.29875Y49.68875
X28.09875Y47.3075
X66.19875Y16.35125
X9.04875Y47.3075
X66.19875Y16.35125
X9.04875Y28.2575
X104.29875Y68.73875
X66.19875Y73.50125
X47.14875Y33.02
X28.09875Y9.2075
X47.14875Y52.07
X66.19875Y54.45125
X104.29875Y30.63875
X85.24875Y52.07
X85.24875Y71.12
X104.29875Y11.58875
X9.04875Y47.3075
X9.04875Y28.2575
X47.14875Y52.07
X9.04875Y9.2075
X85.24875Y71.12
X104.29875Y49.68875
X9.04875Y9.2075
X47.14875Y33.02
X28.09875Y47.3075
X28.09875Y28.2575
X28.09875Y66.3575
X123.34875Y9.2075
X123.34875Y9.2075
X47.14875Y71.12
X66.19875Y35.40125
X85.24875Y33.02
X28.09875Y9.2075
X66.19875Y54.45125
T0
M30
