G04 --- HEADER BEGIN --- *
G04 #@! TF.GenerationSoftware,LibrePCB,LibrePCB,0.1.7*
G04 #@! TF.CreationDate,2023-07-24T22:05:17*
G04 #@! TF.ProjectId,kbdkid3,8968376b-f35a-430f-8fb1-af8ab2fa8879,v1*
G04 #@! TF.Part,Single*
G04 #@! TF.SameCoordinates*
G04 #@! TF.FileFunction,Copper,L2,Inr*
G04 #@! TF.FilePolarity,Positive*
%FSLAX66Y66*%
%MOMM*%
G01*
G75*
G04 --- HEADER END --- *
G04 --- APERTURE LIST BEGIN --- *
G04 #@! TA.AperFunction,ComponentPad*
%ADD10O,1.2X1.3*%
%ADD11R,1.2X1.3*%
%ADD12O,1.587X2.19*%
%ADD13R,1.587X2.19*%
%ADD14O,2.19X1.587*%
G04 #@! TA.AperFunction,ViaPad*
%ADD15C,0.7*%
G04 #@! TA.AperFunction,Conductor*
%ADD16C,0.3*%
G04 #@! TA.AperFunction,ViaPad*
%ADD17C,0.9*%
G04 #@! TA.AperFunction,Conductor*
%ADD18C,0.5*%
G04 #@! TD*
G04 --- APERTURE LIST END --- *
G04 --- BOARD BEGIN --- *
D10*
G04 #@! TO.N,N103*
G04 #@! TO.C,J2*
G04 #@! TO.P,J2,2,2*
X119824375Y63986875D03*
D11*
G04 #@! TO.N,N99*
G04 #@! TO.P,J2,1,1*
X117824375Y63986875D03*
D10*
G04 #@! TO.N,N95*
G04 #@! TO.C,J1*
G04 #@! TO.P,J1,2,2*
X117824375Y63986875D03*
D11*
G04 #@! TO.N,N44*
G04 #@! TO.P,J1,1,1*
X119824375Y63986875D03*
D12*
G04 #@! TO.N,N94*
G04 #@! TO.C,DS2*
G04 #@! TO.P,DS2,VCC,VCC*
X124848750Y22542500D03*
G04 #@! TO.N,N98*
G04 #@! TO.P,DS2,GND,GND*
X122308750Y22542500D03*
G04 #@! TO.N,N91*
G04 #@! TO.P,DS2,CS,CS*
X119768750Y22542500D03*
G04 #@! TO.N,N90*
G04 #@! TO.P,DS2,SCK,SCK*
X127388750Y22542500D03*
D13*
G04 #@! TO.N,N97*
G04 #@! TO.P,DS2,MOSI,MOSI*
X129928750Y22542500D03*
D14*
G04 #@! TO.N,N71*
G04 #@! TO.C,U1*
G04 #@! TO.P,U1,031,D21/P031*
X117228750Y45402500D03*
G04 #@! TO.N,N68*
G04 #@! TO.P,U1,115,D18/P115*
X117228750Y37782500D03*
G04 #@! TO.N,N60*
G04 #@! TO.P,U1,020,D3/P020*
X132468750Y42862500D03*
G04 #@! TO.N,N/C*
G04 #@! TO.P,U1,100,D6/P100*
X132468750Y35242500D03*
G04 #@! TO.N,N62*
G04 #@! TO.P,U1,104,D8/P104*
X132468750Y30162500D03*
G04 #@! TO.N,N55*
G04 #@! TO.P,U1,VBAT,VBAT*
X117228750Y55562500D03*
G04 #@! TO.N,N65*
G04 #@! TO.P,U1,111,D14/P111*
X117228750Y32702500D03*
G04 #@! TO.N,N58*
G04 #@! TO.P,U1,006,D1/P006/TXD*
X132468750Y55562500D03*
G04 #@! TO.N,N/C*
G04 #@! TO.P,U1,008,D0/P008/RXD*
X132468750Y53022500D03*
G04 #@! TO.N,N73*
G04 #@! TO.P,U1,RESET,RESET*
X117228750Y50482500D03*
G04 #@! TO.N,N/C*
G04 #@! TO.P,U1,022,D4/P022*
X132468750Y40322500D03*
G04 #@! TO.N,N61*
G04 #@! TO.P,U1,011,D7/P011*
X132468750Y32702500D03*
G04 #@! TO.N,N67*
G04 #@! TO.P,U1,010,D16/P010*
X117228750Y30162500D03*
G04 #@! TO.N,N57*
G04 #@! TO.P,U1,GND_3,GND*
X132468750Y50482500D03*
G04 #@! TO.N,N/C*
G04 #@! TO.P,U1,024,D5/P024*
X132468750Y37782500D03*
G04 #@! TO.N,N59*
G04 #@! TO.P,U1,017,D2/P017*
X132468750Y45402500D03*
G04 #@! TO.N,N70*
G04 #@! TO.P,U1,029,D20/P029*
X117228750Y42862500D03*
G04 #@! TO.N,N69*
G04 #@! TO.P,U1,002,D19/P002*
X117228750Y40322500D03*
G04 #@! TO.N,N63*
G04 #@! TO.P,U1,106,D9/P106*
X132468750Y27622500D03*
G04 #@! TO.N,N74*
G04 #@! TO.P,U1,EXT_VCC,EXT_VCC*
X117228750Y47942500D03*
G04 #@! TO.N,N57*
G04 #@! TO.P,U1,GND_1,GND*
X117228750Y53022500D03*
G04 #@! TO.N,N64*
G04 #@! TO.P,U1,009,D10/P009*
X117228750Y27622500D03*
G04 #@! TO.N,N66*
G04 #@! TO.P,U1,113,D15/P113*
X117228750Y35242500D03*
G04 #@! TO.N,N57*
G04 #@! TO.P,U1,GND_2,GND*
X132468750Y47942500D03*
D12*
G04 #@! TO.N,N75*
G04 #@! TO.C,DS1*
G04 #@! TO.P,DS1,VCC,VCC*
X124848750Y22542500D03*
G04 #@! TO.N,N76*
G04 #@! TO.P,DS1,GND,GND*
X127388750Y22542500D03*
G04 #@! TO.N,N80*
G04 #@! TO.P,DS1,CS,CS*
X129928750Y22542500D03*
G04 #@! TO.N,N77*
G04 #@! TO.P,DS1,SCK,SCK*
X122308750Y22542500D03*
D13*
G04 #@! TO.N,N79*
G04 #@! TO.P,DS1,MOSI,MOSI*
X119768750Y22542500D03*
D14*
G04 #@! TO.N,N86*
G04 #@! TO.C,U2*
G04 #@! TO.P,U2,031,D21/P031*
X132468750Y45402500D03*
G04 #@! TO.N,N84*
G04 #@! TO.P,U2,115,D18/P115*
X132468750Y37782500D03*
G04 #@! TO.N,N101*
G04 #@! TO.P,U2,020,D3/P020*
X117228750Y42862500D03*
G04 #@! TO.N,N/C*
G04 #@! TO.P,U2,100,D6/P100*
X117228750Y35242500D03*
G04 #@! TO.N,N100*
G04 #@! TO.P,U2,104,D8/P104*
X117228750Y30162500D03*
G04 #@! TO.N,N78*
G04 #@! TO.P,U2,VBAT,VBAT*
X132468750Y55562500D03*
G04 #@! TO.N,N56*
G04 #@! TO.P,U2,111,D14/P111*
X132468750Y32702500D03*
G04 #@! TO.N,N102*
G04 #@! TO.P,U2,006,D1/P006/TXD*
X117228750Y55562500D03*
G04 #@! TO.N,N/C*
G04 #@! TO.P,U2,008,D0/P008/RXD*
X117228750Y53022500D03*
G04 #@! TO.N,N89*
G04 #@! TO.P,U2,RESET,RESET*
X132468750Y50482500D03*
G04 #@! TO.N,N/C*
G04 #@! TO.P,U2,022,D4/P022*
X117228750Y40322500D03*
G04 #@! TO.N,N43*
G04 #@! TO.P,U2,011,D7/P011*
X117228750Y32702500D03*
G04 #@! TO.N,N96*
G04 #@! TO.P,U2,010,D16/P010*
X132468750Y30162500D03*
G04 #@! TO.N,N81*
G04 #@! TO.P,U2,GND_3,GND*
X117228750Y50482500D03*
G04 #@! TO.N,N/C*
G04 #@! TO.P,U2,024,D5/P024*
X117228750Y37782500D03*
G04 #@! TO.N,N82*
G04 #@! TO.P,U2,017,D2/P017*
X117228750Y45402500D03*
G04 #@! TO.N,N85*
G04 #@! TO.P,U2,029,D20/P029*
X132468750Y42862500D03*
G04 #@! TO.N,N92*
G04 #@! TO.P,U2,002,D19/P002*
X132468750Y40322500D03*
G04 #@! TO.N,N88*
G04 #@! TO.P,U2,106,D9/P106*
X117228750Y27622500D03*
G04 #@! TO.N,N93*
G04 #@! TO.P,U2,EXT_VCC,EXT_VCC*
X132468750Y47942500D03*
G04 #@! TO.N,N81*
G04 #@! TO.P,U2,GND_1,GND*
X132468750Y53022500D03*
G04 #@! TO.N,N87*
G04 #@! TO.P,U2,009,D10/P009*
X132468750Y27622500D03*
G04 #@! TO.N,N83*
G04 #@! TO.P,U2,113,D15/P113*
X132468750Y35242500D03*
G04 #@! TO.N,N81*
G04 #@! TO.P,U2,GND_2,GND*
X117228750Y47942500D03*
D15*
G04 #@! TD.C*
G04 #@! TD.P*
G04 #@! TO.N,N29*
X91043125Y15954375D03*
G04 #@! TO.N,N52*
X14843125Y49450625D03*
G04 #@! TO.N,N30*
X110013750Y13652500D03*
G04 #@! TO.N,CS*
X124928125Y55562500D03*
X122705625Y20558125D03*
X125483750Y50085625D03*
D16*
X126118750Y26670000D02*
X126118750Y21510625D01*
X126118750Y21510625D02*
X125166250Y20558125D01*
X125166250Y20558125D02*
X122705625Y20558125D01*
X126595000Y41036875D02*
X126595000Y27146250D01*
X126436250Y41195625D02*
X126595000Y41036875D01*
X126436250Y49133125D02*
X126436250Y41195625D01*
X125483750Y50085625D02*
X126436250Y49133125D01*
X126595000Y27146250D02*
X126118750Y26670000D01*
D15*
G04 #@! TO.N,N50*
X52943125Y34925000D03*
G04 #@! TO.N,N72*
X122793125Y59928125D03*
X123737500Y57070625D03*
G04 #@! TO.N,N47*
X90884375Y35163125D03*
G04 #@! TO.N,N28*
X33655000Y49530000D03*
G04 #@! TO.N,N25*
X71755000Y37623750D03*
D17*
G04 #@! TO.N,GND*
X127547500Y50482500D03*
D15*
G04 #@! TO.N,C0*
X9048750Y39052500D03*
X9048750Y20002500D03*
X9048750Y58102500D03*
X9048750Y952500D03*
X124848750Y30162500D03*
D17*
G04 #@! TO.N,GND*
X122150000Y47942500D03*
D15*
X128103125Y26908125D03*
G04 #@! TO.N,N36*
X129143125Y11191875D03*
D17*
G04 #@! TO.N,GND*
X122150000Y50482500D03*
D15*
G04 #@! TO.N,N37*
X110093125Y32543750D03*
G04 #@! TO.N,N1*
X2857500Y68580000D03*
G04 #@! TO.N,MOSI*
X125086875Y19050000D03*
X127388750Y46196250D03*
X132389375Y25479375D03*
D16*
X127388750Y46196250D02*
X127388750Y30480000D01*
X132389375Y25479375D02*
X127388750Y30480000D01*
D17*
G04 #@! TO.N,GND*
X122150000Y53022500D03*
D15*
X122864375Y26908125D03*
X124221875Y62388750D03*
G04 #@! TO.N,N46*
X14843125Y11271250D03*
G04 #@! TO.N,N7*
X60166250Y56594375D03*
G04 #@! TO.N,C1*
X28098750Y39052500D03*
X28098750Y58102500D03*
X28098750Y952500D03*
X28098750Y20002500D03*
X124848750Y37782500D03*
G04 #@! TO.N,N21*
X98345625Y70881875D03*
G04 #@! TO.N,R2*
X105092500Y37703125D03*
X50323750Y38973125D03*
X88503125Y39211250D03*
X125563125Y28416250D03*
X69373750Y41513125D03*
X31194375Y34448750D03*
X116990625Y26114375D03*
X12144375Y34369375D03*
G04 #@! TO.N,N5*
X41116250Y54292500D03*
G04 #@! TO.N,N51*
X14922500Y68818125D03*
G04 #@! TO.N,N40*
X109934375Y51752500D03*
G04 #@! TO.N,N10*
X3413125Y30321250D03*
G04 #@! TO.N,N14*
X3333750Y11350625D03*
G04 #@! TO.N,N41*
X71913750Y18335625D03*
G04 #@! TO.N,N35*
X90805000Y54292500D03*
G04 #@! TO.N,N23*
X98504375Y13573125D03*
G04 #@! TO.N,N31*
X33734375Y30321250D03*
G04 #@! TO.N,N26*
X53181250Y73342500D03*
G04 #@! TO.N,SCK*
X125325000Y43656250D03*
X121594375Y26828750D03*
X125960000Y19764375D03*
X121991250Y42465625D03*
D16*
X121991250Y42465625D02*
X121594375Y42068750D01*
X121594375Y26828750D02*
X121594375Y42068750D01*
D15*
G04 #@! TO.N,N24*
X98504375Y32543750D03*
G04 #@! TO.N,N49*
X110013750Y71120000D03*
G04 #@! TO.N,C2*
X47148750Y5715000D03*
X47148750Y24765000D03*
X47148750Y62865000D03*
X47148750Y43815000D03*
X124848750Y32702500D03*
G04 #@! TO.N,N42*
X72310625Y75644375D03*
G04 #@! TO.N,C6*
X124848750Y45402500D03*
X127000000Y10795000D03*
X123348750Y952500D03*
G04 #@! TO.N,R1*
X31353125Y53419375D03*
X50244375Y58102500D03*
X104933750Y56197500D03*
X88265000Y58340625D03*
X12065000Y53340000D03*
X69373750Y60721875D03*
X125642500Y30876875D03*
G04 #@! TO.N,VCC*
X124055000Y26749375D03*
X124769375Y48974375D03*
D18*
X124769375Y48974375D02*
X123975625Y48180625D01*
X123975625Y28019375D02*
X123975625Y26828750D01*
X123975625Y48180625D02*
X123975625Y28019375D01*
X123975625Y26828750D02*
X124055000Y26749375D01*
D15*
G04 #@! TO.N,N12*
X22383750Y30400625D03*
G04 #@! TO.N,N48*
X33734375Y11350625D03*
G04 #@! TO.N,N4*
X60483750Y75882500D03*
G04 #@! TO.N,N2*
X22225000Y68738750D03*
G04 #@! TO.N,N16*
X22304375Y11350625D03*
G04 #@! TO.N,N27*
X117475000Y11191875D03*
G04 #@! TO.N,N11*
X60404375Y37385625D03*
G04 #@! TO.N,C4*
X85248750Y24765000D03*
X85248750Y5715000D03*
X85407500Y43815000D03*
X85248750Y62865000D03*
X124928125Y40322500D03*
G04 #@! TO.N,N45*
X71913750Y56594375D03*
G04 #@! TO.N,N19*
X79375000Y15875000D03*
G04 #@! TO.N,N22*
X98583750Y51911250D03*
D17*
G04 #@! TO.N,GND*
X118745000Y59769375D03*
D15*
G04 #@! TO.N,N32*
X90884375Y73580625D03*
G04 #@! TO.N,N33*
X52784375Y16113125D03*
G04 #@! TO.N,N53*
X14763750Y30321250D03*
D17*
G04 #@! TO.N,GND*
X127706250Y53022500D03*
D15*
G04 #@! TO.N,N13*
X41513125Y16113125D03*
G04 #@! TO.N,R0*
X50482500Y77708125D03*
X104457500Y75168125D03*
X125563125Y33496250D03*
X31194375Y72469375D03*
X69294375Y79771875D03*
X11985625Y72548750D03*
X88423750Y77390625D03*
G04 #@! TO.N,N6*
X3095625Y49450625D03*
G04 #@! TO.N,N15*
X60483750Y18335625D03*
G04 #@! TO.N,N17*
X79533750Y73580625D03*
G04 #@! TO.N,N3*
X40163750Y72548750D03*
G04 #@! TO.N,N9*
X41195625Y35163125D03*
G04 #@! TO.N,R3*
X125007500Y27701875D03*
X31353125Y15398750D03*
X123428125Y15716250D03*
X88503125Y20240625D03*
X107553125Y17700625D03*
X114617500Y24923750D03*
X12223750Y15240000D03*
X69373750Y22701250D03*
X50244375Y20002500D03*
G04 #@! TO.N,N8*
X22145625Y49371250D03*
G04 #@! TO.N,N39*
X52863750Y54292500D03*
G04 #@! TO.N,C5*
X124848750Y42862500D03*
X104298750Y41433750D03*
X104298750Y3333750D03*
X104298750Y22383750D03*
X104298750Y60483750D03*
G04 #@! TO.N,N20*
X79295625Y35004375D03*
D17*
G04 #@! TO.N,GND*
X127547500Y47942500D03*
D15*
G04 #@! TO.N,N38*
X33972500Y68580000D03*
G04 #@! TO.N,N18*
X79216250Y54213125D03*
G04 #@! TO.N,C3*
X66198750Y65246250D03*
X124848750Y35242500D03*
X66198750Y8096250D03*
X66198750Y27146250D03*
X66198750Y46196250D03*
G04 --- BOARD END --- *
G04 #@! TF.MD5,33a7440e45ec71bba188aa7e49e40caa*
M02*
