G04 --- HEADER BEGIN --- *
G04 #@! TF.GenerationSoftware,LibrePCB,LibrePCB,0.1.7*
G04 #@! TF.CreationDate,2023-07-24T22:05:17*
G04 #@! TF.ProjectId,kbdkid3,8968376b-f35a-430f-8fb1-af8ab2fa8879,v1*
G04 #@! TF.Part,Single*
G04 #@! TF.SameCoordinates*
G04 #@! TF.FileFunction,Copper,L1,Top*
G04 #@! TF.FilePolarity,Positive*
%FSLAX66Y66*%
%MOMM*%
G01*
G75*
G04 --- HEADER END --- *
G04 --- APERTURE LIST BEGIN --- *
G04 #@! TA.AperFunction,SMDPad,CuDef*
%ADD10R,1.6X2.2*%
%ADD11R,1.25X0.4*%
G04 #@! TA.AperFunction,Conductor*
%ADD12C,0.0*%
%ADD13C,0.01*%
G04 #@! TA.AperFunction,ComponentPad*
%ADD14O,1.2X1.3*%
%ADD15R,1.2X1.3*%
G04 #@! TA.AperFunction,SMDPad,CuDef*
%ADD16R,1.5X0.95*%
G04 #@! TA.AperFunction,ComponentPad*
%ADD17O,1.587X2.19*%
%ADD18R,1.587X2.19*%
G04 #@! TA.AperFunction,SMDPad,CuDef*
%ADD19R,0.4X1.25*%
G04 #@! TA.AperFunction,ComponentPad*
%ADD20O,2.19X1.587*%
G04 #@! TA.AperFunction,SMDPad,CuDef*
%ADD21R,1.7X0.8*%
%AMROTATEDRECT22*20,1,0.7,-0.75,0.0,0.75,0.0,19.0*%
%ADD22ROTATEDRECT22*%
%AMROTATEDRECT23*20,1,0.8,-0.5,0.0,0.5,0.0,109.0*%
%ADD23ROTATEDRECT23*%
G04 #@! TA.AperFunction,ViaPad*
%ADD24C,0.7*%
G04 #@! TA.AperFunction,Conductor*
%ADD25C,0.3*%
G04 #@! TA.AperFunction,ViaPad*
%ADD26C,0.9*%
G04 #@! TA.AperFunction,Conductor*
%ADD27C,0.7*%
%ADD28C,0.5*%
%ADD29C,0.8*%
%ADD30C,1.0*%
G04 #@! TD*
G04 --- APERTURE LIST END --- *
G04 --- BOARD BEGIN --- *
D10*
G04 #@! TO.N,N48*
G04 #@! TO.C,S253*
G04 #@! TO.P,S253,1,1*
X35898750Y5507500D03*
G04 #@! TO.N,C1*
G04 #@! TO.P,S253,2,2*
X25298750Y3307500D03*
D11*
G04 #@! TO.N,N80*
G04 #@! TO.C,JP23*
G04 #@! TO.P,JP23,1,1*
X129928750Y24282500D03*
G04 #@! TO.N,CS*
G04 #@! TO.P,JP23,2,2*
X129928750Y25882500D03*
D12*
G04 #@! TD.P*
G04 #@! TO.N,*
X129928750Y25032500D02*
X129303750Y25532500D01*
X129303750Y25532500D01*
X129303750Y25682500D01*
X130553750Y25682500D01*
X130553750Y25532500D01*
X130553750Y25532500D01*
X129928750Y25032500D01*
D13*
G04 #@! TA.AperFunction,Conductor*
G36*
X129928750Y25032500D02*
X129303750Y25532500D01*
X129303750Y25532500D01*
X129303750Y25682500D01*
X130553750Y25682500D01*
X130553750Y25532500D01*
X130553750Y25532500D01*
X129928750Y25032500D01*
G37*
D12*
G04 #@! TD.AperFunction*
X129303750Y24482500D02*
X129303750Y25132500D01*
X129928750Y24632500D01*
X130553750Y25132500D01*
X130553750Y24482500D01*
X129303750Y24482500D01*
D13*
G04 #@! TA.AperFunction,Conductor*
G36*
X129303750Y24482500D02*
X129303750Y25132500D01*
X129928750Y24632500D01*
X130553750Y25132500D01*
X130553750Y24482500D01*
X129303750Y24482500D01*
G37*
D12*
G04 #@! TD.AperFunction*
X129303750Y26107500D02*
G02*
X130553750Y26107500I625000J-625000D01*
G01*
X130553750Y26082500D01*
X129303750Y26082500D01*
X129303750Y26107500D01*
D13*
G04 #@! TA.AperFunction,Conductor*
G36*
X129303750Y26107500D02*
G02*
X130553750Y26107500I625000J-625000D01*
G01*
X130553750Y26082500D01*
X129303750Y26082500D01*
X129303750Y26107500D01*
G37*
D12*
G04 #@! TD.AperFunction*
X129303750Y24057500D02*
G03*
X130553750Y24057500I625000J625000D01*
G01*
X130553750Y24082500D01*
X129303750Y24082500D01*
X129303750Y24057500D01*
D13*
G04 #@! TA.AperFunction,Conductor*
G36*
X129303750Y24057500D02*
G03*
X130553750Y24057500I625000J625000D01*
G01*
X130553750Y24082500D01*
X129303750Y24082500D01*
X129303750Y24057500D01*
G37*
D10*
G04 #@! TD.AperFunction*
G04 #@! TO.N,N26*
G04 #@! TO.C,S240*
G04 #@! TO.P,S240,1,1*
X54948750Y67420000D03*
G04 #@! TO.N,C2*
G04 #@! TO.P,S240,2,2*
X44348750Y65220000D03*
D14*
G04 #@! TO.N,N103*
G04 #@! TO.C,J2*
G04 #@! TO.P,J2,2,2*
X119824375Y63986875D03*
D15*
G04 #@! TO.N,N99*
G04 #@! TO.P,J2,1,1*
X117824375Y63986875D03*
D10*
G04 #@! TO.N,N36*
G04 #@! TO.C,S203*
G04 #@! TO.P,S203,1,1*
X131148750Y5507500D03*
G04 #@! TO.N,C6*
G04 #@! TO.P,S203,2,2*
X120548750Y3307500D03*
D14*
G04 #@! TO.N,N95*
G04 #@! TO.C,J1*
G04 #@! TO.P,J1,2,2*
X117824375Y63986875D03*
D15*
G04 #@! TO.N,N44*
G04 #@! TO.P,J1,1,1*
X119824375Y63986875D03*
D16*
G04 #@! TO.N,N23*
G04 #@! TO.C,D153*
G04 #@! TO.P,D153,A,A*
X102423750Y16668750D03*
G04 #@! TO.N,R3*
G04 #@! TO.P,D153,C,C*
X106173750Y16668750D03*
D17*
G04 #@! TO.N,N94*
G04 #@! TO.C,DS2*
G04 #@! TO.P,DS2,VCC,VCC*
X124848750Y22542500D03*
G04 #@! TO.N,N98*
G04 #@! TO.P,DS2,GND,GND*
X122308750Y22542500D03*
G04 #@! TO.N,N91*
G04 #@! TO.P,DS2,CS,CS*
X119768750Y22542500D03*
G04 #@! TO.N,N90*
G04 #@! TO.P,DS2,SCK,SCK*
X127388750Y22542500D03*
D18*
G04 #@! TO.N,N97*
G04 #@! TO.P,DS2,MOSI,MOSI*
X129928750Y22542500D03*
D10*
G04 #@! TO.N,N40*
G04 #@! TO.C,S211*
G04 #@! TO.P,S211,1,1*
X112098750Y45988750D03*
G04 #@! TO.N,C5*
G04 #@! TO.P,S211,2,2*
X101498750Y43788750D03*
D19*
G04 #@! TO.N,N63*
G04 #@! TO.C,JP6*
G04 #@! TO.P,JP6,1,1*
X130728750Y27622500D03*
G04 #@! TO.N,R2*
G04 #@! TO.P,JP6,2,2*
X129128750Y27622500D03*
D12*
G04 #@! TD.P*
G04 #@! TO.N,*
X129978750Y27622500D02*
X129478750Y26997500D01*
X129478750Y26997500D01*
X129328750Y26997500D01*
X129328750Y28247500D01*
X129478750Y28247500D01*
X129478750Y28247500D01*
X129978750Y27622500D01*
D13*
G04 #@! TA.AperFunction,Conductor*
G36*
X129978750Y27622500D02*
X129478750Y26997500D01*
X129478750Y26997500D01*
X129328750Y26997500D01*
X129328750Y28247500D01*
X129478750Y28247500D01*
X129478750Y28247500D01*
X129978750Y27622500D01*
G37*
D12*
G04 #@! TD.AperFunction*
X130528750Y26997500D02*
X129878750Y26997500D01*
X130378750Y27622500D01*
X129878750Y28247500D01*
X130528750Y28247500D01*
X130528750Y26997500D01*
D13*
G04 #@! TA.AperFunction,Conductor*
G36*
X130528750Y26997500D02*
X129878750Y26997500D01*
X130378750Y27622500D01*
X129878750Y28247500D01*
X130528750Y28247500D01*
X130528750Y26997500D01*
G37*
D12*
G04 #@! TD.AperFunction*
X128903750Y26997500D02*
G02*
X128903750Y28247500I625000J625000D01*
G01*
X128928750Y28247500D01*
X128928750Y26997500D01*
X128903750Y26997500D01*
D13*
G04 #@! TA.AperFunction,Conductor*
G36*
X128903750Y26997500D02*
G02*
X128903750Y28247500I625000J625000D01*
G01*
X128928750Y28247500D01*
X128928750Y26997500D01*
X128903750Y26997500D01*
G37*
D12*
G04 #@! TD.AperFunction*
X130953750Y26997500D02*
G03*
X130953750Y28247500I-625000J625000D01*
G01*
X130928750Y28247500D01*
X130928750Y26997500D01*
X130953750Y26997500D01*
D13*
G04 #@! TA.AperFunction,Conductor*
G36*
X130953750Y26997500D02*
G03*
X130953750Y28247500I-625000J625000D01*
G01*
X130928750Y28247500D01*
X130928750Y26997500D01*
X130953750Y26997500D01*
G37*
D10*
G04 #@! TD.AperFunction*
G04 #@! TO.N,N46*
G04 #@! TO.C,S263*
G04 #@! TO.P,S263,1,1*
X16848750Y5507500D03*
G04 #@! TO.N,C0*
G04 #@! TO.P,S263,2,2*
X6248750Y3307500D03*
G04 #@! TO.N,N39*
G04 #@! TO.C,S241*
G04 #@! TO.P,S241,1,1*
X54948750Y48370000D03*
G04 #@! TO.N,C2*
G04 #@! TO.P,S241,2,2*
X44348750Y46170000D03*
G04 #@! TO.N,N53*
G04 #@! TO.C,S262*
G04 #@! TO.P,S262,1,1*
X16848750Y24557500D03*
G04 #@! TO.N,C0*
G04 #@! TO.P,S262,2,2*
X6248750Y22357500D03*
D16*
G04 #@! TO.N,N18*
G04 #@! TO.C,D141*
G04 #@! TO.P,D141,A,A*
X83373750Y57150000D03*
G04 #@! TO.N,R1*
G04 #@! TO.P,D141,C,C*
X87123750Y57150000D03*
G04 #@! TO.N,N1*
G04 #@! TO.C,D100*
G04 #@! TO.P,D100,A,A*
X7173750Y71437500D03*
G04 #@! TO.N,R0*
G04 #@! TO.P,D100,C,C*
X10923750Y71437500D03*
G04 #@! TO.N,N27*
G04 #@! TO.C,D163*
G04 #@! TO.P,D163,A,A*
X121473750Y14287500D03*
G04 #@! TO.N,R3*
G04 #@! TO.P,D163,C,C*
X125223750Y14287500D03*
D10*
G04 #@! TO.N,N52*
G04 #@! TO.C,S261*
G04 #@! TO.P,S261,1,1*
X16848750Y43607500D03*
G04 #@! TO.N,C0*
G04 #@! TO.P,S261,2,2*
X6248750Y41407500D03*
D20*
G04 #@! TO.N,N71*
G04 #@! TO.C,U1*
G04 #@! TO.P,U1,031,D21/P031*
X117228750Y45402500D03*
G04 #@! TO.N,N68*
G04 #@! TO.P,U1,115,D18/P115*
X117228750Y37782500D03*
G04 #@! TO.N,N60*
G04 #@! TO.P,U1,020,D3/P020*
X132468750Y42862500D03*
G04 #@! TO.N,N/C*
G04 #@! TO.P,U1,100,D6/P100*
X132468750Y35242500D03*
G04 #@! TO.N,N62*
G04 #@! TO.P,U1,104,D8/P104*
X132468750Y30162500D03*
G04 #@! TO.N,N55*
G04 #@! TO.P,U1,VBAT,VBAT*
X117228750Y55562500D03*
G04 #@! TO.N,N65*
G04 #@! TO.P,U1,111,D14/P111*
X117228750Y32702500D03*
G04 #@! TO.N,N58*
G04 #@! TO.P,U1,006,D1/P006/TXD*
X132468750Y55562500D03*
G04 #@! TO.N,N/C*
G04 #@! TO.P,U1,008,D0/P008/RXD*
X132468750Y53022500D03*
G04 #@! TO.N,N73*
G04 #@! TO.P,U1,RESET,RESET*
X117228750Y50482500D03*
G04 #@! TO.N,N/C*
G04 #@! TO.P,U1,022,D4/P022*
X132468750Y40322500D03*
G04 #@! TO.N,N61*
G04 #@! TO.P,U1,011,D7/P011*
X132468750Y32702500D03*
G04 #@! TO.N,N67*
G04 #@! TO.P,U1,010,D16/P010*
X117228750Y30162500D03*
G04 #@! TO.N,N57*
G04 #@! TO.P,U1,GND_3,GND*
X132468750Y50482500D03*
G04 #@! TO.N,N/C*
G04 #@! TO.P,U1,024,D5/P024*
X132468750Y37782500D03*
G04 #@! TO.N,N59*
G04 #@! TO.P,U1,017,D2/P017*
X132468750Y45402500D03*
G04 #@! TO.N,N70*
G04 #@! TO.P,U1,029,D20/P029*
X117228750Y42862500D03*
G04 #@! TO.N,N69*
G04 #@! TO.P,U1,002,D19/P002*
X117228750Y40322500D03*
G04 #@! TO.N,N63*
G04 #@! TO.P,U1,106,D9/P106*
X132468750Y27622500D03*
G04 #@! TO.N,N74*
G04 #@! TO.P,U1,EXT_VCC,EXT_VCC*
X117228750Y47942500D03*
G04 #@! TO.N,N57*
G04 #@! TO.P,U1,GND_1,GND*
X117228750Y53022500D03*
G04 #@! TO.N,N64*
G04 #@! TO.P,U1,009,D10/P009*
X117228750Y27622500D03*
G04 #@! TO.N,N66*
G04 #@! TO.P,U1,113,D15/P113*
X117228750Y35242500D03*
G04 #@! TO.N,N57*
G04 #@! TO.P,U1,GND_2,GND*
X132468750Y47942500D03*
D10*
G04 #@! TO.N,N30*
G04 #@! TO.C,S213*
G04 #@! TO.P,S213,1,1*
X112098750Y7888750D03*
G04 #@! TO.N,C5*
G04 #@! TO.P,S213,2,2*
X101498750Y5688750D03*
D19*
G04 #@! TO.N,N57*
G04 #@! TO.C,JP16*
G04 #@! TO.P,JP16,1,1*
X118968750Y53022500D03*
G04 #@! TO.N,GND*
G04 #@! TO.P,JP16,2,2*
X120568750Y53022500D03*
D12*
G04 #@! TD.P*
G04 #@! TO.N,*
X119718750Y53022500D02*
X120218750Y53647500D01*
X120218750Y53647500D01*
X120368750Y53647500D01*
X120368750Y52397500D01*
X120218750Y52397500D01*
X120218750Y52397500D01*
X119718750Y53022500D01*
D13*
G04 #@! TA.AperFunction,Conductor*
G36*
X119718750Y53022500D02*
X120218750Y53647500D01*
X120218750Y53647500D01*
X120368750Y53647500D01*
X120368750Y52397500D01*
X120218750Y52397500D01*
X120218750Y52397500D01*
X119718750Y53022500D01*
G37*
D12*
G04 #@! TD.AperFunction*
X119168750Y53647500D02*
X119818750Y53647500D01*
X119318750Y53022500D01*
X119818750Y52397500D01*
X119168750Y52397500D01*
X119168750Y53647500D01*
D13*
G04 #@! TA.AperFunction,Conductor*
G36*
X119168750Y53647500D02*
X119818750Y53647500D01*
X119318750Y53022500D01*
X119818750Y52397500D01*
X119168750Y52397500D01*
X119168750Y53647500D01*
G37*
D12*
G04 #@! TD.AperFunction*
X120793750Y53647500D02*
G02*
X120793750Y52397500I-625000J-625000D01*
G01*
X120768750Y52397500D01*
X120768750Y53647500D01*
X120793750Y53647500D01*
D13*
G04 #@! TA.AperFunction,Conductor*
G36*
X120793750Y53647500D02*
G02*
X120793750Y52397500I-625000J-625000D01*
G01*
X120768750Y52397500D01*
X120768750Y53647500D01*
X120793750Y53647500D01*
G37*
D12*
G04 #@! TD.AperFunction*
X118743750Y53647500D02*
G03*
X118743750Y52397500I625000J-625000D01*
G01*
X118768750Y52397500D01*
X118768750Y53647500D01*
X118743750Y53647500D01*
D13*
G04 #@! TA.AperFunction,Conductor*
G36*
X118743750Y53647500D02*
G03*
X118743750Y52397500I625000J-625000D01*
G01*
X118768750Y52397500D01*
X118768750Y53647500D01*
X118743750Y53647500D01*
G37*
D10*
G04 #@! TD.AperFunction*
G04 #@! TO.N,N32*
G04 #@! TO.C,S220*
G04 #@! TO.P,S220,1,1*
X93048750Y67420000D03*
G04 #@! TO.N,C4*
G04 #@! TO.P,S220,2,2*
X82448750Y65220000D03*
G04 #@! TO.N,N35*
G04 #@! TO.C,S221*
G04 #@! TO.P,S221,1,1*
X93048750Y48370000D03*
G04 #@! TO.N,C4*
G04 #@! TO.P,S221,2,2*
X82448750Y46170000D03*
G04 #@! TO.N,N45*
G04 #@! TO.C,S231*
G04 #@! TO.P,S231,1,1*
X73998750Y50751250D03*
G04 #@! TO.N,C3*
G04 #@! TO.P,S231,2,2*
X63398750Y48551250D03*
D21*
G04 #@! TO.N,GND*
G04 #@! TO.C,S3*
G04 #@! TO.P,S3,1,1*
X124221875Y64009375D03*
G04 #@! TO.N,N72*
G04 #@! TO.P,S3,2,2*
X124221875Y60609375D03*
D19*
G04 #@! TO.N,N60*
G04 #@! TO.C,JP3*
G04 #@! TO.P,JP3,1,1*
X130728750Y42862500D03*
G04 #@! TO.N,SCK*
G04 #@! TO.P,JP3,2,2*
X129128750Y42862500D03*
D12*
G04 #@! TD.P*
G04 #@! TO.N,*
X129978750Y42862500D02*
X129478750Y42237500D01*
X129478750Y42237500D01*
X129328750Y42237500D01*
X129328750Y43487500D01*
X129478750Y43487500D01*
X129478750Y43487500D01*
X129978750Y42862500D01*
D13*
G04 #@! TA.AperFunction,Conductor*
G36*
X129978750Y42862500D02*
X129478750Y42237500D01*
X129478750Y42237500D01*
X129328750Y42237500D01*
X129328750Y43487500D01*
X129478750Y43487500D01*
X129478750Y43487500D01*
X129978750Y42862500D01*
G37*
D12*
G04 #@! TD.AperFunction*
X130528750Y42237500D02*
X129878750Y42237500D01*
X130378750Y42862500D01*
X129878750Y43487500D01*
X130528750Y43487500D01*
X130528750Y42237500D01*
D13*
G04 #@! TA.AperFunction,Conductor*
G36*
X130528750Y42237500D02*
X129878750Y42237500D01*
X130378750Y42862500D01*
X129878750Y43487500D01*
X130528750Y43487500D01*
X130528750Y42237500D01*
G37*
D12*
G04 #@! TD.AperFunction*
X128903750Y42237500D02*
G02*
X128903750Y43487500I625000J625000D01*
G01*
X128928750Y43487500D01*
X128928750Y42237500D01*
X128903750Y42237500D01*
D13*
G04 #@! TA.AperFunction,Conductor*
G36*
X128903750Y42237500D02*
G02*
X128903750Y43487500I625000J625000D01*
G01*
X128928750Y43487500D01*
X128928750Y42237500D01*
X128903750Y42237500D01*
G37*
D12*
G04 #@! TD.AperFunction*
X130953750Y42237500D02*
G03*
X130953750Y43487500I-625000J625000D01*
G01*
X130928750Y43487500D01*
X130928750Y42237500D01*
X130953750Y42237500D01*
D13*
G04 #@! TA.AperFunction,Conductor*
G36*
X130953750Y42237500D02*
G03*
X130953750Y43487500I-625000J625000D01*
G01*
X130928750Y43487500D01*
X130928750Y42237500D01*
X130953750Y42237500D01*
G37*
D19*
G04 #@! TD.AperFunction*
G04 #@! TO.N,N70*
G04 #@! TO.C,JP13*
G04 #@! TO.P,JP13,1,1*
X118968750Y42862500D03*
G04 #@! TO.N,C5*
G04 #@! TO.P,JP13,2,2*
X120568750Y42862500D03*
D12*
G04 #@! TD.P*
G04 #@! TO.N,*
X119718750Y42862500D02*
X120218750Y43487500D01*
X120218750Y43487500D01*
X120368750Y43487500D01*
X120368750Y42237500D01*
X120218750Y42237500D01*
X120218750Y42237500D01*
X119718750Y42862500D01*
D13*
G04 #@! TA.AperFunction,Conductor*
G36*
X119718750Y42862500D02*
X120218750Y43487500D01*
X120218750Y43487500D01*
X120368750Y43487500D01*
X120368750Y42237500D01*
X120218750Y42237500D01*
X120218750Y42237500D01*
X119718750Y42862500D01*
G37*
D12*
G04 #@! TD.AperFunction*
X119168750Y43487500D02*
X119818750Y43487500D01*
X119318750Y42862500D01*
X119818750Y42237500D01*
X119168750Y42237500D01*
X119168750Y43487500D01*
D13*
G04 #@! TA.AperFunction,Conductor*
G36*
X119168750Y43487500D02*
X119818750Y43487500D01*
X119318750Y42862500D01*
X119818750Y42237500D01*
X119168750Y42237500D01*
X119168750Y43487500D01*
G37*
D12*
G04 #@! TD.AperFunction*
X120793750Y43487500D02*
G02*
X120793750Y42237500I-625000J-625000D01*
G01*
X120768750Y42237500D01*
X120768750Y43487500D01*
X120793750Y43487500D01*
D13*
G04 #@! TA.AperFunction,Conductor*
G36*
X120793750Y43487500D02*
G02*
X120793750Y42237500I-625000J-625000D01*
G01*
X120768750Y42237500D01*
X120768750Y43487500D01*
X120793750Y43487500D01*
G37*
D12*
G04 #@! TD.AperFunction*
X118743750Y43487500D02*
G03*
X118743750Y42237500I625000J-625000D01*
G01*
X118768750Y42237500D01*
X118768750Y43487500D01*
X118743750Y43487500D01*
D13*
G04 #@! TA.AperFunction,Conductor*
G36*
X118743750Y43487500D02*
G03*
X118743750Y42237500I625000J-625000D01*
G01*
X118768750Y42237500D01*
X118768750Y43487500D01*
X118743750Y43487500D01*
G37*
D16*
G04 #@! TD.AperFunction*
G04 #@! TO.N,N20*
G04 #@! TO.C,D142*
G04 #@! TO.P,D142,A,A*
X83373750Y38100000D03*
G04 #@! TO.N,R2*
G04 #@! TO.P,D142,C,C*
X87123750Y38100000D03*
D19*
G04 #@! TO.N,N68*
G04 #@! TO.C,JP11*
G04 #@! TO.P,JP11,1,1*
X118968750Y37782500D03*
G04 #@! TO.N,C1*
G04 #@! TO.P,JP11,2,2*
X120568750Y37782500D03*
D12*
G04 #@! TD.P*
G04 #@! TO.N,*
X119718750Y37782500D02*
X120218750Y38407500D01*
X120218750Y38407500D01*
X120368750Y38407500D01*
X120368750Y37157500D01*
X120218750Y37157500D01*
X120218750Y37157500D01*
X119718750Y37782500D01*
D13*
G04 #@! TA.AperFunction,Conductor*
G36*
X119718750Y37782500D02*
X120218750Y38407500D01*
X120218750Y38407500D01*
X120368750Y38407500D01*
X120368750Y37157500D01*
X120218750Y37157500D01*
X120218750Y37157500D01*
X119718750Y37782500D01*
G37*
D12*
G04 #@! TD.AperFunction*
X119168750Y38407500D02*
X119818750Y38407500D01*
X119318750Y37782500D01*
X119818750Y37157500D01*
X119168750Y37157500D01*
X119168750Y38407500D01*
D13*
G04 #@! TA.AperFunction,Conductor*
G36*
X119168750Y38407500D02*
X119818750Y38407500D01*
X119318750Y37782500D01*
X119818750Y37157500D01*
X119168750Y37157500D01*
X119168750Y38407500D01*
G37*
D12*
G04 #@! TD.AperFunction*
X120793750Y38407500D02*
G02*
X120793750Y37157500I-625000J-625000D01*
G01*
X120768750Y37157500D01*
X120768750Y38407500D01*
X120793750Y38407500D01*
D13*
G04 #@! TA.AperFunction,Conductor*
G36*
X120793750Y38407500D02*
G02*
X120793750Y37157500I-625000J-625000D01*
G01*
X120768750Y37157500D01*
X120768750Y38407500D01*
X120793750Y38407500D01*
G37*
D12*
G04 #@! TD.AperFunction*
X118743750Y38407500D02*
G03*
X118743750Y37157500I625000J-625000D01*
G01*
X118768750Y37157500D01*
X118768750Y38407500D01*
X118743750Y38407500D01*
D13*
G04 #@! TA.AperFunction,Conductor*
G36*
X118743750Y38407500D02*
G03*
X118743750Y37157500I625000J-625000D01*
G01*
X118768750Y37157500D01*
X118768750Y38407500D01*
X118743750Y38407500D01*
G37*
D16*
G04 #@! TD.AperFunction*
G04 #@! TO.N,N14*
G04 #@! TO.C,D103*
G04 #@! TO.P,D103,A,A*
X7173750Y14287500D03*
G04 #@! TO.N,R3*
G04 #@! TO.P,D103,C,C*
X10923750Y14287500D03*
G04 #@! TO.N,N15*
G04 #@! TO.C,D133*
G04 #@! TO.P,D133,A,A*
X64323750Y21431250D03*
G04 #@! TO.N,R3*
G04 #@! TO.P,D133,C,C*
X68073750Y21431250D03*
D19*
G04 #@! TO.N,N57*
G04 #@! TO.C,JP52*
G04 #@! TO.P,JP52,1,1*
X130728750Y47942500D03*
G04 #@! TO.N,GND*
G04 #@! TO.P,JP52,2,2*
X129128750Y47942500D03*
D12*
G04 #@! TD.P*
G04 #@! TO.N,*
X129978750Y47942500D02*
X129478750Y47317500D01*
X129478750Y47317500D01*
X129328750Y47317500D01*
X129328750Y48567500D01*
X129478750Y48567500D01*
X129478750Y48567500D01*
X129978750Y47942500D01*
D13*
G04 #@! TA.AperFunction,Conductor*
G36*
X129978750Y47942500D02*
X129478750Y47317500D01*
X129478750Y47317500D01*
X129328750Y47317500D01*
X129328750Y48567500D01*
X129478750Y48567500D01*
X129478750Y48567500D01*
X129978750Y47942500D01*
G37*
D12*
G04 #@! TD.AperFunction*
X130528750Y47317500D02*
X129878750Y47317500D01*
X130378750Y47942500D01*
X129878750Y48567500D01*
X130528750Y48567500D01*
X130528750Y47317500D01*
D13*
G04 #@! TA.AperFunction,Conductor*
G36*
X130528750Y47317500D02*
X129878750Y47317500D01*
X130378750Y47942500D01*
X129878750Y48567500D01*
X130528750Y48567500D01*
X130528750Y47317500D01*
G37*
D12*
G04 #@! TD.AperFunction*
X128903750Y47317500D02*
G02*
X128903750Y48567500I625000J625000D01*
G01*
X128928750Y48567500D01*
X128928750Y47317500D01*
X128903750Y47317500D01*
D13*
G04 #@! TA.AperFunction,Conductor*
G36*
X128903750Y47317500D02*
G02*
X128903750Y48567500I625000J625000D01*
G01*
X128928750Y48567500D01*
X128928750Y47317500D01*
X128903750Y47317500D01*
G37*
D12*
G04 #@! TD.AperFunction*
X130953750Y47317500D02*
G03*
X130953750Y48567500I-625000J625000D01*
G01*
X130928750Y48567500D01*
X130928750Y47317500D01*
X130953750Y47317500D01*
D13*
G04 #@! TA.AperFunction,Conductor*
G36*
X130953750Y47317500D02*
G03*
X130953750Y48567500I-625000J625000D01*
G01*
X130928750Y48567500D01*
X130928750Y47317500D01*
X130953750Y47317500D01*
G37*
D16*
G04 #@! TD.AperFunction*
G04 #@! TO.N,N19*
G04 #@! TO.C,D143*
G04 #@! TO.P,D143,A,A*
X83373750Y19050000D03*
G04 #@! TO.N,R3*
G04 #@! TO.P,D143,C,C*
X87123750Y19050000D03*
D22*
G04 #@! TO.N,N34*
G04 #@! TO.C,S1*
G04 #@! TO.P,S1,1,B*
X127903496Y64454089D03*
G04 #@! TO.N,N104*
G04 #@! TO.P,S1,2,COM*
X126926791Y67290645D03*
D23*
G04 #@! TO.N,N/C*
G04 #@! TO.P,S1,CASE_3*
X128677372Y70960518D03*
G04 #@! TO.P,S1,CASE_2*
X131054019Y64058232D03*
G04 #@! TO.P,S1,CASE_1*
X128973878Y63341982D03*
D22*
G04 #@! TO.P,S1,3,A*
X126438439Y68708923D03*
D23*
G04 #@! TO.P,S1,CASE_4*
X126597231Y70244268D03*
D10*
G04 #@! TO.N,N50*
G04 #@! TO.C,S242*
G04 #@! TO.P,S242,1,1*
X54948750Y29320000D03*
G04 #@! TO.N,C2*
G04 #@! TO.P,S242,2,2*
X44348750Y27120000D03*
D19*
G04 #@! TO.N,N74*
G04 #@! TO.C,JP18*
G04 #@! TO.P,JP18,1,1*
X118968750Y47942500D03*
G04 #@! TO.N,VCC*
G04 #@! TO.P,JP18,2,2*
X120568750Y47942500D03*
D12*
G04 #@! TD.P*
G04 #@! TO.N,*
X119718750Y47942500D02*
X120218750Y48567500D01*
X120218750Y48567500D01*
X120368750Y48567500D01*
X120368750Y47317500D01*
X120218750Y47317500D01*
X120218750Y47317500D01*
X119718750Y47942500D01*
D13*
G04 #@! TA.AperFunction,Conductor*
G36*
X119718750Y47942500D02*
X120218750Y48567500D01*
X120218750Y48567500D01*
X120368750Y48567500D01*
X120368750Y47317500D01*
X120218750Y47317500D01*
X120218750Y47317500D01*
X119718750Y47942500D01*
G37*
D12*
G04 #@! TD.AperFunction*
X119168750Y48567500D02*
X119818750Y48567500D01*
X119318750Y47942500D01*
X119818750Y47317500D01*
X119168750Y47317500D01*
X119168750Y48567500D01*
D13*
G04 #@! TA.AperFunction,Conductor*
G36*
X119168750Y48567500D02*
X119818750Y48567500D01*
X119318750Y47942500D01*
X119818750Y47317500D01*
X119168750Y47317500D01*
X119168750Y48567500D01*
G37*
D12*
G04 #@! TD.AperFunction*
X120793750Y48567500D02*
G02*
X120793750Y47317500I-625000J-625000D01*
G01*
X120768750Y47317500D01*
X120768750Y48567500D01*
X120793750Y48567500D01*
D13*
G04 #@! TA.AperFunction,Conductor*
G36*
X120793750Y48567500D02*
G02*
X120793750Y47317500I-625000J-625000D01*
G01*
X120768750Y47317500D01*
X120768750Y48567500D01*
X120793750Y48567500D01*
G37*
D12*
G04 #@! TD.AperFunction*
X118743750Y48567500D02*
G03*
X118743750Y47317500I625000J-625000D01*
G01*
X118768750Y47317500D01*
X118768750Y48567500D01*
X118743750Y48567500D01*
D13*
G04 #@! TA.AperFunction,Conductor*
G36*
X118743750Y48567500D02*
G03*
X118743750Y47317500I625000J-625000D01*
G01*
X118768750Y47317500D01*
X118768750Y48567500D01*
X118743750Y48567500D01*
G37*
D10*
G04 #@! TD.AperFunction*
G04 #@! TO.N,N41*
G04 #@! TO.C,S233*
G04 #@! TO.P,S233,1,1*
X73998750Y12651250D03*
G04 #@! TO.N,C3*
G04 #@! TO.P,S233,2,2*
X63398750Y10451250D03*
D16*
G04 #@! TO.N,N12*
G04 #@! TO.C,D112*
G04 #@! TO.P,D112,A,A*
X26223750Y33337500D03*
G04 #@! TO.N,R2*
G04 #@! TO.P,D112,C,C*
X29973750Y33337500D03*
G04 #@! TO.N,N24*
G04 #@! TO.C,D152*
G04 #@! TO.P,D152,A,A*
X102423750Y35718750D03*
G04 #@! TO.N,R2*
G04 #@! TO.P,D152,C,C*
X106173750Y35718750D03*
D19*
G04 #@! TO.N,N69*
G04 #@! TO.C,JP12*
G04 #@! TO.P,JP12,1,1*
X118968750Y40322500D03*
G04 #@! TO.N,C4*
G04 #@! TO.P,JP12,2,2*
X120568750Y40322500D03*
D12*
G04 #@! TD.P*
G04 #@! TO.N,*
X119718750Y40322500D02*
X120218750Y40947500D01*
X120218750Y40947500D01*
X120368750Y40947500D01*
X120368750Y39697500D01*
X120218750Y39697500D01*
X120218750Y39697500D01*
X119718750Y40322500D01*
D13*
G04 #@! TA.AperFunction,Conductor*
G36*
X119718750Y40322500D02*
X120218750Y40947500D01*
X120218750Y40947500D01*
X120368750Y40947500D01*
X120368750Y39697500D01*
X120218750Y39697500D01*
X120218750Y39697500D01*
X119718750Y40322500D01*
G37*
D12*
G04 #@! TD.AperFunction*
X119168750Y40947500D02*
X119818750Y40947500D01*
X119318750Y40322500D01*
X119818750Y39697500D01*
X119168750Y39697500D01*
X119168750Y40947500D01*
D13*
G04 #@! TA.AperFunction,Conductor*
G36*
X119168750Y40947500D02*
X119818750Y40947500D01*
X119318750Y40322500D01*
X119818750Y39697500D01*
X119168750Y39697500D01*
X119168750Y40947500D01*
G37*
D12*
G04 #@! TD.AperFunction*
X120793750Y40947500D02*
G02*
X120793750Y39697500I-625000J-625000D01*
G01*
X120768750Y39697500D01*
X120768750Y40947500D01*
X120793750Y40947500D01*
D13*
G04 #@! TA.AperFunction,Conductor*
G36*
X120793750Y40947500D02*
G02*
X120793750Y39697500I-625000J-625000D01*
G01*
X120768750Y39697500D01*
X120768750Y40947500D01*
X120793750Y40947500D01*
G37*
D12*
G04 #@! TD.AperFunction*
X118743750Y40947500D02*
G03*
X118743750Y39697500I625000J-625000D01*
G01*
X118768750Y39697500D01*
X118768750Y40947500D01*
X118743750Y40947500D01*
D13*
G04 #@! TA.AperFunction,Conductor*
G36*
X118743750Y40947500D02*
G03*
X118743750Y39697500I625000J-625000D01*
G01*
X118768750Y39697500D01*
X118768750Y40947500D01*
X118743750Y40947500D01*
G37*
D16*
G04 #@! TD.AperFunction*
G04 #@! TO.N,N16*
G04 #@! TO.C,D113*
G04 #@! TO.P,D113,A,A*
X26223750Y14287500D03*
G04 #@! TO.N,R3*
G04 #@! TO.P,D113,C,C*
X29973750Y14287500D03*
G04 #@! TO.N,N21*
G04 #@! TO.C,D150*
G04 #@! TO.P,D150,A,A*
X102423750Y73818750D03*
G04 #@! TO.N,R0*
G04 #@! TO.P,D150,C,C*
X106173750Y73818750D03*
D10*
G04 #@! TO.N,N28*
G04 #@! TO.C,S251*
G04 #@! TO.P,S251,1,1*
X35898750Y43607500D03*
G04 #@! TO.N,C1*
G04 #@! TO.P,S251,2,2*
X25298750Y41407500D03*
D16*
G04 #@! TO.N,N17*
G04 #@! TO.C,D140*
G04 #@! TO.P,D140,A,A*
X83373750Y76200000D03*
G04 #@! TO.N,R0*
G04 #@! TO.P,D140,C,C*
X87123750Y76200000D03*
D19*
G04 #@! TO.N,N65*
G04 #@! TO.C,JP8*
G04 #@! TO.P,JP8,1,1*
X118968750Y32702500D03*
G04 #@! TO.N,C2*
G04 #@! TO.P,JP8,2,2*
X120568750Y32702500D03*
D12*
G04 #@! TD.P*
G04 #@! TO.N,*
X119718750Y32702500D02*
X120218750Y33327500D01*
X120218750Y33327500D01*
X120368750Y33327500D01*
X120368750Y32077500D01*
X120218750Y32077500D01*
X120218750Y32077500D01*
X119718750Y32702500D01*
D13*
G04 #@! TA.AperFunction,Conductor*
G36*
X119718750Y32702500D02*
X120218750Y33327500D01*
X120218750Y33327500D01*
X120368750Y33327500D01*
X120368750Y32077500D01*
X120218750Y32077500D01*
X120218750Y32077500D01*
X119718750Y32702500D01*
G37*
D12*
G04 #@! TD.AperFunction*
X119168750Y33327500D02*
X119818750Y33327500D01*
X119318750Y32702500D01*
X119818750Y32077500D01*
X119168750Y32077500D01*
X119168750Y33327500D01*
D13*
G04 #@! TA.AperFunction,Conductor*
G36*
X119168750Y33327500D02*
X119818750Y33327500D01*
X119318750Y32702500D01*
X119818750Y32077500D01*
X119168750Y32077500D01*
X119168750Y33327500D01*
G37*
D12*
G04 #@! TD.AperFunction*
X120793750Y33327500D02*
G02*
X120793750Y32077500I-625000J-625000D01*
G01*
X120768750Y32077500D01*
X120768750Y33327500D01*
X120793750Y33327500D01*
D13*
G04 #@! TA.AperFunction,Conductor*
G36*
X120793750Y33327500D02*
G02*
X120793750Y32077500I-625000J-625000D01*
G01*
X120768750Y32077500D01*
X120768750Y33327500D01*
X120793750Y33327500D01*
G37*
D12*
G04 #@! TD.AperFunction*
X118743750Y33327500D02*
G03*
X118743750Y32077500I625000J-625000D01*
G01*
X118768750Y32077500D01*
X118768750Y33327500D01*
X118743750Y33327500D01*
D13*
G04 #@! TA.AperFunction,Conductor*
G36*
X118743750Y33327500D02*
G03*
X118743750Y32077500I625000J-625000D01*
G01*
X118768750Y32077500D01*
X118768750Y33327500D01*
X118743750Y33327500D01*
G37*
D16*
G04 #@! TD.AperFunction*
G04 #@! TO.N,N7*
G04 #@! TO.C,D131*
G04 #@! TO.P,D131,A,A*
X64323750Y59531250D03*
G04 #@! TO.N,R1*
G04 #@! TO.P,D131,C,C*
X68073750Y59531250D03*
G04 #@! TO.N,N9*
G04 #@! TO.C,D122*
G04 #@! TO.P,D122,A,A*
X45273750Y38100000D03*
G04 #@! TO.N,R2*
G04 #@! TO.P,D122,C,C*
X49023750Y38100000D03*
D10*
G04 #@! TO.N,N42*
G04 #@! TO.C,S230*
G04 #@! TO.P,S230,1,1*
X73998750Y69801250D03*
G04 #@! TO.N,C3*
G04 #@! TO.P,S230,2,2*
X63398750Y67601250D03*
D19*
G04 #@! TO.N,N64*
G04 #@! TO.C,JP7*
G04 #@! TO.P,JP7,1,1*
X118968750Y27622500D03*
G04 #@! TO.N,R3*
G04 #@! TO.P,JP7,2,2*
X120568750Y27622500D03*
D12*
G04 #@! TD.P*
G04 #@! TO.N,*
X119718750Y27622500D02*
X120218750Y28247500D01*
X120218750Y28247500D01*
X120368750Y28247500D01*
X120368750Y26997500D01*
X120218750Y26997500D01*
X120218750Y26997500D01*
X119718750Y27622500D01*
D13*
G04 #@! TA.AperFunction,Conductor*
G36*
X119718750Y27622500D02*
X120218750Y28247500D01*
X120218750Y28247500D01*
X120368750Y28247500D01*
X120368750Y26997500D01*
X120218750Y26997500D01*
X120218750Y26997500D01*
X119718750Y27622500D01*
G37*
D12*
G04 #@! TD.AperFunction*
X119168750Y28247500D02*
X119818750Y28247500D01*
X119318750Y27622500D01*
X119818750Y26997500D01*
X119168750Y26997500D01*
X119168750Y28247500D01*
D13*
G04 #@! TA.AperFunction,Conductor*
G36*
X119168750Y28247500D02*
X119818750Y28247500D01*
X119318750Y27622500D01*
X119818750Y26997500D01*
X119168750Y26997500D01*
X119168750Y28247500D01*
G37*
D12*
G04 #@! TD.AperFunction*
X120793750Y28247500D02*
G02*
X120793750Y26997500I-625000J-625000D01*
G01*
X120768750Y26997500D01*
X120768750Y28247500D01*
X120793750Y28247500D01*
D13*
G04 #@! TA.AperFunction,Conductor*
G36*
X120793750Y28247500D02*
G02*
X120793750Y26997500I-625000J-625000D01*
G01*
X120768750Y26997500D01*
X120768750Y28247500D01*
X120793750Y28247500D01*
G37*
D12*
G04 #@! TD.AperFunction*
X118743750Y28247500D02*
G03*
X118743750Y26997500I625000J-625000D01*
G01*
X118768750Y26997500D01*
X118768750Y28247500D01*
X118743750Y28247500D01*
D13*
G04 #@! TA.AperFunction,Conductor*
G36*
X118743750Y28247500D02*
G03*
X118743750Y26997500I625000J-625000D01*
G01*
X118768750Y26997500D01*
X118768750Y28247500D01*
X118743750Y28247500D01*
G37*
D16*
G04 #@! TD.AperFunction*
G04 #@! TO.N,N13*
G04 #@! TO.C,D123*
G04 #@! TO.P,D123,A,A*
X45273750Y19050000D03*
G04 #@! TO.N,R3*
G04 #@! TO.P,D123,C,C*
X49023750Y19050000D03*
D10*
G04 #@! TO.N,N38*
G04 #@! TO.C,S250*
G04 #@! TO.P,S250,1,1*
X35898750Y62657500D03*
G04 #@! TO.N,C1*
G04 #@! TO.P,S250,2,2*
X25298750Y60457500D03*
G04 #@! TO.N,N47*
G04 #@! TO.C,S222*
G04 #@! TO.P,S222,1,1*
X93048750Y29320000D03*
G04 #@! TO.N,C4*
G04 #@! TO.P,S222,2,2*
X82448750Y27120000D03*
G04 #@! TO.N,N37*
G04 #@! TO.C,S212*
G04 #@! TO.P,S212,1,1*
X112098750Y26938750D03*
G04 #@! TO.N,C5*
G04 #@! TO.P,S212,2,2*
X101498750Y24738750D03*
D16*
G04 #@! TO.N,N4*
G04 #@! TO.C,D130*
G04 #@! TO.P,D130,A,A*
X64323750Y78581250D03*
G04 #@! TO.N,R0*
G04 #@! TO.P,D130,C,C*
X68073750Y78581250D03*
D10*
G04 #@! TO.N,N31*
G04 #@! TO.C,S252*
G04 #@! TO.P,S252,1,1*
X35898750Y24557500D03*
G04 #@! TO.N,C1*
G04 #@! TO.P,S252,2,2*
X25298750Y22357500D03*
D11*
G04 #@! TO.N,N44*
G04 #@! TO.C,JP47*
G04 #@! TO.P,JP47,1,1*
X120094375Y62156875D03*
G04 #@! TO.N,N104*
G04 #@! TO.P,JP47,2,2*
X120094375Y60556875D03*
D12*
G04 #@! TD.P*
G04 #@! TO.N,*
X120094375Y61406875D02*
X120719375Y60906875D01*
X120719375Y60906875D01*
X120719375Y60756875D01*
X119469375Y60756875D01*
X119469375Y60906875D01*
X119469375Y60906875D01*
X120094375Y61406875D01*
D13*
G04 #@! TA.AperFunction,Conductor*
G36*
X120094375Y61406875D02*
X120719375Y60906875D01*
X120719375Y60906875D01*
X120719375Y60756875D01*
X119469375Y60756875D01*
X119469375Y60906875D01*
X119469375Y60906875D01*
X120094375Y61406875D01*
G37*
D12*
G04 #@! TD.AperFunction*
X120719375Y61956875D02*
X120719375Y61306875D01*
X120094375Y61806875D01*
X119469375Y61306875D01*
X119469375Y61956875D01*
X120719375Y61956875D01*
D13*
G04 #@! TA.AperFunction,Conductor*
G36*
X120719375Y61956875D02*
X120719375Y61306875D01*
X120094375Y61806875D01*
X119469375Y61306875D01*
X119469375Y61956875D01*
X120719375Y61956875D01*
G37*
D12*
G04 #@! TD.AperFunction*
X120719375Y60331875D02*
G02*
X119469375Y60331875I-625000J625000D01*
G01*
X119469375Y60356875D01*
X120719375Y60356875D01*
X120719375Y60331875D01*
D13*
G04 #@! TA.AperFunction,Conductor*
G36*
X120719375Y60331875D02*
G02*
X119469375Y60331875I-625000J625000D01*
G01*
X119469375Y60356875D01*
X120719375Y60356875D01*
X120719375Y60331875D01*
G37*
D12*
G04 #@! TD.AperFunction*
X120719375Y62381875D02*
G03*
X119469375Y62381875I-625000J-625000D01*
G01*
X119469375Y62356875D01*
X120719375Y62356875D01*
X120719375Y62381875D01*
D13*
G04 #@! TA.AperFunction,Conductor*
G36*
X120719375Y62381875D02*
G03*
X119469375Y62381875I-625000J-625000D01*
G01*
X119469375Y62356875D01*
X120719375Y62356875D01*
X120719375Y62381875D01*
G37*
D17*
G04 #@! TD.AperFunction*
G04 #@! TO.N,N75*
G04 #@! TO.C,DS1*
G04 #@! TO.P,DS1,VCC,VCC*
X124848750Y22542500D03*
G04 #@! TO.N,N76*
G04 #@! TO.P,DS1,GND,GND*
X127388750Y22542500D03*
G04 #@! TO.N,N80*
G04 #@! TO.P,DS1,CS,CS*
X129928750Y22542500D03*
G04 #@! TO.N,N77*
G04 #@! TO.P,DS1,SCK,SCK*
X122308750Y22542500D03*
D18*
G04 #@! TO.N,N79*
G04 #@! TO.P,DS1,MOSI,MOSI*
X119768750Y22542500D03*
D16*
G04 #@! TO.N,N11*
G04 #@! TO.C,D132*
G04 #@! TO.P,D132,A,A*
X64323750Y40481250D03*
G04 #@! TO.N,R2*
G04 #@! TO.P,D132,C,C*
X68073750Y40481250D03*
G04 #@! TO.N,N22*
G04 #@! TO.C,D151*
G04 #@! TO.P,D151,A,A*
X102423750Y54768750D03*
G04 #@! TO.N,R1*
G04 #@! TO.P,D151,C,C*
X106173750Y54768750D03*
D11*
G04 #@! TO.N,N77*
G04 #@! TO.C,JP22*
G04 #@! TO.P,JP22,1,1*
X122308750Y24282500D03*
G04 #@! TO.N,SCK*
G04 #@! TO.P,JP22,2,2*
X122308750Y25882500D03*
D12*
G04 #@! TD.P*
G04 #@! TO.N,*
X122308750Y25032500D02*
X121683750Y25532500D01*
X121683750Y25532500D01*
X121683750Y25682500D01*
X122933750Y25682500D01*
X122933750Y25532500D01*
X122933750Y25532500D01*
X122308750Y25032500D01*
D13*
G04 #@! TA.AperFunction,Conductor*
G36*
X122308750Y25032500D02*
X121683750Y25532500D01*
X121683750Y25532500D01*
X121683750Y25682500D01*
X122933750Y25682500D01*
X122933750Y25532500D01*
X122933750Y25532500D01*
X122308750Y25032500D01*
G37*
D12*
G04 #@! TD.AperFunction*
X121683750Y24482500D02*
X121683750Y25132500D01*
X122308750Y24632500D01*
X122933750Y25132500D01*
X122933750Y24482500D01*
X121683750Y24482500D01*
D13*
G04 #@! TA.AperFunction,Conductor*
G36*
X121683750Y24482500D02*
X121683750Y25132500D01*
X122308750Y24632500D01*
X122933750Y25132500D01*
X122933750Y24482500D01*
X121683750Y24482500D01*
G37*
D12*
G04 #@! TD.AperFunction*
X121683750Y26107500D02*
G02*
X122933750Y26107500I625000J-625000D01*
G01*
X122933750Y26082500D01*
X121683750Y26082500D01*
X121683750Y26107500D01*
D13*
G04 #@! TA.AperFunction,Conductor*
G36*
X121683750Y26107500D02*
G02*
X122933750Y26107500I625000J-625000D01*
G01*
X122933750Y26082500D01*
X121683750Y26082500D01*
X121683750Y26107500D01*
G37*
D12*
G04 #@! TD.AperFunction*
X121683750Y24057500D02*
G03*
X122933750Y24057500I625000J625000D01*
G01*
X122933750Y24082500D01*
X121683750Y24082500D01*
X121683750Y24057500D01*
D13*
G04 #@! TA.AperFunction,Conductor*
G36*
X121683750Y24057500D02*
G03*
X122933750Y24057500I625000J625000D01*
G01*
X122933750Y24082500D01*
X121683750Y24082500D01*
X121683750Y24057500D01*
G37*
D19*
G04 #@! TD.AperFunction*
G04 #@! TO.N,N62*
G04 #@! TO.C,JP5*
G04 #@! TO.P,JP5,1,1*
X130728750Y30162500D03*
G04 #@! TO.N,R1*
G04 #@! TO.P,JP5,2,2*
X129128750Y30162500D03*
D12*
G04 #@! TD.P*
G04 #@! TO.N,*
X129978750Y30162500D02*
X129478750Y29537500D01*
X129478750Y29537500D01*
X129328750Y29537500D01*
X129328750Y30787500D01*
X129478750Y30787500D01*
X129478750Y30787500D01*
X129978750Y30162500D01*
D13*
G04 #@! TA.AperFunction,Conductor*
G36*
X129978750Y30162500D02*
X129478750Y29537500D01*
X129478750Y29537500D01*
X129328750Y29537500D01*
X129328750Y30787500D01*
X129478750Y30787500D01*
X129478750Y30787500D01*
X129978750Y30162500D01*
G37*
D12*
G04 #@! TD.AperFunction*
X130528750Y29537500D02*
X129878750Y29537500D01*
X130378750Y30162500D01*
X129878750Y30787500D01*
X130528750Y30787500D01*
X130528750Y29537500D01*
D13*
G04 #@! TA.AperFunction,Conductor*
G36*
X130528750Y29537500D02*
X129878750Y29537500D01*
X130378750Y30162500D01*
X129878750Y30787500D01*
X130528750Y30787500D01*
X130528750Y29537500D01*
G37*
D12*
G04 #@! TD.AperFunction*
X128903750Y29537500D02*
G02*
X128903750Y30787500I625000J625000D01*
G01*
X128928750Y30787500D01*
X128928750Y29537500D01*
X128903750Y29537500D01*
D13*
G04 #@! TA.AperFunction,Conductor*
G36*
X128903750Y29537500D02*
G02*
X128903750Y30787500I625000J625000D01*
G01*
X128928750Y30787500D01*
X128928750Y29537500D01*
X128903750Y29537500D01*
G37*
D12*
G04 #@! TD.AperFunction*
X130953750Y29537500D02*
G03*
X130953750Y30787500I-625000J625000D01*
G01*
X130928750Y30787500D01*
X130928750Y29537500D01*
X130953750Y29537500D01*
D13*
G04 #@! TA.AperFunction,Conductor*
G36*
X130953750Y29537500D02*
G03*
X130953750Y30787500I-625000J625000D01*
G01*
X130928750Y30787500D01*
X130928750Y29537500D01*
X130953750Y29537500D01*
G37*
D10*
G04 #@! TD.AperFunction*
G04 #@! TO.N,N25*
G04 #@! TO.C,S232*
G04 #@! TO.P,S232,1,1*
X73998750Y31701250D03*
G04 #@! TO.N,C3*
G04 #@! TO.P,S232,2,2*
X63398750Y29501250D03*
D20*
G04 #@! TO.N,N86*
G04 #@! TO.C,U2*
G04 #@! TO.P,U2,031,D21/P031*
X132468750Y45402500D03*
G04 #@! TO.N,N84*
G04 #@! TO.P,U2,115,D18/P115*
X132468750Y37782500D03*
G04 #@! TO.N,N101*
G04 #@! TO.P,U2,020,D3/P020*
X117228750Y42862500D03*
G04 #@! TO.N,N/C*
G04 #@! TO.P,U2,100,D6/P100*
X117228750Y35242500D03*
G04 #@! TO.N,N100*
G04 #@! TO.P,U2,104,D8/P104*
X117228750Y30162500D03*
G04 #@! TO.N,N78*
G04 #@! TO.P,U2,VBAT,VBAT*
X132468750Y55562500D03*
G04 #@! TO.N,N56*
G04 #@! TO.P,U2,111,D14/P111*
X132468750Y32702500D03*
G04 #@! TO.N,N102*
G04 #@! TO.P,U2,006,D1/P006/TXD*
X117228750Y55562500D03*
G04 #@! TO.N,N/C*
G04 #@! TO.P,U2,008,D0/P008/RXD*
X117228750Y53022500D03*
G04 #@! TO.N,N89*
G04 #@! TO.P,U2,RESET,RESET*
X132468750Y50482500D03*
G04 #@! TO.N,N/C*
G04 #@! TO.P,U2,022,D4/P022*
X117228750Y40322500D03*
G04 #@! TO.N,N43*
G04 #@! TO.P,U2,011,D7/P011*
X117228750Y32702500D03*
G04 #@! TO.N,N96*
G04 #@! TO.P,U2,010,D16/P010*
X132468750Y30162500D03*
G04 #@! TO.N,N81*
G04 #@! TO.P,U2,GND_3,GND*
X117228750Y50482500D03*
G04 #@! TO.N,N/C*
G04 #@! TO.P,U2,024,D5/P024*
X117228750Y37782500D03*
G04 #@! TO.N,N82*
G04 #@! TO.P,U2,017,D2/P017*
X117228750Y45402500D03*
G04 #@! TO.N,N85*
G04 #@! TO.P,U2,029,D20/P029*
X132468750Y42862500D03*
G04 #@! TO.N,N92*
G04 #@! TO.P,U2,002,D19/P002*
X132468750Y40322500D03*
G04 #@! TO.N,N88*
G04 #@! TO.P,U2,106,D9/P106*
X117228750Y27622500D03*
G04 #@! TO.N,N93*
G04 #@! TO.P,U2,EXT_VCC,EXT_VCC*
X132468750Y47942500D03*
G04 #@! TO.N,N81*
G04 #@! TO.P,U2,GND_1,GND*
X132468750Y53022500D03*
G04 #@! TO.N,N87*
G04 #@! TO.P,U2,009,D10/P009*
X132468750Y27622500D03*
G04 #@! TO.N,N83*
G04 #@! TO.P,U2,113,D15/P113*
X132468750Y35242500D03*
G04 #@! TO.N,N81*
G04 #@! TO.P,U2,GND_2,GND*
X117228750Y47942500D03*
D10*
G04 #@! TO.N,N29*
G04 #@! TO.C,S223*
G04 #@! TO.P,S223,1,1*
X93048750Y10270000D03*
G04 #@! TO.N,C4*
G04 #@! TO.P,S223,2,2*
X82448750Y8070000D03*
D19*
G04 #@! TO.N,N57*
G04 #@! TO.C,JP51*
G04 #@! TO.P,JP51,1,1*
X130728750Y50482500D03*
G04 #@! TO.N,GND*
G04 #@! TO.P,JP51,2,2*
X129128750Y50482500D03*
D12*
G04 #@! TD.P*
G04 #@! TO.N,*
X129978750Y50482500D02*
X129478750Y49857500D01*
X129478750Y49857500D01*
X129328750Y49857500D01*
X129328750Y51107500D01*
X129478750Y51107500D01*
X129478750Y51107500D01*
X129978750Y50482500D01*
D13*
G04 #@! TA.AperFunction,Conductor*
G36*
X129978750Y50482500D02*
X129478750Y49857500D01*
X129478750Y49857500D01*
X129328750Y49857500D01*
X129328750Y51107500D01*
X129478750Y51107500D01*
X129478750Y51107500D01*
X129978750Y50482500D01*
G37*
D12*
G04 #@! TD.AperFunction*
X130528750Y49857500D02*
X129878750Y49857500D01*
X130378750Y50482500D01*
X129878750Y51107500D01*
X130528750Y51107500D01*
X130528750Y49857500D01*
D13*
G04 #@! TA.AperFunction,Conductor*
G36*
X130528750Y49857500D02*
X129878750Y49857500D01*
X130378750Y50482500D01*
X129878750Y51107500D01*
X130528750Y51107500D01*
X130528750Y49857500D01*
G37*
D12*
G04 #@! TD.AperFunction*
X128903750Y49857500D02*
G02*
X128903750Y51107500I625000J625000D01*
G01*
X128928750Y51107500D01*
X128928750Y49857500D01*
X128903750Y49857500D01*
D13*
G04 #@! TA.AperFunction,Conductor*
G36*
X128903750Y49857500D02*
G02*
X128903750Y51107500I625000J625000D01*
G01*
X128928750Y51107500D01*
X128928750Y49857500D01*
X128903750Y49857500D01*
G37*
D12*
G04 #@! TD.AperFunction*
X130953750Y49857500D02*
G03*
X130953750Y51107500I-625000J625000D01*
G01*
X130928750Y51107500D01*
X130928750Y49857500D01*
X130953750Y49857500D01*
D13*
G04 #@! TA.AperFunction,Conductor*
G36*
X130953750Y49857500D02*
G03*
X130953750Y51107500I-625000J625000D01*
G01*
X130928750Y51107500D01*
X130928750Y49857500D01*
X130953750Y49857500D01*
G37*
D16*
G04 #@! TD.AperFunction*
G04 #@! TO.N,N2*
G04 #@! TO.C,D110*
G04 #@! TO.P,D110,A,A*
X26223750Y71437500D03*
G04 #@! TO.N,R0*
G04 #@! TO.P,D110,C,C*
X29973750Y71437500D03*
G04 #@! TO.N,N5*
G04 #@! TO.C,D121*
G04 #@! TO.P,D121,A,A*
X45273750Y57150000D03*
G04 #@! TO.N,R1*
G04 #@! TO.P,D121,C,C*
X49023750Y57150000D03*
D11*
G04 #@! TO.N,N75*
G04 #@! TO.C,JP19*
G04 #@! TO.P,JP19,1,1*
X124848750Y24282500D03*
G04 #@! TO.N,VCC*
G04 #@! TO.P,JP19,2,2*
X124848750Y25882500D03*
D12*
G04 #@! TD.P*
G04 #@! TO.N,*
X124848750Y25032500D02*
X124223750Y25532500D01*
X124223750Y25532500D01*
X124223750Y25682500D01*
X125473750Y25682500D01*
X125473750Y25532500D01*
X125473750Y25532500D01*
X124848750Y25032500D01*
D13*
G04 #@! TA.AperFunction,Conductor*
G36*
X124848750Y25032500D02*
X124223750Y25532500D01*
X124223750Y25532500D01*
X124223750Y25682500D01*
X125473750Y25682500D01*
X125473750Y25532500D01*
X125473750Y25532500D01*
X124848750Y25032500D01*
G37*
D12*
G04 #@! TD.AperFunction*
X124223750Y24482500D02*
X124223750Y25132500D01*
X124848750Y24632500D01*
X125473750Y25132500D01*
X125473750Y24482500D01*
X124223750Y24482500D01*
D13*
G04 #@! TA.AperFunction,Conductor*
G36*
X124223750Y24482500D02*
X124223750Y25132500D01*
X124848750Y24632500D01*
X125473750Y25132500D01*
X125473750Y24482500D01*
X124223750Y24482500D01*
G37*
D12*
G04 #@! TD.AperFunction*
X124223750Y26107500D02*
G02*
X125473750Y26107500I625000J-625000D01*
G01*
X125473750Y26082500D01*
X124223750Y26082500D01*
X124223750Y26107500D01*
D13*
G04 #@! TA.AperFunction,Conductor*
G36*
X124223750Y26107500D02*
G02*
X125473750Y26107500I625000J-625000D01*
G01*
X125473750Y26082500D01*
X124223750Y26082500D01*
X124223750Y26107500D01*
G37*
D12*
G04 #@! TD.AperFunction*
X124223750Y24057500D02*
G03*
X125473750Y24057500I625000J625000D01*
G01*
X125473750Y24082500D01*
X124223750Y24082500D01*
X124223750Y24057500D01*
D13*
G04 #@! TA.AperFunction,Conductor*
G36*
X124223750Y24057500D02*
G03*
X125473750Y24057500I625000J625000D01*
G01*
X125473750Y24082500D01*
X124223750Y24082500D01*
X124223750Y24057500D01*
G37*
D16*
G04 #@! TD.AperFunction*
G04 #@! TO.N,N6*
G04 #@! TO.C,D101*
G04 #@! TO.P,D101,A,A*
X7173750Y52387500D03*
G04 #@! TO.N,R1*
G04 #@! TO.P,D101,C,C*
X10923750Y52387500D03*
D11*
G04 #@! TO.N,N76*
G04 #@! TO.C,JP20*
G04 #@! TO.P,JP20,1,1*
X127388750Y24282500D03*
G04 #@! TO.N,GND*
G04 #@! TO.P,JP20,2,2*
X127388750Y25882500D03*
D12*
G04 #@! TD.P*
G04 #@! TO.N,*
X127388750Y25032500D02*
X126763750Y25532500D01*
X126763750Y25532500D01*
X126763750Y25682500D01*
X128013750Y25682500D01*
X128013750Y25532500D01*
X128013750Y25532500D01*
X127388750Y25032500D01*
D13*
G04 #@! TA.AperFunction,Conductor*
G36*
X127388750Y25032500D02*
X126763750Y25532500D01*
X126763750Y25532500D01*
X126763750Y25682500D01*
X128013750Y25682500D01*
X128013750Y25532500D01*
X128013750Y25532500D01*
X127388750Y25032500D01*
G37*
D12*
G04 #@! TD.AperFunction*
X126763750Y24482500D02*
X126763750Y25132500D01*
X127388750Y24632500D01*
X128013750Y25132500D01*
X128013750Y24482500D01*
X126763750Y24482500D01*
D13*
G04 #@! TA.AperFunction,Conductor*
G36*
X126763750Y24482500D02*
X126763750Y25132500D01*
X127388750Y24632500D01*
X128013750Y25132500D01*
X128013750Y24482500D01*
X126763750Y24482500D01*
G37*
D12*
G04 #@! TD.AperFunction*
X126763750Y26107500D02*
G02*
X128013750Y26107500I625000J-625000D01*
G01*
X128013750Y26082500D01*
X126763750Y26082500D01*
X126763750Y26107500D01*
D13*
G04 #@! TA.AperFunction,Conductor*
G36*
X126763750Y26107500D02*
G02*
X128013750Y26107500I625000J-625000D01*
G01*
X128013750Y26082500D01*
X126763750Y26082500D01*
X126763750Y26107500D01*
G37*
D12*
G04 #@! TD.AperFunction*
X126763750Y24057500D02*
G03*
X128013750Y24057500I625000J625000D01*
G01*
X128013750Y24082500D01*
X126763750Y24082500D01*
X126763750Y24057500D01*
D13*
G04 #@! TA.AperFunction,Conductor*
G36*
X126763750Y24057500D02*
G03*
X128013750Y24057500I625000J625000D01*
G01*
X128013750Y24082500D01*
X126763750Y24082500D01*
X126763750Y24057500D01*
G37*
D19*
G04 #@! TD.AperFunction*
G04 #@! TO.N,N61*
G04 #@! TO.C,JP4*
G04 #@! TO.P,JP4,1,1*
X130728750Y32702500D03*
G04 #@! TO.N,R0*
G04 #@! TO.P,JP4,2,2*
X129128750Y32702500D03*
D12*
G04 #@! TD.P*
G04 #@! TO.N,*
X129978750Y32702500D02*
X129478750Y32077500D01*
X129478750Y32077500D01*
X129328750Y32077500D01*
X129328750Y33327500D01*
X129478750Y33327500D01*
X129478750Y33327500D01*
X129978750Y32702500D01*
D13*
G04 #@! TA.AperFunction,Conductor*
G36*
X129978750Y32702500D02*
X129478750Y32077500D01*
X129478750Y32077500D01*
X129328750Y32077500D01*
X129328750Y33327500D01*
X129478750Y33327500D01*
X129478750Y33327500D01*
X129978750Y32702500D01*
G37*
D12*
G04 #@! TD.AperFunction*
X130528750Y32077500D02*
X129878750Y32077500D01*
X130378750Y32702500D01*
X129878750Y33327500D01*
X130528750Y33327500D01*
X130528750Y32077500D01*
D13*
G04 #@! TA.AperFunction,Conductor*
G36*
X130528750Y32077500D02*
X129878750Y32077500D01*
X130378750Y32702500D01*
X129878750Y33327500D01*
X130528750Y33327500D01*
X130528750Y32077500D01*
G37*
D12*
G04 #@! TD.AperFunction*
X128903750Y32077500D02*
G02*
X128903750Y33327500I625000J625000D01*
G01*
X128928750Y33327500D01*
X128928750Y32077500D01*
X128903750Y32077500D01*
D13*
G04 #@! TA.AperFunction,Conductor*
G36*
X128903750Y32077500D02*
G02*
X128903750Y33327500I625000J625000D01*
G01*
X128928750Y33327500D01*
X128928750Y32077500D01*
X128903750Y32077500D01*
G37*
D12*
G04 #@! TD.AperFunction*
X130953750Y32077500D02*
G03*
X130953750Y33327500I-625000J625000D01*
G01*
X130928750Y33327500D01*
X130928750Y32077500D01*
X130953750Y32077500D01*
D13*
G04 #@! TA.AperFunction,Conductor*
G36*
X130953750Y32077500D02*
G03*
X130953750Y33327500I-625000J625000D01*
G01*
X130928750Y33327500D01*
X130928750Y32077500D01*
X130953750Y32077500D01*
G37*
D19*
G04 #@! TD.AperFunction*
G04 #@! TO.N,N59*
G04 #@! TO.C,JP2*
G04 #@! TO.P,JP2,1,1*
X130728750Y45402500D03*
G04 #@! TO.N,MOSI*
G04 #@! TO.P,JP2,2,2*
X129128750Y45402500D03*
D12*
G04 #@! TD.P*
G04 #@! TO.N,*
X129978750Y45402500D02*
X129478750Y44777500D01*
X129478750Y44777500D01*
X129328750Y44777500D01*
X129328750Y46027500D01*
X129478750Y46027500D01*
X129478750Y46027500D01*
X129978750Y45402500D01*
D13*
G04 #@! TA.AperFunction,Conductor*
G36*
X129978750Y45402500D02*
X129478750Y44777500D01*
X129478750Y44777500D01*
X129328750Y44777500D01*
X129328750Y46027500D01*
X129478750Y46027500D01*
X129478750Y46027500D01*
X129978750Y45402500D01*
G37*
D12*
G04 #@! TD.AperFunction*
X130528750Y44777500D02*
X129878750Y44777500D01*
X130378750Y45402500D01*
X129878750Y46027500D01*
X130528750Y46027500D01*
X130528750Y44777500D01*
D13*
G04 #@! TA.AperFunction,Conductor*
G36*
X130528750Y44777500D02*
X129878750Y44777500D01*
X130378750Y45402500D01*
X129878750Y46027500D01*
X130528750Y46027500D01*
X130528750Y44777500D01*
G37*
D12*
G04 #@! TD.AperFunction*
X128903750Y44777500D02*
G02*
X128903750Y46027500I625000J625000D01*
G01*
X128928750Y46027500D01*
X128928750Y44777500D01*
X128903750Y44777500D01*
D13*
G04 #@! TA.AperFunction,Conductor*
G36*
X128903750Y44777500D02*
G02*
X128903750Y46027500I625000J625000D01*
G01*
X128928750Y46027500D01*
X128928750Y44777500D01*
X128903750Y44777500D01*
G37*
D12*
G04 #@! TD.AperFunction*
X130953750Y44777500D02*
G03*
X130953750Y46027500I-625000J625000D01*
G01*
X130928750Y46027500D01*
X130928750Y44777500D01*
X130953750Y44777500D01*
D13*
G04 #@! TA.AperFunction,Conductor*
G36*
X130953750Y44777500D02*
G03*
X130953750Y46027500I-625000J625000D01*
G01*
X130928750Y46027500D01*
X130928750Y44777500D01*
X130953750Y44777500D01*
G37*
D19*
G04 #@! TD.AperFunction*
G04 #@! TO.N,N67*
G04 #@! TO.C,JP10*
G04 #@! TO.P,JP10,1,1*
X118968750Y30162500D03*
G04 #@! TO.N,C0*
G04 #@! TO.P,JP10,2,2*
X120568750Y30162500D03*
D12*
G04 #@! TD.P*
G04 #@! TO.N,*
X119718750Y30162500D02*
X120218750Y30787500D01*
X120218750Y30787500D01*
X120368750Y30787500D01*
X120368750Y29537500D01*
X120218750Y29537500D01*
X120218750Y29537500D01*
X119718750Y30162500D01*
D13*
G04 #@! TA.AperFunction,Conductor*
G36*
X119718750Y30162500D02*
X120218750Y30787500D01*
X120218750Y30787500D01*
X120368750Y30787500D01*
X120368750Y29537500D01*
X120218750Y29537500D01*
X120218750Y29537500D01*
X119718750Y30162500D01*
G37*
D12*
G04 #@! TD.AperFunction*
X119168750Y30787500D02*
X119818750Y30787500D01*
X119318750Y30162500D01*
X119818750Y29537500D01*
X119168750Y29537500D01*
X119168750Y30787500D01*
D13*
G04 #@! TA.AperFunction,Conductor*
G36*
X119168750Y30787500D02*
X119818750Y30787500D01*
X119318750Y30162500D01*
X119818750Y29537500D01*
X119168750Y29537500D01*
X119168750Y30787500D01*
G37*
D12*
G04 #@! TD.AperFunction*
X120793750Y30787500D02*
G02*
X120793750Y29537500I-625000J-625000D01*
G01*
X120768750Y29537500D01*
X120768750Y30787500D01*
X120793750Y30787500D01*
D13*
G04 #@! TA.AperFunction,Conductor*
G36*
X120793750Y30787500D02*
G02*
X120793750Y29537500I-625000J-625000D01*
G01*
X120768750Y29537500D01*
X120768750Y30787500D01*
X120793750Y30787500D01*
G37*
D12*
G04 #@! TD.AperFunction*
X118743750Y30787500D02*
G03*
X118743750Y29537500I625000J-625000D01*
G01*
X118768750Y29537500D01*
X118768750Y30787500D01*
X118743750Y30787500D01*
D13*
G04 #@! TA.AperFunction,Conductor*
G36*
X118743750Y30787500D02*
G03*
X118743750Y29537500I625000J-625000D01*
G01*
X118768750Y29537500D01*
X118768750Y30787500D01*
X118743750Y30787500D01*
G37*
D11*
G04 #@! TD.AperFunction*
G04 #@! TO.N,N95*
G04 #@! TO.C,JP48*
G04 #@! TO.P,JP48,1,1*
X117554375Y62156875D03*
G04 #@! TO.N,GND*
G04 #@! TO.P,JP48,2,2*
X117554375Y60556875D03*
D12*
G04 #@! TD.P*
G04 #@! TO.N,*
X117554375Y61406875D02*
X118179375Y60906875D01*
X118179375Y60906875D01*
X118179375Y60756875D01*
X116929375Y60756875D01*
X116929375Y60906875D01*
X116929375Y60906875D01*
X117554375Y61406875D01*
D13*
G04 #@! TA.AperFunction,Conductor*
G36*
X117554375Y61406875D02*
X118179375Y60906875D01*
X118179375Y60906875D01*
X118179375Y60756875D01*
X116929375Y60756875D01*
X116929375Y60906875D01*
X116929375Y60906875D01*
X117554375Y61406875D01*
G37*
D12*
G04 #@! TD.AperFunction*
X118179375Y61956875D02*
X118179375Y61306875D01*
X117554375Y61806875D01*
X116929375Y61306875D01*
X116929375Y61956875D01*
X118179375Y61956875D01*
D13*
G04 #@! TA.AperFunction,Conductor*
G36*
X118179375Y61956875D02*
X118179375Y61306875D01*
X117554375Y61806875D01*
X116929375Y61306875D01*
X116929375Y61956875D01*
X118179375Y61956875D01*
G37*
D12*
G04 #@! TD.AperFunction*
X118179375Y60331875D02*
G02*
X116929375Y60331875I-625000J625000D01*
G01*
X116929375Y60356875D01*
X118179375Y60356875D01*
X118179375Y60331875D01*
D13*
G04 #@! TA.AperFunction,Conductor*
G36*
X118179375Y60331875D02*
G02*
X116929375Y60331875I-625000J625000D01*
G01*
X116929375Y60356875D01*
X118179375Y60356875D01*
X118179375Y60331875D01*
G37*
D12*
G04 #@! TD.AperFunction*
X118179375Y62381875D02*
G03*
X116929375Y62381875I-625000J-625000D01*
G01*
X116929375Y62356875D01*
X118179375Y62356875D01*
X118179375Y62381875D01*
D13*
G04 #@! TA.AperFunction,Conductor*
G36*
X118179375Y62381875D02*
G03*
X116929375Y62381875I-625000J-625000D01*
G01*
X116929375Y62356875D01*
X118179375Y62356875D01*
X118179375Y62381875D01*
G37*
D10*
G04 #@! TD.AperFunction*
G04 #@! TO.N,N49*
G04 #@! TO.C,S210*
G04 #@! TO.P,S210,1,1*
X112098750Y65038750D03*
G04 #@! TO.N,C5*
G04 #@! TO.P,S210,2,2*
X101498750Y62838750D03*
G04 #@! TO.N,N33*
G04 #@! TO.C,S243*
G04 #@! TO.P,S243,1,1*
X54948750Y10270000D03*
G04 #@! TO.N,C2*
G04 #@! TO.P,S243,2,2*
X44348750Y8070000D03*
G04 #@! TO.N,N51*
G04 #@! TO.C,S260*
G04 #@! TO.P,S260,1,1*
X16848750Y62657500D03*
G04 #@! TO.N,C0*
G04 #@! TO.P,S260,2,2*
X6248750Y60457500D03*
D19*
G04 #@! TO.N,N66*
G04 #@! TO.C,JP9*
G04 #@! TO.P,JP9,1,1*
X118968750Y35242500D03*
G04 #@! TO.N,C3*
G04 #@! TO.P,JP9,2,2*
X120568750Y35242500D03*
D12*
G04 #@! TD.P*
G04 #@! TO.N,*
X119718750Y35242500D02*
X120218750Y35867500D01*
X120218750Y35867500D01*
X120368750Y35867500D01*
X120368750Y34617500D01*
X120218750Y34617500D01*
X120218750Y34617500D01*
X119718750Y35242500D01*
D13*
G04 #@! TA.AperFunction,Conductor*
G36*
X119718750Y35242500D02*
X120218750Y35867500D01*
X120218750Y35867500D01*
X120368750Y35867500D01*
X120368750Y34617500D01*
X120218750Y34617500D01*
X120218750Y34617500D01*
X119718750Y35242500D01*
G37*
D12*
G04 #@! TD.AperFunction*
X119168750Y35867500D02*
X119818750Y35867500D01*
X119318750Y35242500D01*
X119818750Y34617500D01*
X119168750Y34617500D01*
X119168750Y35867500D01*
D13*
G04 #@! TA.AperFunction,Conductor*
G36*
X119168750Y35867500D02*
X119818750Y35867500D01*
X119318750Y35242500D01*
X119818750Y34617500D01*
X119168750Y34617500D01*
X119168750Y35867500D01*
G37*
D12*
G04 #@! TD.AperFunction*
X120793750Y35867500D02*
G02*
X120793750Y34617500I-625000J-625000D01*
G01*
X120768750Y34617500D01*
X120768750Y35867500D01*
X120793750Y35867500D01*
D13*
G04 #@! TA.AperFunction,Conductor*
G36*
X120793750Y35867500D02*
G02*
X120793750Y34617500I-625000J-625000D01*
G01*
X120768750Y34617500D01*
X120768750Y35867500D01*
X120793750Y35867500D01*
G37*
D12*
G04 #@! TD.AperFunction*
X118743750Y35867500D02*
G03*
X118743750Y34617500I625000J-625000D01*
G01*
X118768750Y34617500D01*
X118768750Y35867500D01*
X118743750Y35867500D01*
D13*
G04 #@! TA.AperFunction,Conductor*
G36*
X118743750Y35867500D02*
G03*
X118743750Y34617500I625000J-625000D01*
G01*
X118768750Y34617500D01*
X118768750Y35867500D01*
X118743750Y35867500D01*
G37*
D19*
G04 #@! TD.AperFunction*
G04 #@! TO.N,N55*
G04 #@! TO.C,JP15*
G04 #@! TO.P,JP15,1,1*
X118968750Y55562500D03*
G04 #@! TO.N,N34*
G04 #@! TO.P,JP15,2,2*
X120568750Y55562500D03*
D12*
G04 #@! TD.P*
G04 #@! TO.N,*
X119718750Y55562500D02*
X120218750Y56187500D01*
X120218750Y56187500D01*
X120368750Y56187500D01*
X120368750Y54937500D01*
X120218750Y54937500D01*
X120218750Y54937500D01*
X119718750Y55562500D01*
D13*
G04 #@! TA.AperFunction,Conductor*
G36*
X119718750Y55562500D02*
X120218750Y56187500D01*
X120218750Y56187500D01*
X120368750Y56187500D01*
X120368750Y54937500D01*
X120218750Y54937500D01*
X120218750Y54937500D01*
X119718750Y55562500D01*
G37*
D12*
G04 #@! TD.AperFunction*
X119168750Y56187500D02*
X119818750Y56187500D01*
X119318750Y55562500D01*
X119818750Y54937500D01*
X119168750Y54937500D01*
X119168750Y56187500D01*
D13*
G04 #@! TA.AperFunction,Conductor*
G36*
X119168750Y56187500D02*
X119818750Y56187500D01*
X119318750Y55562500D01*
X119818750Y54937500D01*
X119168750Y54937500D01*
X119168750Y56187500D01*
G37*
D12*
G04 #@! TD.AperFunction*
X120793750Y56187500D02*
G02*
X120793750Y54937500I-625000J-625000D01*
G01*
X120768750Y54937500D01*
X120768750Y56187500D01*
X120793750Y56187500D01*
D13*
G04 #@! TA.AperFunction,Conductor*
G36*
X120793750Y56187500D02*
G02*
X120793750Y54937500I-625000J-625000D01*
G01*
X120768750Y54937500D01*
X120768750Y56187500D01*
X120793750Y56187500D01*
G37*
D12*
G04 #@! TD.AperFunction*
X118743750Y56187500D02*
G03*
X118743750Y54937500I625000J-625000D01*
G01*
X118768750Y54937500D01*
X118768750Y56187500D01*
X118743750Y56187500D01*
D13*
G04 #@! TA.AperFunction,Conductor*
G36*
X118743750Y56187500D02*
G03*
X118743750Y54937500I625000J-625000D01*
G01*
X118768750Y54937500D01*
X118768750Y56187500D01*
X118743750Y56187500D01*
G37*
D16*
G04 #@! TD.AperFunction*
G04 #@! TO.N,N8*
G04 #@! TO.C,D111*
G04 #@! TO.P,D111,A,A*
X26223750Y52387500D03*
G04 #@! TO.N,R1*
G04 #@! TO.P,D111,C,C*
X29973750Y52387500D03*
D11*
G04 #@! TO.N,N79*
G04 #@! TO.C,JP21*
G04 #@! TO.P,JP21,1,1*
X119768750Y24282500D03*
G04 #@! TO.N,MOSI*
G04 #@! TO.P,JP21,2,2*
X119768750Y25882500D03*
D12*
G04 #@! TD.P*
G04 #@! TO.N,*
X119768750Y25032500D02*
X119143750Y25532500D01*
X119143750Y25532500D01*
X119143750Y25682500D01*
X120393750Y25682500D01*
X120393750Y25532500D01*
X120393750Y25532500D01*
X119768750Y25032500D01*
D13*
G04 #@! TA.AperFunction,Conductor*
G36*
X119768750Y25032500D02*
X119143750Y25532500D01*
X119143750Y25532500D01*
X119143750Y25682500D01*
X120393750Y25682500D01*
X120393750Y25532500D01*
X120393750Y25532500D01*
X119768750Y25032500D01*
G37*
D12*
G04 #@! TD.AperFunction*
X119143750Y24482500D02*
X119143750Y25132500D01*
X119768750Y24632500D01*
X120393750Y25132500D01*
X120393750Y24482500D01*
X119143750Y24482500D01*
D13*
G04 #@! TA.AperFunction,Conductor*
G36*
X119143750Y24482500D02*
X119143750Y25132500D01*
X119768750Y24632500D01*
X120393750Y25132500D01*
X120393750Y24482500D01*
X119143750Y24482500D01*
G37*
D12*
G04 #@! TD.AperFunction*
X119143750Y26107500D02*
G02*
X120393750Y26107500I625000J-625000D01*
G01*
X120393750Y26082500D01*
X119143750Y26082500D01*
X119143750Y26107500D01*
D13*
G04 #@! TA.AperFunction,Conductor*
G36*
X119143750Y26107500D02*
G02*
X120393750Y26107500I625000J-625000D01*
G01*
X120393750Y26082500D01*
X119143750Y26082500D01*
X119143750Y26107500D01*
G37*
D12*
G04 #@! TD.AperFunction*
X119143750Y24057500D02*
G03*
X120393750Y24057500I625000J625000D01*
G01*
X120393750Y24082500D01*
X119143750Y24082500D01*
X119143750Y24057500D01*
D13*
G04 #@! TA.AperFunction,Conductor*
G36*
X119143750Y24057500D02*
G03*
X120393750Y24057500I625000J625000D01*
G01*
X120393750Y24082500D01*
X119143750Y24082500D01*
X119143750Y24057500D01*
G37*
D16*
G04 #@! TD.AperFunction*
G04 #@! TO.N,N3*
G04 #@! TO.C,D120*
G04 #@! TO.P,D120,A,A*
X45273750Y76200000D03*
G04 #@! TO.N,R0*
G04 #@! TO.P,D120,C,C*
X49023750Y76200000D03*
D19*
G04 #@! TO.N,N71*
G04 #@! TO.C,JP14*
G04 #@! TO.P,JP14,1,1*
X118968750Y45402500D03*
G04 #@! TO.N,C6*
G04 #@! TO.P,JP14,2,2*
X120568750Y45402500D03*
D12*
G04 #@! TD.P*
G04 #@! TO.N,*
X119718750Y45402500D02*
X120218750Y46027500D01*
X120218750Y46027500D01*
X120368750Y46027500D01*
X120368750Y44777500D01*
X120218750Y44777500D01*
X120218750Y44777500D01*
X119718750Y45402500D01*
D13*
G04 #@! TA.AperFunction,Conductor*
G36*
X119718750Y45402500D02*
X120218750Y46027500D01*
X120218750Y46027500D01*
X120368750Y46027500D01*
X120368750Y44777500D01*
X120218750Y44777500D01*
X120218750Y44777500D01*
X119718750Y45402500D01*
G37*
D12*
G04 #@! TD.AperFunction*
X119168750Y46027500D02*
X119818750Y46027500D01*
X119318750Y45402500D01*
X119818750Y44777500D01*
X119168750Y44777500D01*
X119168750Y46027500D01*
D13*
G04 #@! TA.AperFunction,Conductor*
G36*
X119168750Y46027500D02*
X119818750Y46027500D01*
X119318750Y45402500D01*
X119818750Y44777500D01*
X119168750Y44777500D01*
X119168750Y46027500D01*
G37*
D12*
G04 #@! TD.AperFunction*
X120793750Y46027500D02*
G02*
X120793750Y44777500I-625000J-625000D01*
G01*
X120768750Y44777500D01*
X120768750Y46027500D01*
X120793750Y46027500D01*
D13*
G04 #@! TA.AperFunction,Conductor*
G36*
X120793750Y46027500D02*
G02*
X120793750Y44777500I-625000J-625000D01*
G01*
X120768750Y44777500D01*
X120768750Y46027500D01*
X120793750Y46027500D01*
G37*
D12*
G04 #@! TD.AperFunction*
X118743750Y46027500D02*
G03*
X118743750Y44777500I625000J-625000D01*
G01*
X118768750Y44777500D01*
X118768750Y46027500D01*
X118743750Y46027500D01*
D13*
G04 #@! TA.AperFunction,Conductor*
G36*
X118743750Y46027500D02*
G03*
X118743750Y44777500I625000J-625000D01*
G01*
X118768750Y44777500D01*
X118768750Y46027500D01*
X118743750Y46027500D01*
G37*
D19*
G04 #@! TD.AperFunction*
G04 #@! TO.N,N73*
G04 #@! TO.C,JP17*
G04 #@! TO.P,JP17,1,1*
X118968750Y50482500D03*
G04 #@! TO.N,N72*
G04 #@! TO.P,JP17,2,2*
X120568750Y50482500D03*
D12*
G04 #@! TD.P*
G04 #@! TO.N,*
X119718750Y50482500D02*
X120218750Y51107500D01*
X120218750Y51107500D01*
X120368750Y51107500D01*
X120368750Y49857500D01*
X120218750Y49857500D01*
X120218750Y49857500D01*
X119718750Y50482500D01*
D13*
G04 #@! TA.AperFunction,Conductor*
G36*
X119718750Y50482500D02*
X120218750Y51107500D01*
X120218750Y51107500D01*
X120368750Y51107500D01*
X120368750Y49857500D01*
X120218750Y49857500D01*
X120218750Y49857500D01*
X119718750Y50482500D01*
G37*
D12*
G04 #@! TD.AperFunction*
X119168750Y51107500D02*
X119818750Y51107500D01*
X119318750Y50482500D01*
X119818750Y49857500D01*
X119168750Y49857500D01*
X119168750Y51107500D01*
D13*
G04 #@! TA.AperFunction,Conductor*
G36*
X119168750Y51107500D02*
X119818750Y51107500D01*
X119318750Y50482500D01*
X119818750Y49857500D01*
X119168750Y49857500D01*
X119168750Y51107500D01*
G37*
D12*
G04 #@! TD.AperFunction*
X120793750Y51107500D02*
G02*
X120793750Y49857500I-625000J-625000D01*
G01*
X120768750Y49857500D01*
X120768750Y51107500D01*
X120793750Y51107500D01*
D13*
G04 #@! TA.AperFunction,Conductor*
G36*
X120793750Y51107500D02*
G02*
X120793750Y49857500I-625000J-625000D01*
G01*
X120768750Y49857500D01*
X120768750Y51107500D01*
X120793750Y51107500D01*
G37*
D12*
G04 #@! TD.AperFunction*
X118743750Y51107500D02*
G03*
X118743750Y49857500I625000J-625000D01*
G01*
X118768750Y49857500D01*
X118768750Y51107500D01*
X118743750Y51107500D01*
D13*
G04 #@! TA.AperFunction,Conductor*
G36*
X118743750Y51107500D02*
G03*
X118743750Y49857500I625000J-625000D01*
G01*
X118768750Y49857500D01*
X118768750Y51107500D01*
X118743750Y51107500D01*
G37*
D16*
G04 #@! TD.AperFunction*
G04 #@! TO.N,N10*
G04 #@! TO.C,D102*
G04 #@! TO.P,D102,A,A*
X7173750Y33337500D03*
G04 #@! TO.N,R2*
G04 #@! TO.P,D102,C,C*
X10923750Y33337500D03*
D19*
G04 #@! TO.N,N58*
G04 #@! TO.C,JP1*
G04 #@! TO.P,JP1,1,1*
X130728750Y55562500D03*
G04 #@! TO.N,CS*
G04 #@! TO.P,JP1,2,2*
X129128750Y55562500D03*
D12*
G04 #@! TD.P*
G04 #@! TO.N,*
X129978750Y55562500D02*
X129478750Y54937500D01*
X129478750Y54937500D01*
X129328750Y54937500D01*
X129328750Y56187500D01*
X129478750Y56187500D01*
X129478750Y56187500D01*
X129978750Y55562500D01*
D13*
G04 #@! TA.AperFunction,Conductor*
G36*
X129978750Y55562500D02*
X129478750Y54937500D01*
X129478750Y54937500D01*
X129328750Y54937500D01*
X129328750Y56187500D01*
X129478750Y56187500D01*
X129478750Y56187500D01*
X129978750Y55562500D01*
G37*
D12*
G04 #@! TD.AperFunction*
X130528750Y54937500D02*
X129878750Y54937500D01*
X130378750Y55562500D01*
X129878750Y56187500D01*
X130528750Y56187500D01*
X130528750Y54937500D01*
D13*
G04 #@! TA.AperFunction,Conductor*
G36*
X130528750Y54937500D02*
X129878750Y54937500D01*
X130378750Y55562500D01*
X129878750Y56187500D01*
X130528750Y56187500D01*
X130528750Y54937500D01*
G37*
D12*
G04 #@! TD.AperFunction*
X128903750Y54937500D02*
G02*
X128903750Y56187500I625000J625000D01*
G01*
X128928750Y56187500D01*
X128928750Y54937500D01*
X128903750Y54937500D01*
D13*
G04 #@! TA.AperFunction,Conductor*
G36*
X128903750Y54937500D02*
G02*
X128903750Y56187500I625000J625000D01*
G01*
X128928750Y56187500D01*
X128928750Y54937500D01*
X128903750Y54937500D01*
G37*
D12*
G04 #@! TD.AperFunction*
X130953750Y54937500D02*
G03*
X130953750Y56187500I-625000J625000D01*
G01*
X130928750Y56187500D01*
X130928750Y54937500D01*
X130953750Y54937500D01*
D13*
G04 #@! TA.AperFunction,Conductor*
G36*
X130953750Y54937500D02*
G03*
X130953750Y56187500I-625000J625000D01*
G01*
X130928750Y56187500D01*
X130928750Y54937500D01*
X130953750Y54937500D01*
G37*
D24*
G04 #@! TD.AperFunction*
G04 #@! TD.C*
G04 #@! TO.N,N29*
X91043125Y15954375D03*
D25*
X93048750Y13948750D02*
X91043125Y15954375D01*
X93048750Y10270000D02*
X93048750Y13948750D01*
G04 #@! TO.N,N77*
X122308750Y22542500D02*
X122308750Y24282500D01*
D24*
G04 #@! TO.N,N52*
X14843125Y49450625D03*
D25*
X16848750Y47445000D02*
X14843125Y49450625D01*
X16848750Y43607500D02*
X16848750Y47445000D01*
G04 #@! TO.N,N64*
X118968750Y27622500D02*
X117228750Y27622500D01*
D24*
G04 #@! TO.N,N30*
X110013750Y13652500D03*
D25*
X112098750Y7888750D02*
X112098750Y11567500D01*
X112098750Y11567500D02*
X110013750Y13652500D01*
D24*
G04 #@! TO.N,CS*
X124928125Y55562500D03*
X122705625Y20558125D03*
X125483750Y50085625D03*
D25*
X128023750Y20558125D02*
X122705625Y20558125D01*
X128658750Y21193125D02*
X128658750Y25400000D01*
X129922500Y25876250D02*
X129135000Y25876250D01*
X129928750Y25882500D02*
X129922500Y25876250D01*
X124928125Y55562500D02*
X124928125Y50641250D01*
X128658750Y21193125D02*
X128023750Y20558125D01*
X129128750Y55562500D02*
X124928125Y55562500D01*
X129135000Y25876250D02*
X128658750Y25400000D01*
X125483750Y50085625D02*
X124928125Y50641250D01*
D24*
G04 #@! TO.N,N50*
X52943125Y34925000D03*
D25*
X54948750Y32919375D02*
X52943125Y34925000D01*
X54948750Y29320000D02*
X54948750Y32919375D01*
D24*
G04 #@! TO.N,N72*
X122793125Y59928125D03*
X123737500Y57070625D03*
D25*
X121838750Y51752500D02*
X122705625Y51752500D01*
X123540625Y59928125D02*
X124221875Y60609375D01*
X120568750Y50482500D02*
X121838750Y51752500D01*
X122793125Y59928125D02*
X123540625Y59928125D01*
X123737500Y52784375D02*
X123737500Y57070625D01*
X122705625Y51752500D02*
X123737500Y52784375D01*
D24*
G04 #@! TO.N,N47*
X90884375Y35163125D03*
D25*
X93048750Y32998750D02*
X90884375Y35163125D01*
X93048750Y29320000D02*
X93048750Y32998750D01*
D24*
G04 #@! TO.N,N28*
X33655000Y49530000D03*
D25*
X35898750Y47286250D02*
X33655000Y49530000D01*
X35898750Y43607500D02*
X35898750Y47286250D01*
D24*
G04 #@! TO.N,N25*
X71755000Y37623750D03*
D25*
X73998750Y31701250D02*
X73998750Y35380000D01*
X73998750Y35380000D02*
X71755000Y37623750D01*
D26*
G04 #@! TO.N,GND*
X127547500Y50482500D03*
D27*
X127547500Y50482500D02*
X129128750Y50482500D01*
D24*
G04 #@! TO.N,C0*
X9048750Y39052500D03*
X9048750Y20002500D03*
X9048750Y58102500D03*
X9048750Y952500D03*
X124848750Y30162500D03*
D25*
X6350000Y3408750D02*
X6248750Y3307500D01*
X6350000Y41508750D02*
X6248750Y41407500D01*
X8603750Y20002500D02*
X9048750Y20002500D01*
X124848750Y30162500D02*
X120568750Y30162500D01*
X9048750Y20002500D02*
X9048750Y12541250D01*
X9048750Y58102500D02*
X9048750Y50800000D01*
X6248750Y22357500D02*
X8603750Y20002500D01*
X6248750Y60457500D02*
X8603750Y58102500D01*
X6248750Y3307500D02*
X8603750Y952500D01*
X9048750Y39052500D02*
X9048750Y31750000D01*
X9048750Y12541250D02*
X6350000Y9842500D01*
X8603750Y952500D02*
X9048750Y952500D01*
X6248750Y41407500D02*
X8603750Y39052500D01*
X6191250Y22415000D02*
X6248750Y22357500D01*
X6350000Y9842500D02*
X6350000Y3408750D01*
X6191250Y28892500D02*
X6191250Y22415000D01*
X8603750Y58102500D02*
X9048750Y58102500D01*
X8603750Y39052500D02*
X9048750Y39052500D01*
X9048750Y31750000D02*
X6191250Y28892500D01*
X9048750Y50800000D02*
X6350000Y48101250D01*
X6350000Y48101250D02*
X6350000Y41508750D01*
D26*
G04 #@! TO.N,GND*
X122150000Y47942500D03*
D25*
G04 #@! TO.N,N66*
X118968750Y35242500D02*
X117228750Y35242500D01*
D24*
G04 #@! TO.N,GND*
X128103125Y26908125D03*
D28*
X127388750Y25882500D02*
X128023750Y26517500D01*
X128023750Y26517500D02*
X128103125Y26908125D01*
D25*
G04 #@! TO.N,N58*
X130728750Y55562500D02*
X132468750Y55562500D01*
D24*
G04 #@! TO.N,N36*
X129143125Y11191875D03*
D25*
X131148750Y9186250D02*
X129143125Y11191875D01*
X131148750Y5507500D02*
X131148750Y9186250D01*
D26*
G04 #@! TO.N,GND*
X122150000Y50482500D03*
D24*
G04 #@! TO.N,N37*
X110093125Y32543750D03*
D25*
X112098750Y26938750D02*
X112098750Y30538125D01*
X112098750Y30538125D02*
X110093125Y32543750D01*
D24*
G04 #@! TO.N,N1*
X2857500Y68580000D03*
D25*
X4316250Y68580000D02*
X7173750Y71437500D01*
X2857500Y68580000D02*
X4316250Y68580000D01*
D24*
G04 #@! TO.N,MOSI*
X125086875Y19050000D03*
X127388750Y46196250D03*
X132389375Y25479375D03*
D25*
X119768750Y25882500D02*
X119762500Y25876250D01*
X119762500Y25876250D02*
X118975000Y25876250D01*
X118498750Y25400000D02*
X118498750Y20796250D01*
X127388750Y46196250D02*
X128182500Y45402500D01*
X120245000Y19050000D02*
X118498750Y20796250D01*
X128182500Y45402500D02*
X129128750Y45402500D01*
X118975000Y25876250D02*
X118498750Y25400000D01*
X125086875Y19050000D02*
X120245000Y19050000D01*
D26*
G04 #@! TO.N,GND*
X122150000Y53022500D03*
D27*
X122150000Y53022500D02*
X120568750Y53022500D01*
D24*
X122864375Y26908125D03*
X124221875Y62388750D03*
D25*
X124221875Y62388750D02*
X124221875Y64009375D01*
G04 #@! TO.N,N67*
X118968750Y30162500D02*
X117228750Y30162500D01*
D24*
G04 #@! TO.N,N46*
X14843125Y11271250D03*
D25*
X16848750Y9265625D02*
X14843125Y11271250D01*
X16848750Y5507500D02*
X16848750Y9265625D01*
D24*
G04 #@! TO.N,N7*
X60166250Y56594375D03*
D25*
X61386875Y56594375D02*
X64323750Y59531250D01*
X60166250Y56594375D02*
X61386875Y56594375D01*
D24*
G04 #@! TO.N,C1*
X28098750Y39052500D03*
X28098750Y58102500D03*
X28098750Y952500D03*
X28098750Y20002500D03*
X124848750Y37782500D03*
D25*
X25298750Y3307500D02*
X27653750Y952500D01*
X27653750Y58102500D02*
X28098750Y58102500D01*
X27653750Y952500D02*
X28098750Y952500D01*
X27653750Y39052500D02*
X28098750Y39052500D01*
X25241250Y28733750D02*
X25241250Y22415000D01*
X25400000Y41508750D02*
X25298750Y41407500D01*
X28098750Y39052500D02*
X28098750Y31591250D01*
X25241250Y9842500D02*
X25241250Y3365000D01*
X25400000Y48101250D02*
X25400000Y41508750D01*
X25298750Y22357500D02*
X27653750Y20002500D01*
X28098750Y50800000D02*
X25400000Y48101250D01*
X28098750Y31591250D02*
X25241250Y28733750D01*
X25241250Y22415000D02*
X25298750Y22357500D01*
X28098750Y20002500D02*
X28098750Y12700000D01*
X124848750Y37782500D02*
X120568750Y37782500D01*
X25298750Y60457500D02*
X27653750Y58102500D01*
X25298750Y41407500D02*
X27653750Y39052500D01*
X28098750Y58102500D02*
X28098750Y50800000D01*
X27653750Y20002500D02*
X28098750Y20002500D01*
X25241250Y3365000D02*
X25298750Y3307500D01*
X28098750Y12700000D02*
X25241250Y9842500D01*
D24*
G04 #@! TO.N,N21*
X98345625Y70881875D03*
D25*
X98345625Y70881875D02*
X99486875Y70881875D01*
X99486875Y70881875D02*
X102423750Y73818750D01*
G04 #@! TO.N,N71*
X118968750Y45402500D02*
X117228750Y45402500D01*
D24*
G04 #@! TO.N,R2*
X105092500Y37703125D03*
X50323750Y38973125D03*
X88503125Y39211250D03*
X125563125Y28416250D03*
X69373750Y41513125D03*
X31194375Y34448750D03*
X116990625Y26114375D03*
X12144375Y34369375D03*
D25*
X105092500Y37703125D02*
X106173750Y36621875D01*
X68341875Y40481250D02*
X69373750Y41513125D01*
X29973750Y33337500D02*
X30083125Y33337500D01*
X87391875Y38100000D02*
X88503125Y39211250D01*
X113347500Y27146250D02*
X114141250Y26352500D01*
X49023750Y38100000D02*
X49450625Y38100000D01*
X68073750Y40481250D02*
X68341875Y40481250D01*
X106173750Y36621875D02*
X106173750Y35718750D01*
X30083125Y33337500D02*
X31194375Y34448750D01*
X112791875Y29130625D02*
X113347500Y28654375D01*
X49450625Y38100000D02*
X50323750Y38973125D01*
X126356875Y27622500D02*
X125563125Y28416250D01*
X111045625Y37147500D02*
X112791875Y35321875D01*
X113347500Y28654375D02*
X113347500Y27146250D01*
X87123750Y38100000D02*
X87391875Y38100000D01*
X115252500Y26352500D02*
X116752500Y26352500D01*
X107602500Y37147500D02*
X111045625Y37147500D01*
X116752500Y26352500D02*
X116990625Y26114375D01*
X106173750Y35718750D02*
X107602500Y37147500D01*
X114141250Y26352500D02*
X115252500Y26352500D01*
X10923750Y33337500D02*
X11112500Y33337500D01*
X129128750Y27622500D02*
X126356875Y27622500D01*
X112791875Y35321875D02*
X112791875Y29130625D01*
X11112500Y33337500D02*
X12144375Y34369375D01*
D24*
G04 #@! TO.N,N5*
X41116250Y54292500D03*
D25*
X41116250Y54292500D02*
X42416250Y54292500D01*
X42416250Y54292500D02*
X45273750Y57150000D01*
D24*
G04 #@! TO.N,N51*
X14922500Y68818125D03*
D25*
X16848750Y62657500D02*
X16848750Y66891875D01*
X16848750Y66891875D02*
X14922500Y68818125D01*
D24*
G04 #@! TO.N,N40*
X109934375Y51752500D03*
D25*
X112098750Y45988750D02*
X112098750Y49588125D01*
X112098750Y49588125D02*
X109934375Y51752500D01*
D24*
G04 #@! TO.N,N10*
X3413125Y30321250D03*
D25*
X3413125Y30321250D02*
X4157500Y30321250D01*
X4157500Y30321250D02*
X7173750Y33337500D01*
D24*
G04 #@! TO.N,N14*
X3333750Y11350625D03*
D25*
X3333750Y11350625D02*
X4236875Y11350625D01*
X4236875Y11350625D02*
X7173750Y14287500D01*
D24*
G04 #@! TO.N,N41*
X71913750Y18335625D03*
D25*
X73998750Y16250625D02*
X71913750Y18335625D01*
X73998750Y12651250D02*
X73998750Y16250625D01*
D24*
G04 #@! TO.N,N35*
X90805000Y54292500D03*
D25*
X93048750Y48370000D02*
X93048750Y52048750D01*
X93048750Y52048750D02*
X90805000Y54292500D01*
G04 #@! TO.N,N68*
X118968750Y37782500D02*
X117228750Y37782500D01*
D24*
G04 #@! TO.N,N23*
X98504375Y13573125D03*
D25*
X99328125Y13573125D02*
X102423750Y16668750D01*
X98504375Y13573125D02*
X99328125Y13573125D01*
D24*
G04 #@! TO.N,N31*
X33734375Y30321250D03*
D25*
X35898750Y28156875D02*
X33734375Y30321250D01*
X35898750Y24557500D02*
X35898750Y28156875D01*
G04 #@! TO.N,N62*
X130728750Y30162500D02*
X132468750Y30162500D01*
D24*
G04 #@! TO.N,N26*
X53181250Y73342500D03*
D25*
X54948750Y71575000D02*
X53181250Y73342500D01*
X54948750Y67420000D02*
X54948750Y71575000D01*
D24*
G04 #@! TO.N,SCK*
X125325000Y43656250D03*
X121594375Y26828750D03*
X125960000Y19764375D03*
X121991250Y42465625D03*
D25*
X121594375Y26828750D02*
X121594375Y26596875D01*
X122070625Y19764375D02*
X121038750Y20796250D01*
X121594375Y26596875D02*
X122308750Y25882500D01*
X129128750Y42862500D02*
X126118750Y42862500D01*
X121515000Y25876250D02*
X121038750Y25400000D01*
X122308750Y25882500D02*
X121515000Y25876250D01*
X126118750Y42862500D02*
X125325000Y43656250D01*
X125960000Y19764375D02*
X122070625Y19764375D01*
X121038750Y25400000D02*
X121038750Y20796250D01*
D24*
G04 #@! TO.N,N24*
X98504375Y32543750D03*
D25*
X99248750Y32543750D02*
X102423750Y35718750D01*
X98504375Y32543750D02*
X99248750Y32543750D01*
D24*
G04 #@! TO.N,N49*
X110013750Y71120000D03*
D25*
X112098750Y69035000D02*
X110013750Y71120000D01*
X112098750Y65038750D02*
X112098750Y69035000D01*
D24*
G04 #@! TO.N,C2*
X47148750Y5715000D03*
X47148750Y24765000D03*
X47148750Y62865000D03*
X47148750Y43815000D03*
X124848750Y32702500D03*
D25*
X47148750Y62865000D02*
X47148750Y55403750D01*
X44450000Y33813750D02*
X44450000Y27221250D01*
X44291250Y52546250D02*
X44291250Y46227500D01*
X46703750Y24765000D02*
X47148750Y24765000D01*
X44348750Y8070000D02*
X46703750Y5715000D01*
X47148750Y17462500D02*
X44450000Y14763750D01*
X44450000Y14763750D02*
X44450000Y8171250D01*
X44450000Y27221250D02*
X44348750Y27120000D01*
X47148750Y43815000D02*
X47148750Y36512500D01*
X44348750Y65220000D02*
X46703750Y62865000D01*
X47148750Y36512500D02*
X44450000Y33813750D01*
X47148750Y24765000D02*
X47148750Y17462500D01*
X46703750Y5715000D02*
X47148750Y5715000D01*
X120568750Y32702500D02*
X124690000Y32702500D01*
X44450000Y8171250D02*
X44348750Y8070000D01*
X44348750Y27120000D02*
X46703750Y24765000D01*
X46703750Y43815000D02*
X47148750Y43815000D01*
X44291250Y46227500D02*
X44348750Y46170000D01*
X124690000Y32702500D02*
X124848750Y32702500D01*
X46703750Y62865000D02*
X47148750Y62865000D01*
X44348750Y46170000D02*
X46703750Y43815000D01*
X47148750Y55403750D02*
X44291250Y52546250D01*
D24*
G04 #@! TO.N,N42*
X72310625Y75644375D03*
D25*
X73998750Y73956250D02*
X72310625Y75644375D01*
X73998750Y69801250D02*
X73998750Y73956250D01*
D24*
G04 #@! TO.N,C6*
X124848750Y45402500D03*
X127000000Y10795000D03*
X123348750Y952500D03*
D25*
X127000000Y10795000D02*
X127000000Y14636875D01*
X120548750Y3307500D02*
X122903750Y952500D01*
X124848750Y45402500D02*
X120568750Y45402500D01*
X134032500Y42148125D02*
X134032500Y43180000D01*
X128658750Y44132500D02*
X126118750Y44132500D01*
X126118750Y44132500D02*
X124848750Y45402500D01*
X127000000Y14636875D02*
X134032500Y21669375D01*
X134032500Y21669375D02*
X134032500Y42148125D01*
X134032500Y43180000D02*
X133080000Y44132500D01*
X133080000Y44132500D02*
X128658750Y44132500D01*
X122903750Y952500D02*
X123348750Y952500D01*
D24*
G04 #@! TO.N,R1*
X31353125Y53419375D03*
X50244375Y58102500D03*
X104933750Y56197500D03*
X88265000Y58340625D03*
X12065000Y53340000D03*
X69373750Y60721875D03*
X125642500Y30876875D03*
D25*
X119848125Y28892500D02*
X123658125Y28892500D01*
X124928125Y28971875D02*
X126356875Y30162500D01*
X114141250Y28892500D02*
X115641250Y28892500D01*
X110886875Y41195625D02*
X113347500Y38655625D01*
X123658125Y28892500D02*
X124928125Y28971875D01*
X113347500Y32305625D02*
X113426875Y29606875D01*
X129128750Y30162500D02*
X126356875Y30162500D01*
X107156250Y41671875D02*
X107632500Y41195625D01*
X106173750Y54768750D02*
X107156250Y53786250D01*
X113744375Y29289375D02*
X114141250Y28892500D01*
X87123750Y57150000D02*
X87123750Y57199375D01*
X106173750Y54957500D02*
X104933750Y56197500D01*
X68183125Y59531250D02*
X69373750Y60721875D01*
X29973750Y52387500D02*
X30321250Y52387500D01*
X30321250Y52387500D02*
X31353125Y53419375D01*
X68073750Y59531250D02*
X68183125Y59531250D01*
X49291875Y57150000D02*
X50244375Y58102500D01*
X126356875Y30162500D02*
X125642500Y30876875D01*
X106173750Y54768750D02*
X106173750Y54957500D01*
X113347500Y38655625D02*
X113347500Y32305625D01*
X10923750Y52387500D02*
X11876250Y53340000D01*
X113426875Y29606875D02*
X113744375Y29289375D01*
X107632500Y41195625D02*
X110886875Y41195625D01*
X107156250Y53786250D02*
X107156250Y41671875D01*
X106173750Y54768750D02*
X106173750Y54768750D01*
X87123750Y57199375D02*
X88265000Y58340625D01*
X49023750Y57150000D02*
X49291875Y57150000D01*
X115641250Y28892500D02*
X119848125Y28892500D01*
X11876250Y53340000D02*
X12065000Y53340000D01*
G04 #@! TO.N,N79*
X119768750Y22542500D02*
X119768750Y24282500D01*
G04 #@! TO.N,N73*
X118968750Y50482500D02*
X117228750Y50482500D01*
D24*
G04 #@! TO.N,VCC*
X124055000Y26749375D03*
X124769375Y48974375D03*
D28*
X120568750Y47942500D02*
X121600625Y48974375D01*
X124055000Y26749375D02*
X124055000Y26676250D01*
X124055000Y26676250D02*
X124848750Y25882500D01*
X121600625Y48974375D02*
X124769375Y48974375D01*
D24*
G04 #@! TO.N,N12*
X22383750Y30400625D03*
D25*
X22383750Y30400625D02*
X23286875Y30400625D01*
X23286875Y30400625D02*
X26223750Y33337500D01*
D24*
G04 #@! TO.N,N48*
X33734375Y11350625D03*
D25*
X35898750Y5507500D02*
X35898750Y9186250D01*
X35898750Y9186250D02*
X33734375Y11350625D01*
G04 #@! TO.N,N63*
X130728750Y27622500D02*
X132468750Y27622500D01*
D24*
G04 #@! TO.N,N4*
X60483750Y75882500D03*
D25*
X61625000Y75882500D02*
X64323750Y78581250D01*
X60483750Y75882500D02*
X61625000Y75882500D01*
D24*
G04 #@! TO.N,N2*
X22225000Y68738750D03*
D25*
X22225000Y68738750D02*
X23525000Y68738750D01*
X23525000Y68738750D02*
X26223750Y71437500D01*
D24*
G04 #@! TO.N,N16*
X22304375Y11350625D03*
D25*
X22304375Y11350625D02*
X23286875Y11350625D01*
X23286875Y11350625D02*
X26223750Y14287500D01*
D24*
G04 #@! TO.N,N27*
X117475000Y11191875D03*
D25*
X117475000Y11191875D02*
X118378125Y11191875D01*
X118378125Y11191875D02*
X121473750Y14287500D01*
D24*
G04 #@! TO.N,N11*
X60404375Y37385625D03*
D25*
X60404375Y37385625D02*
X61228125Y37385625D01*
X61228125Y37385625D02*
X64323750Y40481250D01*
D24*
G04 #@! TO.N,C4*
X85248750Y24765000D03*
X85248750Y5715000D03*
X85407500Y43815000D03*
X85248750Y62865000D03*
X124928125Y40322500D03*
D25*
X82391250Y14605000D02*
X82391250Y8127500D01*
X85248750Y17462500D02*
X82391250Y14605000D01*
X82391250Y33496250D02*
X82391250Y27177500D01*
X82391250Y46227500D02*
X82448750Y46170000D01*
X82448750Y27120000D02*
X84803750Y24765000D01*
X84803750Y62865000D02*
X85248750Y62865000D01*
X82391250Y52705000D02*
X82391250Y46227500D01*
X124928125Y40322500D02*
X120568750Y40322500D01*
X82448750Y8070000D02*
X84803750Y5715000D01*
X82448750Y65220000D02*
X84803750Y62865000D01*
X82391250Y8127500D02*
X82448750Y8070000D01*
X85407500Y43815000D02*
X85407500Y36512500D01*
X84803750Y24765000D02*
X85248750Y24765000D01*
X85248750Y62865000D02*
X85248750Y55562500D01*
X85407500Y36512500D02*
X82391250Y33496250D01*
X82448750Y46170000D02*
X84803750Y43815000D01*
X84803750Y5715000D02*
X85248750Y5715000D01*
X85248750Y24765000D02*
X85248750Y17462500D01*
X85248750Y55562500D02*
X82391250Y52705000D01*
X82391250Y27177500D02*
X82448750Y27120000D01*
X84803750Y43815000D02*
X85407500Y43815000D01*
D29*
G04 #@! TO.N,N57*
X118968750Y53022500D02*
X117228750Y53022500D01*
X130728750Y50482500D02*
X132468750Y50482500D01*
D24*
G04 #@! TO.N,N45*
X71913750Y56594375D03*
D25*
X73998750Y54509375D02*
X71913750Y56594375D01*
X73998750Y50751250D02*
X73998750Y54509375D01*
D24*
G04 #@! TO.N,N19*
X79375000Y15875000D03*
D25*
X79375000Y15875000D02*
X80198750Y15875000D01*
X80198750Y15875000D02*
X83373750Y19050000D01*
D30*
G04 #@! TO.N,N95*
X117554375Y62156875D02*
X117554375Y63716875D01*
X117554375Y63716875D02*
X117824375Y63986875D01*
D29*
G04 #@! TO.N,N74*
X117228750Y47942500D02*
X118968750Y47942500D01*
D25*
G04 #@! TO.N,N80*
X129928750Y22542500D02*
X129928750Y24282500D01*
D24*
G04 #@! TO.N,N22*
X98583750Y51911250D03*
D25*
X99566250Y51911250D02*
X102423750Y54768750D01*
X98583750Y51911250D02*
X99566250Y51911250D01*
D26*
G04 #@! TO.N,GND*
X118745000Y59769375D03*
D27*
X117957500Y60556875D02*
X118745000Y59769375D01*
X117554375Y60556875D02*
X117957500Y60556875D01*
D24*
G04 #@! TO.N,N32*
X90884375Y73580625D03*
D25*
X93048750Y71416250D02*
X90884375Y73580625D01*
X93048750Y67420000D02*
X93048750Y71416250D01*
G04 #@! TO.N,N65*
X118968750Y32702500D02*
X117228750Y32702500D01*
D29*
G04 #@! TO.N,N75*
X124848750Y22542500D02*
X124848750Y24282500D01*
G04 #@! TO.N,N76*
X127388750Y22542500D02*
X127388750Y24282500D01*
D24*
G04 #@! TO.N,N33*
X52784375Y16113125D03*
D25*
X54948750Y10270000D02*
X54948750Y13948750D01*
X54948750Y13948750D02*
X52784375Y16113125D01*
D24*
G04 #@! TO.N,N53*
X14763750Y30321250D03*
D25*
X16848750Y24557500D02*
X16848750Y28236250D01*
X16848750Y28236250D02*
X14763750Y30321250D01*
D26*
G04 #@! TO.N,GND*
X127706250Y53022500D03*
D25*
G04 #@! TO.N,N70*
X118968750Y42862500D02*
X117228750Y42862500D01*
D24*
G04 #@! TO.N,N13*
X41513125Y16113125D03*
D25*
X42336875Y16113125D02*
X45273750Y19050000D01*
X41513125Y16113125D02*
X42336875Y16113125D01*
D29*
G04 #@! TO.N,N57*
X130728750Y47942500D02*
X132468750Y47942500D01*
D25*
G04 #@! TO.N,N59*
X130728750Y45402500D02*
X132468750Y45402500D01*
G04 #@! TO.N,N69*
X118968750Y40322500D02*
X117228750Y40322500D01*
D24*
G04 #@! TO.N,R0*
X50482500Y77708125D03*
X104457500Y75168125D03*
X125563125Y33496250D03*
X31194375Y72469375D03*
X69294375Y79771875D03*
X11985625Y72548750D03*
X88423750Y77390625D03*
D25*
X112395000Y59055000D02*
X113903125Y57546875D01*
X107076875Y72915625D02*
X107076875Y60325000D01*
X106173750Y73818750D02*
X104824375Y75168125D01*
X50482500Y77658750D02*
X50482500Y77708125D01*
X87123750Y76200000D02*
X88314375Y77390625D01*
X107076875Y60325000D02*
X108346875Y59055000D01*
X113903125Y32226250D02*
X114696875Y31432500D01*
X69264375Y79771875D02*
X69294375Y79771875D01*
X88314375Y77390625D02*
X88423750Y77390625D01*
X125086875Y31432500D02*
X126356875Y32702500D01*
X29973750Y71437500D02*
X31005625Y72469375D01*
X68073750Y78581250D02*
X69264375Y79771875D01*
X104824375Y75168125D02*
X104457500Y75168125D01*
X116196875Y31432500D02*
X125086875Y31432500D01*
X113903125Y57546875D02*
X113903125Y44926250D01*
X106173750Y73818750D02*
X107076875Y72915625D01*
X126356875Y32702500D02*
X125563125Y33496250D01*
X49023750Y76200000D02*
X50482500Y77658750D01*
X10923750Y71437500D02*
X11985625Y72499375D01*
X106173750Y73818750D02*
X106173750Y73818750D01*
X11985625Y72499375D02*
X11985625Y72548750D01*
X114696875Y31432500D02*
X116196875Y31432500D01*
X108346875Y59055000D02*
X112395000Y59055000D01*
X129128750Y32702500D02*
X126356875Y32702500D01*
X31005625Y72469375D02*
X31194375Y72469375D01*
X113903125Y44926250D02*
X113903125Y32226250D01*
D27*
G04 #@! TO.N,N34*
X127903496Y64454089D02*
X126682500Y64055625D01*
X125888750Y58181875D02*
X126682500Y58975625D01*
X126682500Y64055625D02*
X126682500Y58975625D01*
X123188125Y58181875D02*
X120568750Y55562500D01*
X123188125Y58181875D02*
X125888750Y58181875D01*
D30*
G04 #@! TO.N,N44*
X120094375Y62156875D02*
X120094375Y63716875D01*
X120094375Y63716875D02*
X119824375Y63986875D01*
D24*
G04 #@! TO.N,N6*
X3095625Y49450625D03*
D25*
X3095625Y49450625D02*
X4236875Y49450625D01*
X4236875Y49450625D02*
X7173750Y52387500D01*
D24*
G04 #@! TO.N,N15*
X60483750Y18335625D03*
D25*
X60483750Y18335625D02*
X61228125Y18335625D01*
X61228125Y18335625D02*
X64323750Y21431250D01*
D24*
G04 #@! TO.N,N17*
X79533750Y73580625D03*
D25*
X80754375Y73580625D02*
X83373750Y76200000D01*
X79533750Y73580625D02*
X80754375Y73580625D01*
D24*
G04 #@! TO.N,N3*
X40163750Y72548750D03*
D25*
X41622500Y72548750D02*
X45273750Y76200000D01*
X40163750Y72548750D02*
X41622500Y72548750D01*
D24*
G04 #@! TO.N,N9*
X41195625Y35163125D03*
D25*
X42336875Y35163125D02*
X45273750Y38100000D01*
X41195625Y35163125D02*
X42336875Y35163125D01*
G04 #@! TO.N,N61*
X130728750Y32702500D02*
X132468750Y32702500D01*
D27*
G04 #@! TO.N,N104*
X121278750Y60556875D02*
X121840625Y61118750D01*
X126926791Y67290645D02*
X121840625Y65325625D01*
X121840625Y65325625D02*
X121840625Y61118750D01*
X120094375Y60556875D02*
X121278750Y60556875D01*
D24*
G04 #@! TO.N,R3*
X125007500Y27701875D03*
X31353125Y15398750D03*
X123428125Y15716250D03*
X88503125Y20240625D03*
X107553125Y17700625D03*
X114617500Y24923750D03*
X12223750Y15240000D03*
X69373750Y22701250D03*
X50244375Y20002500D03*
D25*
X125223750Y14287500D02*
X124856875Y14287500D01*
X49023750Y19050000D02*
X49291875Y19050000D01*
X124928125Y27622500D02*
X125007500Y27701875D01*
X87123750Y19050000D02*
X87312500Y19050000D01*
X124856875Y14287500D02*
X123428125Y15716250D01*
X120568750Y27622500D02*
X124928125Y27622500D01*
X106173750Y16668750D02*
X106521250Y16668750D01*
X29973750Y14287500D02*
X30241875Y14287500D01*
X68103750Y21431250D02*
X69373750Y22701250D01*
X87312500Y19050000D02*
X88503125Y20240625D01*
X49291875Y19050000D02*
X50244375Y20002500D01*
X30241875Y14287500D02*
X31353125Y15398750D01*
X10923750Y14287500D02*
X11271250Y14287500D01*
X106521250Y16668750D02*
X107553125Y17700625D01*
X68073750Y21431250D02*
X68103750Y21431250D01*
X11271250Y14287500D02*
X12223750Y15240000D01*
D24*
G04 #@! TO.N,N8*
X22145625Y49371250D03*
D25*
X22145625Y49371250D02*
X23207500Y49371250D01*
X23207500Y49371250D02*
X26223750Y52387500D01*
D24*
G04 #@! TO.N,N39*
X52863750Y54292500D03*
D25*
X54948750Y48370000D02*
X54948750Y52207500D01*
X54948750Y52207500D02*
X52863750Y54292500D01*
D24*
G04 #@! TO.N,C5*
X124848750Y42862500D03*
X104298750Y41433750D03*
X104298750Y3333750D03*
X104298750Y22383750D03*
X104298750Y60483750D03*
D25*
X122388125Y43497500D02*
X121203750Y43497500D01*
X101441250Y24796250D02*
X101498750Y24738750D01*
X124848750Y42862500D02*
X123023125Y42862500D01*
X121203750Y43497500D02*
X120568750Y42862500D01*
X123023125Y42862500D02*
X122388125Y43497500D01*
X103853750Y3333750D02*
X104298750Y3333750D01*
X101498750Y24738750D02*
X103853750Y22383750D01*
X103853750Y41433750D02*
X104298750Y41433750D01*
X104298750Y53181250D02*
X104298750Y54530625D01*
X104298750Y41433750D02*
X104298750Y33972500D01*
X101441250Y43846250D02*
X101498750Y43788750D01*
X101441250Y12223750D02*
X101441250Y5746250D01*
X104298750Y15081250D02*
X101441250Y12223750D01*
X104298750Y54530625D02*
X103822500Y55006875D01*
X104298750Y33972500D02*
X101441250Y31115000D01*
X101441250Y31115000D02*
X101441250Y24796250D01*
X101441250Y5746250D02*
X101498750Y5688750D01*
X104298750Y22383750D02*
X104298750Y15081250D01*
X103822500Y55006875D02*
X103822500Y60007500D01*
X101498750Y62838750D02*
X103853750Y60483750D01*
X103822500Y60007500D02*
X104298750Y60483750D01*
X104298750Y53181250D02*
X101441250Y50323750D01*
X101441250Y50323750D02*
X101441250Y43846250D01*
X101498750Y43788750D02*
X103853750Y41433750D01*
X101498750Y5688750D02*
X103853750Y3333750D01*
X103853750Y60483750D02*
X104298750Y60483750D01*
X103853750Y22383750D02*
X104298750Y22383750D01*
D24*
G04 #@! TO.N,N20*
X79295625Y35004375D03*
D25*
X79295625Y35004375D02*
X80278125Y35004375D01*
X80278125Y35004375D02*
X83373750Y38100000D01*
D26*
G04 #@! TO.N,GND*
X127547500Y47942500D03*
D27*
X127547500Y47942500D02*
X129128750Y47942500D01*
D24*
G04 #@! TO.N,N38*
X33972500Y68580000D03*
D25*
X35898750Y66653750D02*
X33972500Y68580000D01*
X35898750Y62657500D02*
X35898750Y66653750D01*
D24*
G04 #@! TO.N,N18*
X79216250Y54213125D03*
D25*
X80436875Y54213125D02*
X83373750Y57150000D01*
X79216250Y54213125D02*
X80436875Y54213125D01*
D24*
G04 #@! TO.N,C3*
X66198750Y65246250D03*
X124848750Y35242500D03*
X66198750Y8096250D03*
X66198750Y27146250D03*
X66198750Y46196250D03*
D25*
X124848750Y35242500D02*
X120568750Y35242500D01*
X66198750Y19843750D02*
X63341250Y16986250D01*
X66198750Y38893750D02*
X63500000Y36195000D01*
X66198750Y65246250D02*
X66198750Y57943750D01*
X63500000Y36195000D02*
X63500000Y29602500D01*
X63500000Y48652500D02*
X63398750Y48551250D01*
X63398750Y29501250D02*
X65753750Y27146250D01*
X66198750Y27146250D02*
X66198750Y19843750D01*
X63500000Y55245000D02*
X63500000Y48652500D01*
X66198750Y27146250D02*
X65753750Y27146250D01*
X66198750Y8096250D02*
X65753750Y8096250D01*
X63398750Y67601250D02*
X65753750Y65246250D01*
X66198750Y57943750D02*
X63500000Y55245000D01*
X63341250Y10508750D02*
X63398750Y10451250D01*
X65753750Y46196250D02*
X66198750Y46196250D01*
X63500000Y29602500D02*
X63398750Y29501250D01*
X63341250Y10508750D02*
X65753750Y8096250D01*
X66198750Y65246250D02*
X65753750Y65246250D01*
X66198750Y46196250D02*
X66198750Y38893750D01*
X63341250Y16986250D02*
X63341250Y10508750D01*
X63398750Y48551250D02*
X65753750Y46196250D01*
G04 #@! TO.N,N60*
X130728750Y42862500D02*
X132468750Y42862500D01*
D29*
G04 #@! TO.N,N55*
X118968750Y55562500D02*
X117228750Y55562500D01*
G04 --- BOARD END --- *
G04 #@! TF.MD5,e4fbc23d0aba931ed3db2189a54d8b9e*
M02*
